<ttFont>
<head>
    <!-- Most of this table will be recalculated by the compiler -->
    <tableVersion value="1.0"/>
    <fontRevision value="1.0"/>
    <checkSumAdjustment value="0x42c2f9d9"/>
    <magicNumber value="0x5f0f3cf5"/>
    <flags value="00000000 00011011"/>
    <unitsPerEm value="1000"/>
    <created value="Sat Dec  6 13:43:37 2025"/>
    <modified value="Sat Dec  6 13:49:15 2025"/>
    <xMin value="-62"/>
    <yMin value="-250"/>
    <xMax value="1123"/>
    <yMax value="750"/>
    <macStyle value="00000000 00000010"/>
    <lowestRecPPEM value="6"/>
    <fontDirectionHint value="2"/>
    <indexToLocFormat value="0"/>
    <glyphDataFormat value="0"/>
  </head>
    <TTGlyph name="A" xMin="32" yMin="0" xMax="722" yMax="716">
      <contour>
        <pt x="626" y="75" on="1"/>
        <pt x="628" y="62" on="0"/>
        <pt x="634" y="45" on="0"/>
        <pt x="649" y="35" on="0"/>
        <pt x="679" y="31" on="0"/>
        <pt x="706" y="31" on="1"/>
        <pt x="722" y="31" on="1"/>
        <pt x="721" y="25" on="0"/>
        <pt x="718" y="7" on="0"/>
        <pt x="717" y="0" on="1"/>
        <pt x="685" y="2" on="0"/>
        <pt x="618" y="3" on="0"/>
        <pt x="586" y="3" on="1"/>
        <pt x="572" y="3" on="0"/>
        <pt x="533" y="3" on="0"/>
        <pt x="493" y="2" on="0"/>
        <pt x="455" y="1" on="0"/>
        <pt x="442" y="0" on="1"/>
        <pt x="443" y="7" on="0"/>
        <pt x="446" y="25" on="0"/>
        <pt x="447" y="31" on="1"/>
        <pt x="456" y="31" on="0"/>
        <pt x="487" y="32" on="0"/>
        <pt x="515" y="38" on="0"/>
        <pt x="536" y="52" on="0"/>
        <pt x="536" y="64" on="1"/>
        <pt x="536" y="66" on="0"/>
        <pt x="535" y="77" on="0"/>
        <pt x="534" y="79" on="1"/>
        <pt x="507" y="228" on="1"/>
        <pt x="260" y="228" on="1"/>
        <pt x="255" y="220" on="0"/>
        <pt x="231" y="176" on="0"/>
        <pt x="206" y="127" on="0"/>
        <pt x="187" y="84" on="0"/>
        <pt x="187" y="76" on="1"/>
        <pt x="187" y="60" on="0"/>
        <pt x="205" y="42" on="0"/>
        <pt x="229" y="33" on="0"/>
        <pt x="251" y="30" on="0"/>
        <pt x="254" y="30" on="1"/>
        <pt x="248" y="0" on="1"/>
        <pt x="238" y="0" on="0"/>
        <pt x="205" y="1" on="0"/>
        <pt x="171" y="2" on="0"/>
        <pt x="142" y="3" on="0"/>
        <pt x="134" y="3" on="1"/>
        <pt x="104" y="3" on="0"/>
        <pt x="48" y="1" on="0"/>
        <pt x="32" y="0" on="1"/>
        <pt x="34" y="8" on="0"/>
        <pt x="35" y="23" on="0"/>
        <pt x="37" y="31" on="1"/>
        <pt x="88" y="31" on="0"/>
        <pt x="144" y="67" on="0"/>
        <pt x="161" y="99" on="1"/>
        <pt x="467" y="696" on="1"/>
        <pt x="473" y="708" on="0"/>
        <pt x="483" y="716" on="0"/>
        <pt x="494" y="716" on="1"/>
        <pt x="506" y="716" on="0"/>
        <pt x="512" y="707" on="0"/>
        <pt x="514" y="693" on="1"/>
      </contour>
      <contour>
        <pt x="276" y="259" on="1"/>
        <pt x="501" y="259" on="1"/>
        <pt x="443" y="584" on="1"/>
      </contour>
    </TTGlyph>
    <TTGlyph name="AE" xMin="32" yMin="0" xMax="932" yMax="683">
      <contour>
        <pt x="196" y="102" on="1"/>
        <pt x="190" y="91" on="0"/>
        <pt x="188" y="78" on="0"/>
        <pt x="188" y="75" on="1"/>
        <pt x="188" y="59" on="0"/>
        <pt x="208" y="41" on="0"/>
        <pt x="232" y="32" on="0"/>
        <pt x="253" y="30" on="0"/>
        <pt x="254" y="30" on="1"/>
        <pt x="248" y="0" on="1"/>
        <pt x="238" y="0" on="0"/>
        <pt x="205" y="1" on="0"/>
        <pt x="171" y="2" on="0"/>
        <pt x="142" y="3" on="0"/>
        <pt x="134" y="3" on="1"/>
        <pt x="104" y="3" on="0"/>
        <pt x="48" y="1" on="0"/>
        <pt x="32" y="0" on="1"/>
        <pt x="37" y="31" on="1"/>
        <pt x="88" y="32" on="0"/>
        <pt x="145" y="67" on="0"/>
        <pt x="162" y="99" on="1"/>
        <pt x="452" y="651" on="1"/>
        <pt x="442" y="652" on="0"/>
        <pt x="420" y="652" on="0"/>
        <pt x="410" y="652" on="1"/>
        <pt x="366" y="652" on="1"/>
        <pt x="371" y="683" on="1"/>
        <pt x="932" y="683" on="1"/>
        <pt x="922" y="458" on="1"/>
        <pt x="897" y="458" on="1"/>
        <pt x="898" y="462" on="1"/>
        <pt x="899" y="507" on="1"/>
        <pt x="899" y="545" on="0"/>
        <pt x="888" y="600" on="0"/>
        <pt x="856" y="635" on="0"/>
        <pt x="797" y="652" on="0"/>
        <pt x="750" y="652" on="1"/>
        <pt x="658" y="652" on="1"/>
        <pt x="639" y="652" on="0"/>
        <pt x="618" y="649" on="0"/>
        <pt x="608" y="640" on="0"/>
        <pt x="604" y="626" on="0"/>
        <pt x="602" y="615" on="1"/>
        <pt x="557" y="344" on="1"/>
        <pt x="639" y="344" on="1"/>
        <pt x="673" y="344" on="0"/>
        <pt x="716" y="355" on="0"/>
        <pt x="743" y="381" on="0"/>
        <pt x="758" y="427" on="0"/>
        <pt x="764" y="461" on="1"/>
        <pt x="789" y="461" on="1"/>
        <pt x="745" y="196" on="1"/>
        <pt x="720" y="196" on="1"/>
        <pt x="722" y="209" on="0"/>
        <pt x="725" y="224" on="0"/>
        <pt x="726" y="234" on="0"/>
        <pt x="726" y="243" on="0"/>
        <pt x="726" y="249" on="1"/>
        <pt x="726" y="287" on="0"/>
        <pt x="685" y="313" on="0"/>
        <pt x="634" y="313" on="1"/>
        <pt x="551" y="313" on="1"/>
        <pt x="511" y="72" on="1"/>
        <pt x="509" y="61" on="0"/>
        <pt x="508" y="54" on="0"/>
        <pt x="508" y="52" on="1"/>
        <pt x="508" y="36" on="0"/>
        <pt x="534" y="31" on="0"/>
        <pt x="555" y="31" on="1"/>
        <pt x="646" y="31" on="1"/>
        <pt x="707" y="31" on="0"/>
        <pt x="785" y="57" on="0"/>
        <pt x="837" y="113" on="0"/>
        <pt x="873" y="198" on="0"/>
        <pt x="892" y="258" on="1"/>
        <pt x="917" y="258" on="1"/>
        <pt x="832" y="0" on="1"/>
        <pt x="339" y="0" on="1"/>
        <pt x="340" y="6" on="0"/>
        <pt x="343" y="24" on="0"/>
        <pt x="344" y="31" on="1"/>
        <pt x="372" y="31" on="0"/>
        <pt x="403" y="34" on="0"/>
        <pt x="420" y="43" on="0"/>
        <pt x="426" y="60" on="0"/>
        <pt x="428" y="74" on="1"/>
        <pt x="468" y="313" on="1"/>
        <pt x="307" y="313" on="1"/>
      </contour>
      <contour>
        <pt x="324" y="344" on="1"/>
        <pt x="473" y="344" on="1"/>
        <pt x="517" y="607" on="1"/>
        <pt x="519" y="614" on="0"/>
        <pt x="519" y="619" on="0"/>
        <pt x="519" y="621" on="1"/>
        <pt x="519" y="638" on="0"/>
        <pt x="493" y="648" on="0"/>
        <pt x="483" y="648" on="1"/>
      </contour>
    </TTGlyph>
    <TTGlyph name="B" xMin="36" yMin="0" xMax="711" yMax="683">
      <contour>
        <pt x="513" y="683" on="1"/>
        <pt x="559" y="683" on="0"/>
        <pt x="632" y="660" on="0"/>
        <pt x="683" y="619" on="0"/>
        <pt x="711" y="565" on="0"/>
        <pt x="711" y="534" on="1"/>
        <pt x="711" y="501" on="0"/>
        <pt x="679" y="442" on="0"/>
        <pt x="625" y="396" on="0"/>
        <pt x="555" y="364" on="0"/>
        <pt x="517" y="357" on="1"/>
        <pt x="550" y="354" on="0"/>
        <pt x="610" y="330" on="0"/>
        <pt x="656" y="292" on="0"/>
        <pt x="683" y="238" on="0"/>
        <pt x="683" y="205" on="1"/>
        <pt x="683" y="168" on="0"/>
        <pt x="644" y="95" on="0"/>
        <pt x="576" y="36" on="0"/>
        <pt x="482" y="0" on="0"/>
        <pt x="427" y="0" on="1"/>
        <pt x="36" y="0" on="1"/>
        <pt x="41" y="31" on="1"/>
        <pt x="56" y="31" on="0"/>
        <pt x="100" y="32" on="0"/>
        <pt x="114" y="34" on="1"/>
        <pt x="137" y="38" on="0"/>
        <pt x="148" y="57" on="0"/>
        <pt x="151" y="75" on="1"/>
        <pt x="239" y="600" on="1"/>
        <pt x="240" y="606" on="0"/>
        <pt x="242" y="619" on="0"/>
        <pt x="242" y="624" on="1"/>
        <pt x="242" y="641" on="0"/>
        <pt x="221" y="649" on="0"/>
        <pt x="204" y="651" on="1"/>
        <pt x="192" y="652" on="0"/>
        <pt x="156" y="652" on="0"/>
        <pt x="145" y="652" on="1"/>
        <pt x="150" y="683" on="1"/>
      </contour>
      <contour>
        <pt x="426" y="366" on="1"/>
        <pt x="470" y="366" on="0"/>
        <pt x="540" y="397" on="0"/>
        <pt x="588" y="447" on="0"/>
        <pt x="614" y="508" on="0"/>
        <pt x="614" y="539" on="1"/>
        <pt x="614" y="553" on="0"/>
        <pt x="606" y="591" on="0"/>
        <pt x="582" y="627" on="0"/>
        <pt x="537" y="652" on="0"/>
        <pt x="501" y="652" on="1"/>
        <pt x="381" y="652" on="1"/>
        <pt x="362" y="652" on="0"/>
        <pt x="341" y="649" on="0"/>
        <pt x="331" y="640" on="0"/>
        <pt x="327" y="626" on="0"/>
        <pt x="325" y="615" on="1"/>
        <pt x="283" y="366" on="1"/>
      </contour>
      <contour>
        <pt x="399" y="31" on="1"/>
        <pt x="441" y="31" on="0"/>
        <pt x="509" y="63" on="0"/>
        <pt x="558" y="114" on="0"/>
        <pt x="584" y="181" on="0"/>
        <pt x="584" y="215" on="1"/>
        <pt x="584" y="230" on="0"/>
        <pt x="576" y="274" on="0"/>
        <pt x="550" y="315" on="0"/>
        <pt x="503" y="344" on="0"/>
        <pt x="465" y="344" on="1"/>
        <pt x="280" y="344" on="1"/>
        <pt x="234" y="72" on="1"/>
        <pt x="232" y="61" on="0"/>
        <pt x="231" y="54" on="0"/>
        <pt x="231" y="52" on="1"/>
        <pt x="231" y="36" on="0"/>
        <pt x="257" y="31" on="0"/>
        <pt x="278" y="31" on="1"/>
      </contour>
    </TTGlyph>
    <TTGlyph name="C" xMin="108" yMin="-22" xMax="781" yMax="705">
      <contour>
        <pt x="735" y="423" on="1"/>
        <pt x="732" y="421" on="0"/>
        <pt x="723" y="420" on="0"/>
        <pt x="721" y="420" on="1"/>
        <pt x="716" y="420" on="0"/>
        <pt x="707" y="422" on="0"/>
        <pt x="706" y="430" on="1"/>
        <pt x="706" y="437" on="0"/>
        <pt x="707" y="449" on="0"/>
        <pt x="707" y="455" on="1"/>
        <pt x="707" y="497" on="0"/>
        <pt x="685" y="575" on="0"/>
        <pt x="641" y="637" on="0"/>
        <pt x="574" y="674" on="0"/>
        <pt x="529" y="674" on="1"/>
        <pt x="493" y="674" on="0"/>
        <pt x="426" y="654" on="0"/>
        <pt x="366" y="620" on="0"/>
        <pt x="316" y="575" on="0"/>
        <pt x="298" y="551" on="1"/>
        <pt x="264" y="505" on="0"/>
        <pt x="227" y="402" on="0"/>
        <pt x="210" y="313" on="0"/>
        <pt x="207" y="251" on="0"/>
        <pt x="207" y="246" on="1"/>
        <pt x="207" y="178" on="0"/>
        <pt x="247" y="87" on="0"/>
        <pt x="309" y="32" on="0"/>
        <pt x="383" y="9" on="0"/>
        <pt x="417" y="9" on="1"/>
        <pt x="456" y="9" on="0"/>
        <pt x="541" y="39" on="0"/>
        <pt x="586" y="77" on="1"/>
        <pt x="613" y="100" on="0"/>
        <pt x="647" y="148" on="0"/>
        <pt x="667" y="193" on="0"/>
        <pt x="677" y="230" on="0"/>
        <pt x="680" y="241" on="1"/>
        <pt x="682" y="248" on="0"/>
        <pt x="691" y="250" on="0"/>
        <pt x="693" y="250" on="1"/>
        <pt x="697" y="250" on="0"/>
        <pt x="705" y="247" on="0"/>
        <pt x="705" y="239" on="1"/>
        <pt x="705" y="239" on="0"/>
        <pt x="698" y="205" on="0"/>
        <pt x="677" y="152" on="0"/>
        <pt x="637" y="88" on="0"/>
        <pt x="603" y="58" on="1"/>
        <pt x="561" y="21" on="0"/>
        <pt x="459" y="-22" on="0"/>
        <pt x="402" y="-22" on="1"/>
        <pt x="342" y="-22" on="0"/>
        <pt x="235" y="21" on="0"/>
        <pt x="155" y="101" on="0"/>
        <pt x="108" y="212" on="0"/>
        <pt x="108" y="281" on="1"/>
        <pt x="108" y="367" on="0"/>
        <pt x="179" y="521" on="0"/>
        <pt x="294" y="637" on="0"/>
        <pt x="442" y="705" on="0"/>
        <pt x="519" y="705" on="1"/>
        <pt x="564" y="705" on="0"/>
        <pt x="647" y="671" on="0"/>
        <pt x="681" y="629" on="1"/>
        <pt x="686" y="624" on="0"/>
        <pt x="689" y="621" on="0"/>
        <pt x="690" y="621" on="1"/>
        <pt x="691" y="621" on="0"/>
        <pt x="693" y="624" on="0"/>
        <pt x="699" y="630" on="1"/>
        <pt x="753" y="692" on="1"/>
        <pt x="755" y="694" on="0"/>
        <pt x="758" y="699" on="0"/>
        <pt x="760" y="700" on="1"/>
        <pt x="763" y="705" on="0"/>
        <pt x="769" y="705" on="1"/>
        <pt x="774" y="705" on="0"/>
        <pt x="781" y="700" on="0"/>
        <pt x="781" y="694" on="1"/>
      </contour>
    </TTGlyph>
    <TTGlyph name="D" xMin="35" yMin="0" xMax="768" yMax="683">
      <contour>
        <pt x="512" y="683" on="1"/>
        <pt x="571" y="683" on="0"/>
        <pt x="665" y="640" on="0"/>
        <pt x="732" y="564" on="0"/>
        <pt x="768" y="461" on="0"/>
        <pt x="768" y="401" on="1"/>
        <pt x="768" y="319" on="0"/>
        <pt x="706" y="174" on="0"/>
        <pt x="604" y="64" on="0"/>
        <pt x="471" y="0" on="0"/>
        <pt x="399" y="0" on="1"/>
        <pt x="35" y="0" on="1"/>
        <pt x="40" y="31" on="1"/>
        <pt x="55" y="31" on="0"/>
        <pt x="99" y="32" on="0"/>
        <pt x="113" y="34" on="1"/>
        <pt x="136" y="38" on="0"/>
        <pt x="147" y="57" on="0"/>
        <pt x="150" y="75" on="1"/>
        <pt x="238" y="600" on="1"/>
        <pt x="239" y="606" on="0"/>
        <pt x="241" y="619" on="0"/>
        <pt x="241" y="624" on="1"/>
        <pt x="241" y="641" on="0"/>
        <pt x="220" y="649" on="0"/>
        <pt x="203" y="651" on="1"/>
        <pt x="191" y="652" on="0"/>
        <pt x="155" y="652" on="0"/>
        <pt x="144" y="652" on="1"/>
        <pt x="149" y="683" on="1"/>
      </contour>
      <contour>
        <pt x="236" y="72" on="1"/>
        <pt x="234" y="61" on="0"/>
        <pt x="233" y="54" on="0"/>
        <pt x="233" y="52" on="1"/>
        <pt x="233" y="36" on="0"/>
        <pt x="259" y="31" on="0"/>
        <pt x="280" y="31" on="1"/>
        <pt x="377" y="31" on="1"/>
        <pt x="415" y="31" on="0"/>
        <pt x="480" y="49" on="0"/>
        <pt x="533" y="79" on="0"/>
        <pt x="576" y="118" on="0"/>
        <pt x="591" y="139" on="1"/>
        <pt x="620" y="179" on="0"/>
        <pt x="653" y="279" on="0"/>
        <pt x="669" y="369" on="0"/>
        <pt x="673" y="436" on="0"/>
        <pt x="673" y="442" on="1"/>
        <pt x="673" y="500" on="0"/>
        <pt x="640" y="580" on="0"/>
        <pt x="586" y="630" on="0"/>
        <pt x="516" y="652" on="0"/>
        <pt x="480" y="652" on="1"/>
        <pt x="383" y="652" on="1"/>
        <pt x="364" y="652" on="0"/>
        <pt x="343" y="649" on="0"/>
        <pt x="333" y="640" on="0"/>
        <pt x="329" y="626" on="0"/>
        <pt x="327" y="615" on="1"/>
      </contour>
    </TTGlyph>
    <TTGlyph name="E" xMin="33" yMin="0" xMax="709" yMax="680">
      <contour>
        <pt x="610" y="0" on="1"/>
        <pt x="33" y="0" on="1"/>
        <pt x="35" y="8" on="0"/>
        <pt x="36" y="23" on="0"/>
        <pt x="38" y="31" on="1"/>
        <pt x="60" y="31" on="1"/>
        <pt x="90" y="31" on="0"/>
        <pt x="124" y="36" on="0"/>
        <pt x="141" y="46" on="0"/>
        <pt x="146" y="63" on="0"/>
        <pt x="148" y="75" on="1"/>
        <pt x="237" y="607" on="1"/>
        <pt x="239" y="614" on="0"/>
        <pt x="239" y="619" on="0"/>
        <pt x="239" y="621" on="1"/>
        <pt x="239" y="637" on="0"/>
        <pt x="211" y="649" on="0"/>
        <pt x="163" y="649" on="1"/>
        <pt x="141" y="649" on="1"/>
        <pt x="146" y="680" on="1"/>
        <pt x="709" y="680" on="1"/>
        <pt x="700" y="455" on="1"/>
        <pt x="675" y="455" on="1"/>
        <pt x="676" y="464" on="0"/>
        <pt x="676" y="488" on="0"/>
        <pt x="676" y="498" on="1"/>
        <pt x="676" y="539" on="0"/>
        <pt x="663" y="596" on="0"/>
        <pt x="626" y="632" on="0"/>
        <pt x="561" y="649" on="0"/>
        <pt x="509" y="649" on="1"/>
        <pt x="384" y="649" on="1"/>
        <pt x="366" y="649" on="0"/>
        <pt x="346" y="646" on="0"/>
        <pt x="334" y="638" on="0"/>
        <pt x="329" y="623" on="0"/>
        <pt x="327" y="611" on="1"/>
        <pt x="287" y="369" on="1"/>
        <pt x="375" y="369" on="1"/>
        <pt x="408" y="369" on="0"/>
        <pt x="452" y="379" on="0"/>
        <pt x="482" y="404" on="0"/>
        <pt x="499" y="450" on="0"/>
        <pt x="504" y="486" on="1"/>
        <pt x="529" y="486" on="1"/>
        <pt x="485" y="221" on="1"/>
        <pt x="460" y="221" on="1"/>
        <pt x="462" y="234" on="0"/>
        <pt x="466" y="258" on="0"/>
        <pt x="466" y="273" on="1"/>
        <pt x="466" y="313" on="0"/>
        <pt x="420" y="338" on="0"/>
        <pt x="369" y="338" on="1"/>
        <pt x="282" y="338" on="1"/>
        <pt x="237" y="72" on="1"/>
        <pt x="235" y="61" on="0"/>
        <pt x="234" y="54" on="0"/>
        <pt x="234" y="52" on="1"/>
        <pt x="234" y="36" on="0"/>
        <pt x="260" y="31" on="0"/>
        <pt x="281" y="31" on="1"/>
        <pt x="411" y="31" on="1"/>
        <pt x="470" y="31" on="0"/>
        <pt x="551" y="53" on="0"/>
        <pt x="608" y="106" on="0"/>
        <pt x="650" y="193" on="0"/>
        <pt x="670" y="258" on="1"/>
        <pt x="695" y="258" on="1"/>
      </contour>
    </TTGlyph>
    <TTGlyph name="F" xMin="33" yMin="0" xMax="695" yMax="680">
      <contour>
        <pt x="239" y="84" on="1"/>
        <pt x="237" y="72" on="0"/>
        <pt x="236" y="65" on="0"/>
        <pt x="236" y="61" on="1"/>
        <pt x="236" y="53" on="0"/>
        <pt x="242" y="41" on="0"/>
        <pt x="262" y="34" on="0"/>
        <pt x="297" y="31" on="0"/>
        <pt x="327" y="31" on="1"/>
        <pt x="359" y="31" on="1"/>
        <pt x="354" y="0" on="1"/>
        <pt x="340" y="1" on="0"/>
        <pt x="295" y="2" on="0"/>
        <pt x="247" y="3" on="0"/>
        <pt x="201" y="3" on="0"/>
        <pt x="185" y="3" on="1"/>
        <pt x="170" y="3" on="0"/>
        <pt x="129" y="3" on="0"/>
        <pt x="86" y="2" on="0"/>
        <pt x="46" y="1" on="0"/>
        <pt x="33" y="0" on="1"/>
        <pt x="38" y="31" on="1"/>
        <pt x="60" y="31" on="1"/>
        <pt x="90" y="31" on="0"/>
        <pt x="124" y="36" on="0"/>
        <pt x="141" y="46" on="0"/>
        <pt x="146" y="63" on="0"/>
        <pt x="148" y="75" on="1"/>
        <pt x="237" y="607" on="1"/>
        <pt x="239" y="614" on="0"/>
        <pt x="239" y="619" on="0"/>
        <pt x="239" y="621" on="1"/>
        <pt x="239" y="637" on="0"/>
        <pt x="211" y="649" on="0"/>
        <pt x="163" y="649" on="1"/>
        <pt x="141" y="649" on="1"/>
        <pt x="146" y="680" on="1"/>
        <pt x="695" y="680" on="1"/>
        <pt x="686" y="455" on="1"/>
        <pt x="661" y="455" on="1"/>
        <pt x="662" y="464" on="0"/>
        <pt x="662" y="489" on="0"/>
        <pt x="662" y="499" on="1"/>
        <pt x="662" y="539" on="0"/>
        <pt x="650" y="596" on="0"/>
        <pt x="615" y="632" on="0"/>
        <pt x="551" y="649" on="0"/>
        <pt x="500" y="649" on="1"/>
        <pt x="384" y="649" on="1"/>
        <pt x="366" y="649" on="0"/>
        <pt x="346" y="646" on="0"/>
        <pt x="334" y="638" on="0"/>
        <pt x="329" y="623" on="0"/>
        <pt x="327" y="611" on="1"/>
        <pt x="285" y="356" on="1"/>
        <pt x="369" y="356" on="1"/>
        <pt x="404" y="356" on="0"/>
        <pt x="448" y="367" on="0"/>
        <pt x="475" y="394" on="0"/>
        <pt x="490" y="439" on="0"/>
        <pt x="496" y="473" on="1"/>
        <pt x="521" y="473" on="1"/>
        <pt x="477" y="208" on="1"/>
        <pt x="452" y="208" on="1"/>
        <pt x="454" y="222" on="0"/>
        <pt x="458" y="247" on="0"/>
        <pt x="458" y="261" on="1"/>
        <pt x="458" y="300" on="0"/>
        <pt x="412" y="325" on="0"/>
        <pt x="363" y="325" on="1"/>
        <pt x="279" y="325" on="1"/>
      </contour>
    </TTGlyph>
    <TTGlyph name="G" xMin="108" yMin="-22" xMax="782" yMax="705">
      <contour>
        <pt x="669" y="20" on="1"/>
        <pt x="667" y="8" on="0"/>
        <pt x="664" y="1" on="0"/>
        <pt x="658" y="1" on="1"/>
        <pt x="654" y="1" on="0"/>
        <pt x="639" y="14" on="0"/>
        <pt x="623" y="33" on="0"/>
        <pt x="608" y="55" on="0"/>
        <pt x="604" y="63" on="1"/>
        <pt x="591" y="44" on="0"/>
        <pt x="548" y="13" on="0"/>
        <pt x="496" y="-10" on="0"/>
        <pt x="436" y="-22" on="0"/>
        <pt x="404" y="-22" on="1"/>
        <pt x="341" y="-22" on="0"/>
        <pt x="233" y="22" on="0"/>
        <pt x="154" y="102" on="0"/>
        <pt x="108" y="214" on="0"/>
        <pt x="108" y="281" on="1"/>
        <pt x="108" y="366" on="0"/>
        <pt x="178" y="520" on="0"/>
        <pt x="294" y="636" on="0"/>
        <pt x="442" y="705" on="0"/>
        <pt x="520" y="705" on="1"/>
        <pt x="554" y="705" on="0"/>
        <pt x="607" y="689" on="0"/>
        <pt x="649" y="665" on="0"/>
        <pt x="679" y="634" on="0"/>
        <pt x="691" y="619" on="1"/>
        <pt x="754" y="692" on="1"/>
        <pt x="762" y="701" on="0"/>
        <pt x="767" y="705" on="0"/>
        <pt x="770" y="705" on="1"/>
        <pt x="775" y="705" on="0"/>
        <pt x="782" y="700" on="0"/>
        <pt x="782" y="694" on="1"/>
        <pt x="736" y="423" on="1"/>
        <pt x="733" y="421" on="0"/>
        <pt x="724" y="420" on="0"/>
        <pt x="722" y="420" on="1"/>
        <pt x="717" y="420" on="0"/>
        <pt x="708" y="423" on="0"/>
        <pt x="707" y="431" on="1"/>
        <pt x="707" y="454" on="1"/>
        <pt x="707" y="498" on="0"/>
        <pt x="684" y="578" on="0"/>
        <pt x="640" y="638" on="0"/>
        <pt x="574" y="674" on="0"/>
        <pt x="530" y="674" on="1"/>
        <pt x="467" y="674" on="0"/>
        <pt x="340" y="608" on="0"/>
        <pt x="293" y="544" on="1"/>
        <pt x="261" y="499" on="0"/>
        <pt x="226" y="397" on="0"/>
        <pt x="210" y="309" on="0"/>
        <pt x="207" y="249" on="0"/>
        <pt x="207" y="247" on="1"/>
        <pt x="207" y="180" on="0"/>
        <pt x="248" y="89" on="0"/>
        <pt x="311" y="33" on="0"/>
        <pt x="387" y="9" on="0"/>
        <pt x="422" y="9" on="1"/>
        <pt x="449" y="9" on="0"/>
        <pt x="502" y="22" on="0"/>
        <pt x="548" y="46" on="0"/>
        <pt x="583" y="80" on="0"/>
        <pt x="592" y="102" on="1"/>
        <pt x="594" y="107" on="0"/>
        <pt x="600" y="138" on="0"/>
        <pt x="607" y="175" on="0"/>
        <pt x="612" y="207" on="0"/>
        <pt x="612" y="213" on="1"/>
        <pt x="612" y="230" on="0"/>
        <pt x="577" y="242" on="0"/>
        <pt x="523" y="242" on="1"/>
        <pt x="492" y="242" on="1"/>
        <pt x="497" y="273" on="1"/>
        <pt x="513" y="271" on="0"/>
        <pt x="559" y="271" on="0"/>
        <pt x="575" y="271" on="1"/>
        <pt x="596" y="271" on="0"/>
        <pt x="637" y="270" on="0"/>
        <pt x="658" y="270" on="1"/>
        <pt x="712" y="270" on="0"/>
        <pt x="781" y="273" on="1"/>
        <pt x="780" y="267" on="0"/>
        <pt x="777" y="249" on="0"/>
        <pt x="776" y="242" on="1"/>
        <pt x="752" y="242" on="0"/>
        <pt x="723" y="239" on="0"/>
        <pt x="708" y="231" on="0"/>
        <pt x="702" y="215" on="0"/>
        <pt x="700" y="202" on="1"/>
      </contour>
    </TTGlyph>
    <TTGlyph name="Gamma" xMin="33" yMin="0" xMax="667" yMax="680">
      <contour>
        <pt x="239" y="84" on="1"/>
        <pt x="237" y="72" on="0"/>
        <pt x="236" y="65" on="0"/>
        <pt x="236" y="61" on="1"/>
        <pt x="236" y="53" on="0"/>
        <pt x="242" y="41" on="0"/>
        <pt x="262" y="34" on="0"/>
        <pt x="297" y="31" on="0"/>
        <pt x="327" y="31" on="1"/>
        <pt x="359" y="31" on="1"/>
        <pt x="354" y="0" on="1"/>
        <pt x="340" y="1" on="0"/>
        <pt x="295" y="2" on="0"/>
        <pt x="247" y="3" on="0"/>
        <pt x="201" y="3" on="0"/>
        <pt x="185" y="3" on="1"/>
        <pt x="170" y="3" on="0"/>
        <pt x="129" y="3" on="0"/>
        <pt x="86" y="2" on="0"/>
        <pt x="46" y="1" on="0"/>
        <pt x="33" y="0" on="1"/>
        <pt x="38" y="31" on="1"/>
        <pt x="60" y="31" on="1"/>
        <pt x="90" y="31" on="0"/>
        <pt x="124" y="36" on="0"/>
        <pt x="141" y="46" on="0"/>
        <pt x="146" y="63" on="0"/>
        <pt x="148" y="75" on="1"/>
        <pt x="237" y="607" on="1"/>
        <pt x="239" y="614" on="0"/>
        <pt x="239" y="619" on="0"/>
        <pt x="239" y="621" on="1"/>
        <pt x="239" y="637" on="0"/>
        <pt x="211" y="649" on="0"/>
        <pt x="163" y="649" on="1"/>
        <pt x="141" y="649" on="1"/>
        <pt x="146" y="680" on="1"/>
        <pt x="667" y="680" on="1"/>
        <pt x="658" y="455" on="1"/>
        <pt x="633" y="455" on="1"/>
        <pt x="634" y="464" on="0"/>
        <pt x="634" y="491" on="0"/>
        <pt x="634" y="501" on="1"/>
        <pt x="634" y="538" on="0"/>
        <pt x="625" y="593" on="0"/>
        <pt x="593" y="630" on="0"/>
        <pt x="533" y="649" on="0"/>
        <pt x="483" y="649" on="1"/>
        <pt x="384" y="649" on="1"/>
        <pt x="366" y="649" on="0"/>
        <pt x="346" y="646" on="0"/>
        <pt x="334" y="638" on="0"/>
        <pt x="329" y="623" on="0"/>
        <pt x="327" y="611" on="1"/>
      </contour>
    </TTGlyph>
    <TTGlyph name="H" xMin="33" yMin="0" xMax="830" yMax="683">
      <contour>
        <pt x="626" y="76" on="1"/>
        <pt x="625" y="70" on="0"/>
        <pt x="624" y="61" on="0"/>
        <pt x="624" y="59" on="1"/>
        <pt x="624" y="43" on="0"/>
        <pt x="653" y="31" on="0"/>
        <pt x="700" y="31" on="1"/>
        <pt x="721" y="31" on="1"/>
        <pt x="720" y="25" on="0"/>
        <pt x="717" y="7" on="0"/>
        <pt x="716" y="0" on="1"/>
        <pt x="703" y="1" on="0"/>
        <pt x="664" y="2" on="0"/>
        <pt x="623" y="3" on="0"/>
        <pt x="584" y="3" on="0"/>
        <pt x="569" y="3" on="1"/>
        <pt x="555" y="3" on="0"/>
        <pt x="515" y="3" on="0"/>
        <pt x="473" y="2" on="0"/>
        <pt x="434" y="1" on="0"/>
        <pt x="421" y="0" on="1"/>
        <pt x="426" y="31" on="1"/>
        <pt x="448" y="31" on="1"/>
        <pt x="478" y="31" on="0"/>
        <pt x="512" y="36" on="0"/>
        <pt x="529" y="46" on="0"/>
        <pt x="534" y="63" on="0"/>
        <pt x="536" y="75" on="1"/>
        <pt x="580" y="340" on="1"/>
        <pt x="282" y="340" on="1"/>
        <pt x="238" y="76" on="1"/>
        <pt x="237" y="70" on="0"/>
        <pt x="236" y="61" on="0"/>
        <pt x="236" y="59" on="1"/>
        <pt x="236" y="43" on="0"/>
        <pt x="265" y="31" on="0"/>
        <pt x="312" y="31" on="1"/>
        <pt x="333" y="31" on="1"/>
        <pt x="332" y="25" on="0"/>
        <pt x="329" y="7" on="0"/>
        <pt x="328" y="0" on="1"/>
        <pt x="315" y="1" on="0"/>
        <pt x="276" y="2" on="0"/>
        <pt x="235" y="3" on="0"/>
        <pt x="196" y="3" on="0"/>
        <pt x="181" y="3" on="1"/>
        <pt x="167" y="3" on="0"/>
        <pt x="127" y="3" on="0"/>
        <pt x="85" y="2" on="0"/>
        <pt x="46" y="1" on="0"/>
        <pt x="33" y="0" on="1"/>
        <pt x="38" y="31" on="1"/>
        <pt x="60" y="31" on="1"/>
        <pt x="90" y="31" on="0"/>
        <pt x="124" y="36" on="0"/>
        <pt x="141" y="46" on="0"/>
        <pt x="146" y="63" on="0"/>
        <pt x="148" y="75" on="1"/>
        <pt x="236" y="600" on="1"/>
        <pt x="237" y="606" on="0"/>
        <pt x="239" y="619" on="0"/>
        <pt x="239" y="624" on="1"/>
        <pt x="239" y="632" on="0"/>
        <pt x="234" y="643" on="0"/>
        <pt x="218" y="649" on="0"/>
        <pt x="188" y="652" on="0"/>
        <pt x="163" y="652" on="1"/>
        <pt x="142" y="652" on="1"/>
        <pt x="143" y="659" on="0"/>
        <pt x="146" y="677" on="0"/>
        <pt x="147" y="683" on="1"/>
        <pt x="161" y="682" on="0"/>
        <pt x="199" y="681" on="0"/>
        <pt x="240" y="680" on="0"/>
        <pt x="279" y="680" on="0"/>
        <pt x="294" y="680" on="1"/>
        <pt x="308" y="680" on="0"/>
        <pt x="348" y="680" on="0"/>
        <pt x="390" y="681" on="0"/>
        <pt x="429" y="682" on="0"/>
        <pt x="442" y="683" on="1"/>
        <pt x="437" y="652" on="1"/>
        <pt x="415" y="652" on="1"/>
        <pt x="385" y="652" on="0"/>
        <pt x="351" y="647" on="0"/>
        <pt x="334" y="637" on="0"/>
        <pt x="329" y="621" on="0"/>
        <pt x="327" y="609" on="1"/>
        <pt x="287" y="371" on="1"/>
        <pt x="586" y="371" on="1"/>
        <pt x="624" y="600" on="1"/>
        <pt x="625" y="606" on="0"/>
        <pt x="627" y="619" on="0"/>
        <pt x="627" y="624" on="1"/>
        <pt x="627" y="632" on="0"/>
        <pt x="622" y="643" on="0"/>
        <pt x="606" y="649" on="0"/>
        <pt x="576" y="652" on="0"/>
        <pt x="551" y="652" on="1"/>
        <pt x="530" y="652" on="1"/>
        <pt x="531" y="659" on="0"/>
        <pt x="534" y="677" on="0"/>
        <pt x="535" y="683" on="1"/>
        <pt x="549" y="682" on="0"/>
        <pt x="587" y="681" on="0"/>
        <pt x="628" y="680" on="0"/>
        <pt x="667" y="680" on="0"/>
        <pt x="682" y="680" on="1"/>
        <pt x="696" y="680" on="0"/>
        <pt x="736" y="680" on="0"/>
        <pt x="778" y="681" on="0"/>
        <pt x="817" y="682" on="0"/>
        <pt x="830" y="683" on="1"/>
        <pt x="825" y="652" on="1"/>
        <pt x="803" y="652" on="1"/>
        <pt x="773" y="652" on="0"/>
        <pt x="740" y="648" on="0"/>
        <pt x="723" y="637" on="0"/>
        <pt x="717" y="621" on="0"/>
        <pt x="715" y="609" on="1"/>
      </contour>
    </TTGlyph>
    <TTGlyph name="I" xMin="28" yMin="0" xMax="447" yMax="683">
      <contour>
        <pt x="239" y="84" on="1"/>
        <pt x="238" y="78" on="0"/>
        <pt x="236" y="65" on="0"/>
        <pt x="236" y="60" on="1"/>
        <pt x="236" y="52" on="0"/>
        <pt x="240" y="41" on="0"/>
        <pt x="257" y="34" on="0"/>
        <pt x="288" y="31" on="0"/>
        <pt x="315" y="31" on="1"/>
        <pt x="338" y="31" on="1"/>
        <pt x="337" y="24" on="0"/>
        <pt x="334" y="6" on="0"/>
        <pt x="333" y="0" on="1"/>
        <pt x="320" y="1" on="0"/>
        <pt x="280" y="2" on="0"/>
        <pt x="237" y="3" on="0"/>
        <pt x="196" y="3" on="0"/>
        <pt x="181" y="3" on="1"/>
        <pt x="166" y="3" on="0"/>
        <pt x="125" y="3" on="0"/>
        <pt x="82" y="2" on="0"/>
        <pt x="42" y="1" on="0"/>
        <pt x="28" y="0" on="1"/>
        <pt x="33" y="31" on="1"/>
        <pt x="57" y="31" on="1"/>
        <pt x="87" y="31" on="0"/>
        <pt x="122" y="35" on="0"/>
        <pt x="140" y="45" on="0"/>
        <pt x="146" y="62" on="0"/>
        <pt x="148" y="74" on="1"/>
        <pt x="236" y="600" on="1"/>
        <pt x="237" y="606" on="0"/>
        <pt x="239" y="619" on="0"/>
        <pt x="239" y="624" on="1"/>
        <pt x="239" y="632" on="0"/>
        <pt x="233" y="643" on="0"/>
        <pt x="217" y="649" on="0"/>
        <pt x="186" y="652" on="0"/>
        <pt x="160" y="652" on="1"/>
        <pt x="137" y="652" on="1"/>
        <pt x="138" y="659" on="0"/>
        <pt x="141" y="677" on="0"/>
        <pt x="142" y="683" on="1"/>
        <pt x="155" y="682" on="0"/>
        <pt x="195" y="681" on="0"/>
        <pt x="238" y="680" on="0"/>
        <pt x="279" y="680" on="0"/>
        <pt x="294" y="680" on="1"/>
        <pt x="309" y="680" on="0"/>
        <pt x="350" y="680" on="0"/>
        <pt x="393" y="681" on="0"/>
        <pt x="434" y="682" on="0"/>
        <pt x="447" y="683" on="1"/>
        <pt x="442" y="652" on="1"/>
        <pt x="418" y="652" on="1"/>
        <pt x="387" y="652" on="0"/>
        <pt x="352" y="647" on="0"/>
        <pt x="334" y="637" on="0"/>
        <pt x="329" y="620" on="0"/>
        <pt x="327" y="608" on="1"/>
      </contour>
    </TTGlyph>
    <TTGlyph name="J" xMin="58" yMin="-22" xMax="579" yMax="683">
      <contour>
        <pt x="413" y="147" on="1"/>
        <pt x="407" y="108" on="0"/>
        <pt x="365" y="46" on="0"/>
        <pt x="306" y="2" on="0"/>
        <pt x="235" y="-22" on="0"/>
        <pt x="200" y="-22" on="1"/>
        <pt x="168" y="-22" on="0"/>
        <pt x="115" y="-3" on="0"/>
        <pt x="78" y="29" on="0"/>
        <pt x="58" y="72" on="0"/>
        <pt x="58" y="96" on="1"/>
        <pt x="58" y="118" on="0"/>
        <pt x="72" y="147" on="0"/>
        <pt x="93" y="163" on="0"/>
        <pt x="115" y="170" on="0"/>
        <pt x="123" y="170" on="1"/>
        <pt x="146" y="170" on="0"/>
        <pt x="173" y="143" on="0"/>
        <pt x="173" y="123" on="1"/>
        <pt x="173" y="97" on="0"/>
        <pt x="137" y="58" on="0"/>
        <pt x="109" y="58" on="1"/>
        <pt x="101" y="58" on="0"/>
        <pt x="97" y="59" on="1"/>
        <pt x="106" y="40" on="0"/>
        <pt x="133" y="16" on="0"/>
        <pt x="162" y="4" on="0"/>
        <pt x="189" y="0" on="0"/>
        <pt x="197" y="0" on="1"/>
        <pt x="215" y="0" on="0"/>
        <pt x="256" y="18" on="0"/>
        <pt x="292" y="55" on="0"/>
        <pt x="320" y="111" on="0"/>
        <pt x="326" y="148" on="1"/>
        <pt x="402" y="600" on="1"/>
        <pt x="404" y="612" on="0"/>
        <pt x="405" y="619" on="0"/>
        <pt x="405" y="622" on="1"/>
        <pt x="405" y="633" on="0"/>
        <pt x="391" y="645" on="0"/>
        <pt x="365" y="651" on="0"/>
        <pt x="331" y="652" on="0"/>
        <pt x="311" y="652" on="1"/>
        <pt x="277" y="652" on="1"/>
        <pt x="278" y="658" on="0"/>
        <pt x="281" y="676" on="0"/>
        <pt x="282" y="683" on="1"/>
        <pt x="299" y="681" on="0"/>
        <pt x="348" y="681" on="0"/>
        <pt x="366" y="681" on="1"/>
        <pt x="387" y="681" on="0"/>
        <pt x="428" y="680" on="0"/>
        <pt x="449" y="680" on="1"/>
        <pt x="513" y="680" on="0"/>
        <pt x="579" y="683" on="1"/>
        <pt x="574" y="652" on="1"/>
        <pt x="550" y="652" on="0"/>
        <pt x="519" y="651" on="0"/>
        <pt x="501" y="643" on="0"/>
        <pt x="493" y="626" on="0"/>
        <pt x="490" y="610" on="1"/>
      </contour>
    </TTGlyph>
    <TTGlyph name="K" xMin="33" yMin="0" xMax="835" yMax="683">
      <contour>
        <pt x="643" y="80" on="1"/>
        <pt x="652" y="62" on="0"/>
        <pt x="672" y="42" on="0"/>
        <pt x="695" y="33" on="0"/>
        <pt x="723" y="31" on="0"/>
        <pt x="741" y="31" on="1"/>
        <pt x="735" y="0" on="1"/>
        <pt x="703" y="1" on="0"/>
        <pt x="642" y="3" on="0"/>
        <pt x="621" y="3" on="1"/>
        <pt x="551" y="2" on="1"/>
        <pt x="537" y="2" on="0"/>
        <pt x="492" y="2" on="0"/>
        <pt x="478" y="0" on="1"/>
        <pt x="483" y="31" on="1"/>
        <pt x="490" y="31" on="0"/>
        <pt x="512" y="32" on="0"/>
        <pt x="532" y="38" on="0"/>
        <pt x="547" y="52" on="0"/>
        <pt x="547" y="65" on="1"/>
        <pt x="547" y="74" on="0"/>
        <pt x="540" y="93" on="0"/>
        <pt x="536" y="100" on="1"/>
        <pt x="401" y="363" on="1"/>
        <pt x="268" y="253" on="1"/>
        <pt x="238" y="76" on="1"/>
        <pt x="237" y="70" on="0"/>
        <pt x="236" y="61" on="0"/>
        <pt x="236" y="59" on="1"/>
        <pt x="236" y="43" on="0"/>
        <pt x="265" y="31" on="0"/>
        <pt x="312" y="31" on="1"/>
        <pt x="333" y="31" on="1"/>
        <pt x="332" y="25" on="0"/>
        <pt x="329" y="7" on="0"/>
        <pt x="328" y="0" on="1"/>
        <pt x="315" y="1" on="0"/>
        <pt x="276" y="2" on="0"/>
        <pt x="235" y="3" on="0"/>
        <pt x="196" y="3" on="0"/>
        <pt x="181" y="3" on="1"/>
        <pt x="167" y="3" on="0"/>
        <pt x="127" y="3" on="0"/>
        <pt x="85" y="2" on="0"/>
        <pt x="46" y="1" on="0"/>
        <pt x="33" y="0" on="1"/>
        <pt x="38" y="31" on="1"/>
        <pt x="60" y="31" on="1"/>
        <pt x="90" y="31" on="0"/>
        <pt x="124" y="36" on="0"/>
        <pt x="141" y="46" on="0"/>
        <pt x="146" y="63" on="0"/>
        <pt x="148" y="75" on="1"/>
        <pt x="236" y="600" on="1"/>
        <pt x="237" y="606" on="0"/>
        <pt x="239" y="619" on="0"/>
        <pt x="239" y="624" on="1"/>
        <pt x="239" y="632" on="0"/>
        <pt x="234" y="643" on="0"/>
        <pt x="218" y="649" on="0"/>
        <pt x="188" y="652" on="0"/>
        <pt x="163" y="652" on="1"/>
        <pt x="142" y="652" on="1"/>
        <pt x="143" y="659" on="0"/>
        <pt x="146" y="677" on="0"/>
        <pt x="147" y="683" on="1"/>
        <pt x="161" y="682" on="0"/>
        <pt x="199" y="681" on="0"/>
        <pt x="240" y="680" on="0"/>
        <pt x="279" y="680" on="0"/>
        <pt x="294" y="680" on="1"/>
        <pt x="308" y="680" on="0"/>
        <pt x="348" y="680" on="0"/>
        <pt x="390" y="681" on="0"/>
        <pt x="429" y="682" on="0"/>
        <pt x="442" y="683" on="1"/>
        <pt x="437" y="652" on="1"/>
        <pt x="415" y="652" on="1"/>
        <pt x="385" y="652" on="0"/>
        <pt x="351" y="647" on="0"/>
        <pt x="334" y="637" on="0"/>
        <pt x="329" y="621" on="0"/>
        <pt x="327" y="609" on="1"/>
        <pt x="273" y="288" on="1"/>
        <pt x="637" y="587" on="1"/>
        <pt x="643" y="592" on="0"/>
        <pt x="659" y="609" on="0"/>
        <pt x="659" y="623" on="1"/>
        <pt x="659" y="634" on="0"/>
        <pt x="647" y="646" on="0"/>
        <pt x="632" y="652" on="0"/>
        <pt x="619" y="653" on="0"/>
        <pt x="619" y="653" on="1"/>
        <pt x="625" y="683" on="1"/>
        <pt x="651" y="681" on="0"/>
        <pt x="723" y="680" on="0"/>
        <pt x="750" y="680" on="1"/>
        <pt x="770" y="680" on="0"/>
        <pt x="815" y="681" on="0"/>
        <pt x="835" y="683" on="1"/>
        <pt x="830" y="652" on="1"/>
        <pt x="821" y="652" on="0"/>
        <pt x="792" y="649" on="0"/>
        <pt x="753" y="637" on="0"/>
        <pt x="706" y="613" on="0"/>
        <pt x="679" y="591" on="1"/>
        <pt x="470" y="420" on="1"/>
      </contour>
    </TTGlyph>
    <TTGlyph name="L" xMin="33" yMin="0" xMax="625" yMax="683">
      <contour>
        <pt x="554" y="0" on="1"/>
        <pt x="33" y="0" on="1"/>
        <pt x="35" y="8" on="0"/>
        <pt x="36" y="23" on="0"/>
        <pt x="38" y="31" on="1"/>
        <pt x="60" y="31" on="1"/>
        <pt x="90" y="31" on="0"/>
        <pt x="124" y="36" on="0"/>
        <pt x="141" y="46" on="0"/>
        <pt x="146" y="63" on="0"/>
        <pt x="148" y="75" on="1"/>
        <pt x="236" y="600" on="1"/>
        <pt x="237" y="606" on="0"/>
        <pt x="239" y="619" on="0"/>
        <pt x="239" y="624" on="1"/>
        <pt x="239" y="632" on="0"/>
        <pt x="234" y="643" on="0"/>
        <pt x="218" y="649" on="0"/>
        <pt x="188" y="652" on="0"/>
        <pt x="163" y="652" on="1"/>
        <pt x="142" y="652" on="1"/>
        <pt x="143" y="659" on="0"/>
        <pt x="146" y="677" on="0"/>
        <pt x="147" y="683" on="1"/>
        <pt x="161" y="682" on="0"/>
        <pt x="200" y="681" on="0"/>
        <pt x="243" y="680" on="0"/>
        <pt x="283" y="680" on="0"/>
        <pt x="298" y="680" on="1"/>
        <pt x="313" y="680" on="0"/>
        <pt x="360" y="680" on="0"/>
        <pt x="409" y="681" on="0"/>
        <pt x="454" y="682" on="0"/>
        <pt x="467" y="683" on="1"/>
        <pt x="462" y="652" on="1"/>
        <pt x="430" y="652" on="1"/>
        <pt x="394" y="652" on="0"/>
        <pt x="354" y="647" on="0"/>
        <pt x="335" y="636" on="0"/>
        <pt x="329" y="620" on="0"/>
        <pt x="327" y="608" on="1"/>
        <pt x="237" y="72" on="1"/>
        <pt x="235" y="61" on="0"/>
        <pt x="234" y="54" on="0"/>
        <pt x="234" y="52" on="1"/>
        <pt x="234" y="36" on="0"/>
        <pt x="260" y="31" on="0"/>
        <pt x="281" y="31" on="1"/>
        <pt x="360" y="31" on="1"/>
        <pt x="426" y="31" on="0"/>
        <pt x="509" y="72" on="0"/>
        <pt x="560" y="136" on="0"/>
        <pt x="588" y="218" on="0"/>
        <pt x="600" y="258" on="1"/>
        <pt x="625" y="258" on="1"/>
      </contour>
    </TTGlyph>
    <TTGlyph name="Lambda" xMin="32" yMin="0" xMax="666" yMax="716">
      <contour>
        <pt x="182" y="102" on="1"/>
        <pt x="180" y="97" on="0"/>
        <pt x="174" y="84" on="0"/>
        <pt x="174" y="77" on="1"/>
        <pt x="174" y="61" on="0"/>
        <pt x="194" y="42" on="0"/>
        <pt x="219" y="33" on="0"/>
        <pt x="241" y="30" on="0"/>
        <pt x="243" y="30" on="1"/>
        <pt x="237" y="0" on="1"/>
        <pt x="227" y="0" on="0"/>
        <pt x="195" y="1" on="0"/>
        <pt x="161" y="2" on="0"/>
        <pt x="132" y="3" on="0"/>
        <pt x="125" y="3" on="1"/>
        <pt x="122" y="3" on="0"/>
        <pt x="101" y="3" on="0"/>
        <pt x="74" y="2" on="0"/>
        <pt x="44" y="1" on="0"/>
        <pt x="32" y="0" on="1"/>
        <pt x="33" y="7" on="0"/>
        <pt x="36" y="25" on="0"/>
        <pt x="37" y="31" on="1"/>
        <pt x="66" y="31" on="0"/>
        <pt x="105" y="46" on="0"/>
        <pt x="130" y="67" on="0"/>
        <pt x="144" y="91" on="0"/>
        <pt x="148" y="100" on="1"/>
        <pt x="440" y="696" on="1"/>
        <pt x="445" y="707" on="0"/>
        <pt x="454" y="716" on="0"/>
        <pt x="465" y="716" on="1"/>
        <pt x="478" y="716" on="0"/>
        <pt x="484" y="707" on="0"/>
        <pt x="486" y="691" on="1"/>
        <pt x="582" y="73" on="1"/>
        <pt x="585" y="57" on="0"/>
        <pt x="594" y="40" on="0"/>
        <pt x="612" y="32" on="0"/>
        <pt x="642" y="31" on="0"/>
        <pt x="666" y="31" on="1"/>
        <pt x="661" y="0" on="1"/>
        <pt x="631" y="1" on="0"/>
        <pt x="567" y="3" on="0"/>
        <pt x="538" y="3" on="1"/>
        <pt x="524" y="3" on="0"/>
        <pt x="485" y="3" on="0"/>
        <pt x="445" y="2" on="0"/>
        <pt x="407" y="1" on="0"/>
        <pt x="394" y="0" on="1"/>
        <pt x="395" y="6" on="0"/>
        <pt x="398" y="24" on="0"/>
        <pt x="399" y="31" on="1"/>
        <pt x="408" y="31" on="0"/>
        <pt x="439" y="32" on="0"/>
        <pt x="468" y="38" on="0"/>
        <pt x="489" y="52" on="0"/>
        <pt x="489" y="64" on="1"/>
        <pt x="489" y="66" on="0"/>
        <pt x="488" y="77" on="0"/>
        <pt x="487" y="81" on="1"/>
        <pt x="411" y="571" on="1"/>
      </contour>
    </TTGlyph>
    <TTGlyph name="M" xMin="37" yMin="0" xMax="993" yMax="683">
      <contour>
        <pt x="475" y="101" on="1"/>
        <pt x="786" y="663" on="1"/>
        <pt x="794" y="678" on="0"/>
        <pt x="807" y="683" on="0"/>
        <pt x="825" y="683" on="1"/>
        <pt x="993" y="683" on="1"/>
        <pt x="988" y="652" on="1"/>
        <pt x="966" y="652" on="1"/>
        <pt x="936" y="652" on="0"/>
        <pt x="903" y="648" on="0"/>
        <pt x="886" y="637" on="0"/>
        <pt x="880" y="621" on="0"/>
        <pt x="878" y="609" on="1"/>
        <pt x="789" y="76" on="1"/>
        <pt x="788" y="70" on="0"/>
        <pt x="787" y="61" on="0"/>
        <pt x="787" y="59" on="1"/>
        <pt x="787" y="43" on="0"/>
        <pt x="816" y="31" on="0"/>
        <pt x="863" y="31" on="1"/>
        <pt x="884" y="31" on="1"/>
        <pt x="883" y="25" on="0"/>
        <pt x="880" y="7" on="0"/>
        <pt x="879" y="0" on="1"/>
        <pt x="865" y="1" on="0"/>
        <pt x="828" y="2" on="0"/>
        <pt x="789" y="3" on="0"/>
        <pt x="751" y="3" on="0"/>
        <pt x="736" y="3" on="1"/>
        <pt x="721" y="3" on="0"/>
        <pt x="683" y="3" on="0"/>
        <pt x="643" y="2" on="0"/>
        <pt x="606" y="1" on="0"/>
        <pt x="592" y="0" on="1"/>
        <pt x="597" y="31" on="1"/>
        <pt x="619" y="31" on="1"/>
        <pt x="649" y="31" on="0"/>
        <pt x="683" y="36" on="0"/>
        <pt x="700" y="46" on="0"/>
        <pt x="705" y="63" on="0"/>
        <pt x="707" y="75" on="1"/>
        <pt x="804" y="651" on="1"/>
        <pt x="803" y="651" on="1"/>
        <pt x="451" y="17" on="1"/>
        <pt x="447" y="11" on="0"/>
        <pt x="438" y="0" on="0"/>
        <pt x="430" y="0" on="1"/>
        <pt x="422" y="0" on="0"/>
        <pt x="416" y="13" on="0"/>
        <pt x="414" y="22" on="1"/>
        <pt x="277" y="643" on="1"/>
        <pt x="276" y="643" on="1"/>
        <pt x="186" y="108" on="1"/>
        <pt x="185" y="102" on="0"/>
        <pt x="183" y="89" on="0"/>
        <pt x="183" y="84" on="1"/>
        <pt x="183" y="64" on="0"/>
        <pt x="205" y="43" on="0"/>
        <pt x="236" y="33" on="0"/>
        <pt x="267" y="31" on="0"/>
        <pt x="276" y="31" on="1"/>
        <pt x="270" y="0" on="1"/>
        <pt x="258" y="0" on="0"/>
        <pt x="225" y="1" on="0"/>
        <pt x="192" y="2" on="0"/>
        <pt x="162" y="3" on="0"/>
        <pt x="154" y="3" on="1"/>
        <pt x="129" y="3" on="0"/>
        <pt x="63" y="1" on="0"/>
        <pt x="37" y="0" on="1"/>
        <pt x="39" y="8" on="0"/>
        <pt x="40" y="23" on="0"/>
        <pt x="42" y="31" on="1"/>
        <pt x="80" y="31" on="0"/>
        <pt x="124" y="46" on="0"/>
        <pt x="147" y="67" on="0"/>
        <pt x="155" y="91" on="0"/>
        <pt x="156" y="100" on="1"/>
        <pt x="240" y="600" on="1"/>
        <pt x="241" y="606" on="0"/>
        <pt x="243" y="619" on="0"/>
        <pt x="243" y="624" on="1"/>
        <pt x="243" y="632" on="0"/>
        <pt x="238" y="643" on="0"/>
        <pt x="222" y="649" on="0"/>
        <pt x="192" y="652" on="0"/>
        <pt x="167" y="652" on="1"/>
        <pt x="146" y="652" on="1"/>
        <pt x="147" y="659" on="0"/>
        <pt x="150" y="677" on="0"/>
        <pt x="151" y="683" on="1"/>
        <pt x="318" y="683" on="1"/>
        <pt x="338" y="683" on="0"/>
        <pt x="347" y="676" on="0"/>
        <pt x="351" y="659" on="1"/>
      </contour>
    </TTGlyph>
    <TTGlyph name="N" xMin="33" yMin="0" xMax="830" yMax="683">
      <contour>
        <pt x="610" y="150" on="1"/>
        <pt x="681" y="576" on="1"/>
        <pt x="683" y="588" on="0"/>
        <pt x="684" y="595" on="0"/>
        <pt x="684" y="599" on="1"/>
        <pt x="684" y="619" on="0"/>
        <pt x="661" y="640" on="0"/>
        <pt x="631" y="650" on="0"/>
        <pt x="600" y="652" on="0"/>
        <pt x="591" y="652" on="1"/>
        <pt x="597" y="683" on="1"/>
        <pt x="609" y="683" on="0"/>
        <pt x="641" y="682" on="0"/>
        <pt x="674" y="681" on="0"/>
        <pt x="704" y="680" on="0"/>
        <pt x="713" y="680" on="1"/>
        <pt x="738" y="680" on="0"/>
        <pt x="804" y="682" on="0"/>
        <pt x="830" y="683" on="1"/>
        <pt x="825" y="652" on="1"/>
        <pt x="786" y="652" on="0"/>
        <pt x="742" y="637" on="0"/>
        <pt x="719" y="615" on="0"/>
        <pt x="712" y="590" on="0"/>
        <pt x="710" y="580" on="1"/>
        <pt x="617" y="23" on="1"/>
        <pt x="615" y="9" on="0"/>
        <pt x="610" y="0" on="0"/>
        <pt x="601" y="0" on="1"/>
        <pt x="593" y="0" on="0"/>
        <pt x="588" y="5" on="0"/>
        <pt x="583" y="16" on="1"/>
        <pt x="282" y="603" on="1"/>
        <pt x="280" y="607" on="0"/>
        <pt x="273" y="620" on="0"/>
        <pt x="269" y="625" on="1"/>
        <pt x="182" y="108" on="1"/>
        <pt x="181" y="102" on="0"/>
        <pt x="179" y="89" on="0"/>
        <pt x="179" y="84" on="1"/>
        <pt x="179" y="64" on="0"/>
        <pt x="201" y="43" on="0"/>
        <pt x="232" y="33" on="0"/>
        <pt x="263" y="31" on="0"/>
        <pt x="272" y="31" on="1"/>
        <pt x="266" y="0" on="1"/>
        <pt x="254" y="0" on="0"/>
        <pt x="221" y="1" on="0"/>
        <pt x="188" y="2" on="0"/>
        <pt x="158" y="3" on="0"/>
        <pt x="150" y="3" on="1"/>
        <pt x="125" y="3" on="0"/>
        <pt x="59" y="1" on="0"/>
        <pt x="33" y="0" on="1"/>
        <pt x="35" y="8" on="0"/>
        <pt x="36" y="23" on="0"/>
        <pt x="38" y="31" on="1"/>
        <pt x="76" y="31" on="0"/>
        <pt x="120" y="46" on="0"/>
        <pt x="143" y="67" on="0"/>
        <pt x="151" y="91" on="0"/>
        <pt x="152" y="100" on="1"/>
        <pt x="243" y="645" on="1"/>
        <pt x="235" y="647" on="0"/>
        <pt x="204" y="652" on="0"/>
        <pt x="169" y="652" on="1"/>
        <pt x="142" y="652" on="1"/>
        <pt x="143" y="659" on="0"/>
        <pt x="146" y="677" on="0"/>
        <pt x="147" y="683" on="1"/>
        <pt x="313" y="683" on="1"/>
        <pt x="330" y="683" on="0"/>
        <pt x="339" y="678" on="0"/>
        <pt x="345" y="667" on="1"/>
      </contour>
    </TTGlyph>
    <TTGlyph name="O" xMin="107" yMin="-22" xMax="783" yMax="705">
      <contour>
        <pt x="783" y="405" on="1"/>
        <pt x="783" y="319" on="0"/>
        <pt x="715" y="164" on="0"/>
        <pt x="604" y="47" on="0"/>
        <pt x="461" y="-22" on="0"/>
        <pt x="385" y="-22" on="1"/>
        <pt x="325" y="-22" on="0"/>
        <pt x="223" y="22" on="0"/>
        <pt x="149" y="101" on="0"/>
        <pt x="107" y="210" on="0"/>
        <pt x="107" y="274" on="1"/>
        <pt x="107" y="358" on="0"/>
        <pt x="173" y="514" on="0"/>
        <pt x="284" y="633" on="0"/>
        <pt x="428" y="705" on="0"/>
        <pt x="506" y="705" on="1"/>
        <pt x="565" y="705" on="0"/>
        <pt x="666" y="662" on="0"/>
        <pt x="740" y="583" on="0"/>
        <pt x="783" y="472" on="0"/>
      </contour>
      <contour>
        <pt x="389" y="4" on="1"/>
        <pt x="441" y="4" on="0"/>
        <pt x="554" y="69" on="0"/>
        <pt x="602" y="142" on="1"/>
        <pt x="624" y="177" on="0"/>
        <pt x="656" y="257" on="0"/>
        <pt x="676" y="339" on="0"/>
        <pt x="685" y="416" on="0"/>
        <pt x="685" y="446" on="1"/>
        <pt x="685" y="511" on="0"/>
        <pt x="651" y="601" on="0"/>
        <pt x="597" y="656" on="0"/>
        <pt x="532" y="680" on="0"/>
        <pt x="501" y="680" on="1"/>
        <pt x="478" y="680" on="0"/>
        <pt x="424" y="666" on="0"/>
        <pt x="367" y="634" on="0"/>
        <pt x="311" y="581" on="0"/>
        <pt x="285" y="543" on="1"/>
        <pt x="259" y="503" on="0"/>
        <pt x="228" y="410" on="0"/>
        <pt x="212" y="326" on="0"/>
        <pt x="208" y="261" on="0"/>
        <pt x="208" y="248" on="1"/>
        <pt x="208" y="190" on="0"/>
        <pt x="236" y="99" on="0"/>
        <pt x="286" y="37" on="0"/>
        <pt x="352" y="4" on="0"/>
      </contour>
    </TTGlyph>
    <TTGlyph name="OE" xMin="121" yMin="-22" xMax="1043" yMax="705">
      <contour>
        <pt x="943" y="0" on="1"/>
        <pt x="558" y="0" on="1"/>
        <pt x="547" y="0" on="0"/>
        <pt x="515" y="-2" on="0"/>
        <pt x="482" y="-10" on="1"/>
        <pt x="451" y="-16" on="0"/>
        <pt x="416" y="-22" on="0"/>
        <pt x="396" y="-22" on="1"/>
        <pt x="341" y="-22" on="0"/>
        <pt x="241" y="20" on="0"/>
        <pt x="165" y="97" on="0"/>
        <pt x="121" y="207" on="0"/>
        <pt x="121" y="274" on="1"/>
        <pt x="121" y="331" on="0"/>
        <pt x="152" y="439" on="0"/>
        <pt x="207" y="535" on="0"/>
        <pt x="282" y="615" on="0"/>
        <pt x="370" y="673" on="0"/>
        <pt x="468" y="705" on="0"/>
        <pt x="518" y="705" on="1"/>
        <pt x="538" y="705" on="0"/>
        <pt x="573" y="698" on="0"/>
        <pt x="599" y="693" on="1"/>
        <pt x="630" y="685" on="0"/>
        <pt x="660" y="683" on="0"/>
        <pt x="672" y="683" on="1"/>
        <pt x="1043" y="683" on="1"/>
        <pt x="1033" y="458" on="1"/>
        <pt x="1008" y="458" on="1"/>
        <pt x="1010" y="506" on="1"/>
        <pt x="1010" y="545" on="0"/>
        <pt x="997" y="601" on="0"/>
        <pt x="963" y="636" on="0"/>
        <pt x="904" y="652" on="0"/>
        <pt x="857" y="652" on="1"/>
        <pt x="749" y="652" on="1"/>
        <pt x="730" y="652" on="0"/>
        <pt x="709" y="649" on="0"/>
        <pt x="699" y="640" on="0"/>
        <pt x="695" y="626" on="0"/>
        <pt x="693" y="615" on="1"/>
        <pt x="652" y="370" on="1"/>
        <pt x="757" y="370" on="1"/>
        <pt x="792" y="370" on="0"/>
        <pt x="839" y="379" on="0"/>
        <pt x="870" y="405" on="0"/>
        <pt x="888" y="451" on="0"/>
        <pt x="893" y="487" on="1"/>
        <pt x="918" y="487" on="1"/>
        <pt x="874" y="222" on="1"/>
        <pt x="849" y="222" on="1"/>
        <pt x="851" y="234" on="0"/>
        <pt x="855" y="259" on="0"/>
        <pt x="855" y="272" on="1"/>
        <pt x="855" y="314" on="0"/>
        <pt x="805" y="339" on="0"/>
        <pt x="752" y="339" on="1"/>
        <pt x="647" y="339" on="1"/>
        <pt x="602" y="72" on="1"/>
        <pt x="600" y="61" on="0"/>
        <pt x="599" y="54" on="0"/>
        <pt x="599" y="52" on="1"/>
        <pt x="599" y="36" on="0"/>
        <pt x="625" y="31" on="0"/>
        <pt x="646" y="31" on="1"/>
        <pt x="753" y="31" on="1"/>
        <pt x="815" y="31" on="0"/>
        <pt x="894" y="57" on="0"/>
        <pt x="947" y="113" on="0"/>
        <pt x="984" y="198" on="0"/>
        <pt x="1003" y="258" on="1"/>
        <pt x="1028" y="258" on="1"/>
      </contour>
      <contour>
        <pt x="596" y="493" on="1"/>
        <pt x="601" y="519" on="0"/>
        <pt x="606" y="570" on="0"/>
        <pt x="606" y="596" on="1"/>
        <pt x="606" y="611" on="0"/>
        <pt x="602" y="642" on="0"/>
        <pt x="585" y="667" on="0"/>
        <pt x="549" y="683" on="0"/>
        <pt x="517" y="683" on="1"/>
        <pt x="463" y="683" on="0"/>
        <pt x="357" y="618" on="0"/>
        <pt x="273" y="504" on="0"/>
        <pt x="221" y="352" on="0"/>
        <pt x="221" y="265" on="1"/>
        <pt x="221" y="216" on="0"/>
        <pt x="244" y="120" on="0"/>
        <pt x="290" y="46" on="0"/>
        <pt x="358" y="0" on="0"/>
        <pt x="404" y="0" on="1"/>
        <pt x="438" y="0" on="0"/>
        <pt x="484" y="19" on="0"/>
        <pt x="515" y="62" on="0"/>
        <pt x="535" y="134" on="0"/>
        <pt x="544" y="186" on="1"/>
      </contour>
    </TTGlyph>
    <TTGlyph name="Oslash" xMin="106" yMin="-56" xMax="785" yMax="739">
      <contour>
        <pt x="701" y="624" on="1"/>
        <pt x="705" y="620" on="0"/>
        <pt x="731" y="589" on="0"/>
        <pt x="760" y="535" on="0"/>
        <pt x="783" y="456" on="0"/>
        <pt x="783" y="405" on="1"/>
        <pt x="783" y="319" on="0"/>
        <pt x="715" y="164" on="0"/>
        <pt x="604" y="47" on="0"/>
        <pt x="461" y="-22" on="0"/>
        <pt x="385" y="-22" on="1"/>
        <pt x="322" y="-22" on="0"/>
        <pt x="235" y="19" on="0"/>
        <pt x="206" y="42" on="1"/>
        <pt x="123" y="-56" on="1"/>
        <pt x="106" y="-42" on="1"/>
        <pt x="190" y="58" on="1"/>
        <pt x="150" y="97" on="0"/>
        <pt x="107" y="209" on="0"/>
        <pt x="107" y="274" on="1"/>
        <pt x="107" y="358" on="0"/>
        <pt x="173" y="514" on="0"/>
        <pt x="284" y="633" on="0"/>
        <pt x="428" y="705" on="0"/>
        <pt x="506" y="705" on="1"/>
        <pt x="514" y="705" on="0"/>
        <pt x="549" y="703" on="0"/>
        <pt x="598" y="691" on="0"/>
        <pt x="655" y="665" on="0"/>
        <pt x="685" y="641" on="1"/>
        <pt x="768" y="739" on="1"/>
        <pt x="785" y="725" on="1"/>
      </contour>
      <contour>
        <pt x="655" y="607" on="1"/>
        <pt x="648" y="618" on="0"/>
        <pt x="621" y="644" on="0"/>
        <pt x="584" y="667" on="0"/>
        <pt x="534" y="683" on="0"/>
        <pt x="502" y="683" on="1"/>
        <pt x="446" y="683" on="0"/>
        <pt x="328" y="622" on="0"/>
        <pt x="281" y="557" on="1"/>
        <pt x="248" y="510" on="0"/>
        <pt x="211" y="398" on="0"/>
        <pt x="194" y="300" on="0"/>
        <pt x="191" y="234" on="0"/>
        <pt x="191" y="233" on="1"/>
        <pt x="191" y="227" on="0"/>
        <pt x="192" y="199" on="0"/>
        <pt x="198" y="161" on="0"/>
        <pt x="210" y="117" on="0"/>
        <pt x="222" y="96" on="1"/>
      </contour>
      <contour>
        <pt x="235" y="75" on="1"/>
        <pt x="270" y="31" on="0"/>
        <pt x="352" y="0" on="0"/>
        <pt x="389" y="0" on="1"/>
        <pt x="446" y="0" on="0"/>
        <pt x="566" y="63" on="0"/>
        <pt x="611" y="126" on="1"/>
        <pt x="644" y="172" on="0"/>
        <pt x="679" y="283" on="0"/>
        <pt x="696" y="379" on="0"/>
        <pt x="699" y="446" on="0"/>
        <pt x="699" y="447" on="1"/>
        <pt x="699" y="452" on="0"/>
        <pt x="698" y="482" on="0"/>
        <pt x="692" y="521" on="0"/>
        <pt x="680" y="565" on="0"/>
        <pt x="668" y="586" on="1"/>
      </contour>
    </TTGlyph>
    <TTGlyph name="P" xMin="35" yMin="0" xMax="709" yMax="683">
      <contour>
        <pt x="240" y="76" on="1"/>
        <pt x="239" y="70" on="0"/>
        <pt x="238" y="61" on="0"/>
        <pt x="238" y="59" on="1"/>
        <pt x="238" y="43" on="0"/>
        <pt x="267" y="31" on="0"/>
        <pt x="314" y="31" on="1"/>
        <pt x="335" y="31" on="1"/>
        <pt x="334" y="25" on="0"/>
        <pt x="331" y="7" on="0"/>
        <pt x="330" y="0" on="1"/>
        <pt x="317" y="1" on="0"/>
        <pt x="278" y="2" on="0"/>
        <pt x="237" y="3" on="0"/>
        <pt x="198" y="3" on="0"/>
        <pt x="183" y="3" on="1"/>
        <pt x="169" y="3" on="0"/>
        <pt x="129" y="3" on="0"/>
        <pt x="87" y="2" on="0"/>
        <pt x="48" y="1" on="0"/>
        <pt x="35" y="0" on="1"/>
        <pt x="40" y="31" on="1"/>
        <pt x="62" y="31" on="1"/>
        <pt x="92" y="31" on="0"/>
        <pt x="126" y="36" on="0"/>
        <pt x="143" y="46" on="0"/>
        <pt x="148" y="63" on="0"/>
        <pt x="150" y="75" on="1"/>
        <pt x="238" y="600" on="1"/>
        <pt x="239" y="606" on="0"/>
        <pt x="241" y="619" on="0"/>
        <pt x="241" y="624" on="1"/>
        <pt x="241" y="632" on="0"/>
        <pt x="236" y="643" on="0"/>
        <pt x="220" y="649" on="0"/>
        <pt x="190" y="652" on="0"/>
        <pt x="165" y="652" on="1"/>
        <pt x="144" y="652" on="1"/>
        <pt x="145" y="659" on="0"/>
        <pt x="148" y="677" on="0"/>
        <pt x="149" y="683" on="1"/>
        <pt x="500" y="683" on="1"/>
        <pt x="551" y="683" on="0"/>
        <pt x="629" y="655" on="0"/>
        <pt x="682" y="610" on="0"/>
        <pt x="709" y="552" on="0"/>
        <pt x="709" y="521" on="1"/>
        <pt x="709" y="480" on="0"/>
        <pt x="665" y="405" on="0"/>
        <pt x="592" y="349" on="0"/>
        <pt x="497" y="316" on="0"/>
        <pt x="447" y="316" on="1"/>
        <pt x="280" y="316" on="1"/>
      </contour>
      <contour>
        <pt x="281" y="342" on="1"/>
        <pt x="417" y="342" on="1"/>
        <pt x="486" y="342" on="0"/>
        <pt x="580" y="397" on="0"/>
        <pt x="596" y="460" on="1"/>
        <pt x="604" y="489" on="0"/>
        <pt x="609" y="536" on="0"/>
        <pt x="609" y="547" on="1"/>
        <pt x="609" y="576" on="0"/>
        <pt x="588" y="616" on="0"/>
        <pt x="550" y="641" on="0"/>
        <pt x="499" y="652" on="0"/>
        <pt x="469" y="652" on="1"/>
        <pt x="383" y="652" on="1"/>
        <pt x="364" y="652" on="0"/>
        <pt x="343" y="649" on="0"/>
        <pt x="333" y="640" on="0"/>
        <pt x="329" y="626" on="0"/>
        <pt x="327" y="615" on="1"/>
      </contour>
    </TTGlyph>
    <TTGlyph name="Phi" xMin="111" yMin="0" xMax="724" yMax="683">
      <contour>
        <pt x="636" y="652" on="1"/>
        <pt x="604" y="652" on="1"/>
        <pt x="568" y="652" on="0"/>
        <pt x="528" y="647" on="0"/>
        <pt x="508" y="635" on="0"/>
        <pt x="502" y="613" on="0"/>
        <pt x="499" y="595" on="1"/>
        <pt x="496" y="582" on="0"/>
        <pt x="494" y="568" on="0"/>
        <pt x="491" y="548" on="1"/>
        <pt x="543" y="544" on="0"/>
        <pt x="629" y="512" on="0"/>
        <pt x="690" y="462" on="0"/>
        <pt x="724" y="400" on="0"/>
        <pt x="724" y="365" on="1"/>
        <pt x="724" y="325" on="0"/>
        <pt x="679" y="248" on="0"/>
        <pt x="599" y="184" on="0"/>
        <pt x="488" y="141" on="0"/>
        <pt x="422" y="135" on="1"/>
        <pt x="415" y="92" on="0"/>
        <pt x="410" y="65" on="0"/>
        <pt x="410" y="61" on="1"/>
        <pt x="410" y="53" on="0"/>
        <pt x="416" y="41" on="0"/>
        <pt x="436" y="34" on="0"/>
        <pt x="471" y="31" on="0"/>
        <pt x="501" y="31" on="1"/>
        <pt x="533" y="31" on="1"/>
        <pt x="528" y="0" on="1"/>
        <pt x="514" y="1" on="0"/>
        <pt x="469" y="2" on="0"/>
        <pt x="420" y="3" on="0"/>
        <pt x="374" y="3" on="0"/>
        <pt x="358" y="3" on="1"/>
        <pt x="343" y="3" on="0"/>
        <pt x="296" y="3" on="0"/>
        <pt x="246" y="2" on="0"/>
        <pt x="202" y="1" on="0"/>
        <pt x="188" y="0" on="1"/>
        <pt x="193" y="31" on="1"/>
        <pt x="224" y="31" on="1"/>
        <pt x="260" y="31" on="0"/>
        <pt x="300" y="36" on="0"/>
        <pt x="320" y="48" on="0"/>
        <pt x="327" y="70" on="0"/>
        <pt x="330" y="87" on="1"/>
        <pt x="333" y="104" on="0"/>
        <pt x="336" y="118" on="0"/>
        <pt x="338" y="135" on="1"/>
        <pt x="286" y="140" on="0"/>
        <pt x="202" y="173" on="0"/>
        <pt x="143" y="223" on="0"/>
        <pt x="111" y="284" on="0"/>
        <pt x="111" y="318" on="1"/>
        <pt x="111" y="357" on="0"/>
        <pt x="154" y="434" on="0"/>
        <pt x="232" y="497" on="0"/>
        <pt x="341" y="541" on="0"/>
        <pt x="407" y="548" on="1"/>
        <pt x="412" y="574" on="0"/>
        <pt x="416" y="603" on="0"/>
        <pt x="419" y="618" on="0"/>
        <pt x="419" y="621" on="0"/>
        <pt x="419" y="622" on="1"/>
        <pt x="419" y="630" on="0"/>
        <pt x="413" y="642" on="0"/>
        <pt x="393" y="649" on="0"/>
        <pt x="357" y="652" on="0"/>
        <pt x="328" y="652" on="1"/>
        <pt x="296" y="652" on="1"/>
        <pt x="298" y="660" on="0"/>
        <pt x="299" y="675" on="0"/>
        <pt x="301" y="683" on="1"/>
        <pt x="315" y="682" on="0"/>
        <pt x="359" y="681" on="0"/>
        <pt x="409" y="680" on="0"/>
        <pt x="456" y="680" on="0"/>
        <pt x="471" y="680" on="1"/>
        <pt x="486" y="680" on="0"/>
        <pt x="533" y="680" on="0"/>
        <pt x="583" y="681" on="0"/>
        <pt x="628" y="682" on="0"/>
        <pt x="641" y="683" on="1"/>
      </contour>
      <contour>
        <pt x="403" y="525" on="1"/>
        <pt x="309" y="511" on="0"/>
        <pt x="209" y="393" on="0"/>
        <pt x="209" y="297" on="1"/>
        <pt x="209" y="272" on="0"/>
        <pt x="222" y="226" on="0"/>
        <pt x="254" y="190" on="0"/>
        <pt x="305" y="164" on="0"/>
        <pt x="342" y="158" on="1"/>
      </contour>
      <contour>
        <pt x="426" y="157" on="1"/>
        <pt x="466" y="162" on="0"/>
        <pt x="543" y="195" on="0"/>
        <pt x="573" y="227" on="1"/>
        <pt x="587" y="242" on="0"/>
        <pt x="606" y="281" on="0"/>
        <pt x="620" y="325" on="0"/>
        <pt x="626" y="368" on="0"/>
        <pt x="626" y="386" on="1"/>
        <pt x="626" y="450" on="0"/>
        <pt x="552" y="518" on="0"/>
        <pt x="487" y="526" on="1"/>
      </contour>
    </TTGlyph>
    <TTGlyph name="Pi" xMin="33" yMin="0" xMax="829" yMax="680">
      <contour>
        <pt x="626" y="76" on="1"/>
        <pt x="625" y="70" on="0"/>
        <pt x="624" y="61" on="0"/>
        <pt x="624" y="59" on="1"/>
        <pt x="624" y="43" on="0"/>
        <pt x="653" y="31" on="0"/>
        <pt x="700" y="31" on="1"/>
        <pt x="721" y="31" on="1"/>
        <pt x="720" y="25" on="0"/>
        <pt x="717" y="7" on="0"/>
        <pt x="716" y="0" on="1"/>
        <pt x="703" y="1" on="0"/>
        <pt x="664" y="2" on="0"/>
        <pt x="623" y="3" on="0"/>
        <pt x="584" y="3" on="0"/>
        <pt x="569" y="3" on="1"/>
        <pt x="555" y="3" on="0"/>
        <pt x="515" y="3" on="0"/>
        <pt x="473" y="2" on="0"/>
        <pt x="434" y="1" on="0"/>
        <pt x="421" y="0" on="1"/>
        <pt x="426" y="31" on="1"/>
        <pt x="448" y="31" on="1"/>
        <pt x="478" y="31" on="0"/>
        <pt x="512" y="36" on="0"/>
        <pt x="529" y="46" on="0"/>
        <pt x="534" y="63" on="0"/>
        <pt x="536" y="75" on="1"/>
        <pt x="632" y="649" on="1"/>
        <pt x="333" y="649" on="1"/>
        <pt x="238" y="76" on="1"/>
        <pt x="237" y="70" on="0"/>
        <pt x="236" y="61" on="0"/>
        <pt x="236" y="59" on="1"/>
        <pt x="236" y="43" on="0"/>
        <pt x="265" y="31" on="0"/>
        <pt x="312" y="31" on="1"/>
        <pt x="333" y="31" on="1"/>
        <pt x="332" y="25" on="0"/>
        <pt x="329" y="7" on="0"/>
        <pt x="328" y="0" on="1"/>
        <pt x="315" y="1" on="0"/>
        <pt x="276" y="2" on="0"/>
        <pt x="235" y="3" on="0"/>
        <pt x="196" y="3" on="0"/>
        <pt x="181" y="3" on="1"/>
        <pt x="167" y="3" on="0"/>
        <pt x="127" y="3" on="0"/>
        <pt x="85" y="2" on="0"/>
        <pt x="46" y="1" on="0"/>
        <pt x="33" y="0" on="1"/>
        <pt x="38" y="31" on="1"/>
        <pt x="60" y="31" on="1"/>
        <pt x="90" y="31" on="0"/>
        <pt x="124" y="36" on="0"/>
        <pt x="141" y="46" on="0"/>
        <pt x="146" y="63" on="0"/>
        <pt x="148" y="75" on="1"/>
        <pt x="237" y="607" on="1"/>
        <pt x="239" y="614" on="0"/>
        <pt x="239" y="619" on="0"/>
        <pt x="239" y="621" on="1"/>
        <pt x="239" y="637" on="0"/>
        <pt x="211" y="649" on="0"/>
        <pt x="163" y="649" on="1"/>
        <pt x="141" y="649" on="1"/>
        <pt x="146" y="680" on="1"/>
        <pt x="829" y="680" on="1"/>
        <pt x="828" y="673" on="0"/>
        <pt x="825" y="655" on="0"/>
        <pt x="824" y="649" on="1"/>
        <pt x="802" y="649" on="1"/>
        <pt x="773" y="649" on="0"/>
        <pt x="740" y="645" on="0"/>
        <pt x="722" y="634" on="0"/>
        <pt x="716" y="617" on="0"/>
        <pt x="714" y="604" on="1"/>
      </contour>
    </TTGlyph>
    <TTGlyph name="Psi" xMin="147" yMin="0" xMax="811" yMax="683">
      <contour>
        <pt x="454" y="160" on="1"/>
        <pt x="508" y="174" on="0"/>
        <pt x="576" y="239" on="0"/>
        <pt x="615" y="316" on="0"/>
        <pt x="634" y="392" on="0"/>
        <pt x="638" y="416" on="1"/>
        <pt x="647" y="468" on="0"/>
        <pt x="677" y="524" on="0"/>
        <pt x="709" y="550" on="0"/>
        <pt x="740" y="554" on="0"/>
        <pt x="751" y="554" on="1"/>
        <pt x="784" y="554" on="1"/>
        <pt x="798" y="554" on="0"/>
        <pt x="811" y="551" on="0"/>
        <pt x="811" y="543" on="1"/>
        <pt x="811" y="536" on="0"/>
        <pt x="802" y="533" on="0"/>
        <pt x="798" y="532" on="1"/>
        <pt x="780" y="529" on="0"/>
        <pt x="754" y="508" on="0"/>
        <pt x="737" y="475" on="0"/>
        <pt x="725" y="432" on="0"/>
        <pt x="720" y="406" on="1"/>
        <pt x="698" y="292" on="0"/>
        <pt x="573" y="153" on="0"/>
        <pt x="455" y="136" on="1"/>
        <pt x="449" y="135" on="0"/>
        <pt x="448" y="125" on="1"/>
        <pt x="447" y="119" on="0"/>
        <pt x="443" y="98" on="0"/>
        <pt x="440" y="79" on="0"/>
        <pt x="438" y="63" on="0"/>
        <pt x="438" y="61" on="1"/>
        <pt x="438" y="53" on="0"/>
        <pt x="444" y="41" on="0"/>
        <pt x="464" y="34" on="0"/>
        <pt x="499" y="31" on="0"/>
        <pt x="529" y="31" on="1"/>
        <pt x="561" y="31" on="1"/>
        <pt x="556" y="0" on="1"/>
        <pt x="542" y="1" on="0"/>
        <pt x="497" y="2" on="0"/>
        <pt x="448" y="3" on="0"/>
        <pt x="402" y="3" on="0"/>
        <pt x="386" y="3" on="1"/>
        <pt x="371" y="3" on="0"/>
        <pt x="324" y="3" on="0"/>
        <pt x="274" y="2" on="0"/>
        <pt x="230" y="1" on="0"/>
        <pt x="216" y="0" on="1"/>
        <pt x="221" y="31" on="1"/>
        <pt x="252" y="31" on="1"/>
        <pt x="288" y="31" on="0"/>
        <pt x="328" y="35" on="0"/>
        <pt x="348" y="48" on="0"/>
        <pt x="355" y="71" on="0"/>
        <pt x="358" y="89" on="1"/>
        <pt x="360" y="96" on="0"/>
        <pt x="361" y="105" on="0"/>
        <pt x="363" y="114" on="0"/>
        <pt x="365" y="126" on="0"/>
        <pt x="366" y="136" on="1"/>
        <pt x="285" y="147" on="0"/>
        <pt x="188" y="247" on="0"/>
        <pt x="188" y="345" on="1"/>
        <pt x="188" y="362" on="0"/>
        <pt x="190" y="389" on="0"/>
        <pt x="194" y="417" on="1"/>
        <pt x="195" y="423" on="0"/>
        <pt x="198" y="448" on="0"/>
        <pt x="198" y="463" on="1"/>
        <pt x="198" y="505" on="0"/>
        <pt x="176" y="530" on="0"/>
        <pt x="162" y="532" on="1"/>
        <pt x="157" y="533" on="0"/>
        <pt x="147" y="536" on="0"/>
        <pt x="147" y="543" on="1"/>
        <pt x="147" y="551" on="0"/>
        <pt x="160" y="554" on="0"/>
        <pt x="174" y="554" on="1"/>
        <pt x="207" y="554" on="1"/>
        <pt x="218" y="554" on="0"/>
        <pt x="243" y="551" on="0"/>
        <pt x="266" y="534" on="0"/>
        <pt x="281" y="497" on="0"/>
        <pt x="281" y="463" on="1"/>
        <pt x="281" y="452" on="0"/>
        <pt x="280" y="430" on="0"/>
        <pt x="276" y="408" on="1"/>
        <pt x="273" y="388" on="0"/>
        <pt x="268" y="346" on="0"/>
        <pt x="268" y="326" on="1"/>
        <pt x="268" y="303" on="0"/>
        <pt x="276" y="252" on="0"/>
        <pt x="298" y="206" on="0"/>
        <pt x="338" y="169" on="0"/>
        <pt x="370" y="160" on="1"/>
        <pt x="444" y="600" on="1"/>
        <pt x="446" y="612" on="0"/>
        <pt x="447" y="619" on="0"/>
        <pt x="447" y="622" on="1"/>
        <pt x="447" y="630" on="0"/>
        <pt x="441" y="642" on="0"/>
        <pt x="421" y="649" on="0"/>
        <pt x="385" y="652" on="0"/>
        <pt x="356" y="652" on="1"/>
        <pt x="324" y="652" on="1"/>
        <pt x="326" y="660" on="0"/>
        <pt x="327" y="675" on="0"/>
        <pt x="329" y="683" on="1"/>
        <pt x="343" y="682" on="0"/>
        <pt x="387" y="681" on="0"/>
        <pt x="437" y="680" on="0"/>
        <pt x="484" y="680" on="0"/>
        <pt x="499" y="680" on="1"/>
        <pt x="514" y="680" on="0"/>
        <pt x="561" y="680" on="0"/>
        <pt x="611" y="681" on="0"/>
        <pt x="656" y="682" on="0"/>
        <pt x="669" y="683" on="1"/>
        <pt x="664" y="652" on="1"/>
        <pt x="632" y="652" on="1"/>
        <pt x="596" y="652" on="0"/>
        <pt x="556" y="647" on="0"/>
        <pt x="537" y="636" on="0"/>
        <pt x="531" y="620" on="0"/>
        <pt x="529" y="608" on="1"/>
      </contour>
    </TTGlyph>
    <TTGlyph name="Q" xMin="107" yMin="-194" xMax="783" yMax="705">
      <contour>
        <pt x="483" y="-7" on="1"/>
        <pt x="469" y="-12" on="0"/>
        <pt x="415" y="-22" on="0"/>
        <pt x="385" y="-22" on="1"/>
        <pt x="325" y="-22" on="0"/>
        <pt x="223" y="22" on="0"/>
        <pt x="149" y="101" on="0"/>
        <pt x="107" y="210" on="0"/>
        <pt x="107" y="274" on="1"/>
        <pt x="107" y="358" on="0"/>
        <pt x="173" y="514" on="0"/>
        <pt x="284" y="633" on="0"/>
        <pt x="428" y="705" on="0"/>
        <pt x="506" y="705" on="1"/>
        <pt x="565" y="705" on="0"/>
        <pt x="666" y="662" on="0"/>
        <pt x="740" y="583" on="0"/>
        <pt x="783" y="472" on="0"/>
        <pt x="783" y="405" on="1"/>
        <pt x="783" y="343" on="0"/>
        <pt x="745" y="222" on="0"/>
        <pt x="676" y="117" on="0"/>
        <pt x="578" y="32" on="0"/>
        <pt x="518" y="6" on="1"/>
        <pt x="531" y="-50" on="0"/>
        <pt x="567" y="-91" on="0"/>
        <pt x="597" y="-91" on="1"/>
        <pt x="616" y="-91" on="0"/>
        <pt x="651" y="-77" on="0"/>
        <pt x="679" y="-55" on="0"/>
        <pt x="699" y="-25" on="0"/>
        <pt x="703" y="-9" on="1"/>
        <pt x="706" y="2" on="0"/>
        <pt x="710" y="11" on="0"/>
        <pt x="716" y="11" on="1"/>
        <pt x="727" y="11" on="0"/>
        <pt x="727" y="-2" on="1"/>
        <pt x="727" y="-5" on="0"/>
        <pt x="721" y="-35" on="0"/>
        <pt x="707" y="-78" on="0"/>
        <pt x="685" y="-126" on="0"/>
        <pt x="651" y="-167" on="0"/>
        <pt x="606" y="-194" on="0"/>
        <pt x="576" y="-194" on="1"/>
        <pt x="545" y="-194" on="0"/>
        <pt x="509" y="-169" on="0"/>
        <pt x="489" y="-129" on="0"/>
        <pt x="483" y="-79" on="0"/>
        <pt x="483" y="-53" on="1"/>
      </contour>
      <contour>
        <pt x="326" y="15" on="1"/>
        <pt x="321" y="23" on="0"/>
        <pt x="318" y="41" on="0"/>
        <pt x="318" y="51" on="1"/>
        <pt x="318" y="71" on="0"/>
        <pt x="334" y="107" on="0"/>
        <pt x="360" y="133" on="0"/>
        <pt x="394" y="148" on="0"/>
        <pt x="412" y="148" on="1"/>
        <pt x="456" y="148" on="0"/>
        <pt x="499" y="89" on="0"/>
        <pt x="510" y="42" on="1"/>
        <pt x="567" y="79" on="0"/>
        <pt x="636" y="187" on="0"/>
        <pt x="673" y="301" on="0"/>
        <pt x="686" y="404" on="0"/>
        <pt x="686" y="437" on="1"/>
        <pt x="686" y="505" on="0"/>
        <pt x="651" y="598" on="0"/>
        <pt x="597" y="655" on="0"/>
        <pt x="532" y="680" on="0"/>
        <pt x="502" y="680" on="1"/>
        <pt x="469" y="680" on="0"/>
        <pt x="408" y="658" on="0"/>
        <pt x="352" y="621" on="0"/>
        <pt x="306" y="572" on="0"/>
        <pt x="288" y="545" on="1"/>
        <pt x="260" y="503" on="0"/>
        <pt x="227" y="412" on="0"/>
        <pt x="209" y="329" on="0"/>
        <pt x="204" y="262" on="0"/>
        <pt x="204" y="243" on="1"/>
        <pt x="204" y="194" on="0"/>
        <pt x="223" y="119" on="0"/>
        <pt x="256" y="63" on="0"/>
        <pt x="301" y="26" on="0"/>
      </contour>
      <contour>
        <pt x="482" y="26" on="1"/>
        <pt x="481" y="46" on="0"/>
        <pt x="475" y="83" on="0"/>
        <pt x="460" y="110" on="0"/>
        <pt x="434" y="126" on="0"/>
        <pt x="413" y="126" on="1"/>
        <pt x="398" y="126" on="0"/>
        <pt x="371" y="114" on="0"/>
        <pt x="352" y="93" on="0"/>
        <pt x="340" y="66" on="0"/>
        <pt x="340" y="51" on="1"/>
        <pt x="340" y="25" on="0"/>
        <pt x="367" y="3" on="0"/>
        <pt x="389" y="3" on="1"/>
        <pt x="415" y="3" on="0"/>
        <pt x="460" y="15" on="0"/>
      </contour>
    </TTGlyph>
    <TTGlyph name="R" xMin="35" yMin="-22" xMax="747" yMax="683">
      <contour>
        <pt x="491" y="340" on="1"/>
        <pt x="509" y="334" on="0"/>
        <pt x="555" y="306" on="0"/>
        <pt x="569" y="287" on="1"/>
        <pt x="588" y="261" on="0"/>
        <pt x="594" y="218" on="0"/>
        <pt x="594" y="188" on="1"/>
        <pt x="594" y="170" on="0"/>
        <pt x="593" y="135" on="0"/>
        <pt x="593" y="117" on="1"/>
        <pt x="593" y="60" on="0"/>
        <pt x="607" y="0" on="0"/>
        <pt x="640" y="0" on="1"/>
        <pt x="666" y="0" on="0"/>
        <pt x="711" y="47" on="0"/>
        <pt x="721" y="86" on="1"/>
        <pt x="723" y="95" on="0"/>
        <pt x="727" y="105" on="0"/>
        <pt x="735" y="105" on="1"/>
        <pt x="741" y="105" on="0"/>
        <pt x="747" y="97" on="0"/>
        <pt x="747" y="93" on="1"/>
        <pt x="747" y="88" on="0"/>
        <pt x="736" y="51" on="0"/>
        <pt x="711" y="10" on="0"/>
        <pt x="668" y="-22" on="0"/>
        <pt x="635" y="-22" on="1"/>
        <pt x="609" y="-22" on="0"/>
        <pt x="556" y="-9" on="0"/>
        <pt x="514" y="19" on="0"/>
        <pt x="488" y="64" on="0"/>
        <pt x="488" y="96" on="1"/>
        <pt x="488" y="108" on="0"/>
        <pt x="492" y="130" on="0"/>
        <pt x="496" y="158" on="1"/>
        <pt x="500" y="182" on="0"/>
        <pt x="505" y="209" on="0"/>
        <pt x="507" y="224" on="0"/>
        <pt x="507" y="229" on="0"/>
        <pt x="507" y="231" on="1"/>
        <pt x="507" y="234" on="0"/>
        <pt x="503" y="266" on="0"/>
        <pt x="482" y="302" on="0"/>
        <pt x="436" y="331" on="0"/>
        <pt x="394" y="331" on="1"/>
        <pt x="279" y="331" on="1"/>
        <pt x="237" y="76" on="1"/>
        <pt x="236" y="70" on="0"/>
        <pt x="235" y="61" on="0"/>
        <pt x="235" y="59" on="1"/>
        <pt x="235" y="43" on="0"/>
        <pt x="264" y="31" on="0"/>
        <pt x="311" y="31" on="1"/>
        <pt x="332" y="31" on="1"/>
        <pt x="327" y="0" on="1"/>
        <pt x="314" y="1" on="0"/>
        <pt x="275" y="2" on="0"/>
        <pt x="235" y="3" on="0"/>
        <pt x="196" y="3" on="0"/>
        <pt x="181" y="3" on="1"/>
        <pt x="166" y="3" on="0"/>
        <pt x="127" y="3" on="0"/>
        <pt x="87" y="2" on="0"/>
        <pt x="49" y="1" on="0"/>
        <pt x="35" y="0" on="1"/>
        <pt x="40" y="31" on="1"/>
        <pt x="62" y="31" on="1"/>
        <pt x="92" y="31" on="0"/>
        <pt x="126" y="36" on="0"/>
        <pt x="143" y="46" on="0"/>
        <pt x="148" y="63" on="0"/>
        <pt x="150" y="75" on="1"/>
        <pt x="238" y="600" on="1"/>
        <pt x="239" y="606" on="0"/>
        <pt x="241" y="619" on="0"/>
        <pt x="241" y="624" on="1"/>
        <pt x="241" y="632" on="0"/>
        <pt x="236" y="643" on="0"/>
        <pt x="220" y="649" on="0"/>
        <pt x="190" y="652" on="0"/>
        <pt x="165" y="652" on="1"/>
        <pt x="144" y="652" on="1"/>
        <pt x="149" y="683" on="1"/>
        <pt x="461" y="683" on="1"/>
        <pt x="512" y="683" on="0"/>
        <pt x="598" y="658" on="0"/>
        <pt x="660" y="615" on="0"/>
        <pt x="695" y="557" on="0"/>
        <pt x="695" y="523" on="1"/>
        <pt x="695" y="487" on="0"/>
        <pt x="659" y="427" on="0"/>
        <pt x="601" y="381" on="0"/>
        <pt x="528" y="348" on="0"/>
      </contour>
      <contour>
        <pt x="392" y="353" on="1"/>
        <pt x="437" y="353" on="0"/>
        <pt x="512" y="375" on="0"/>
        <pt x="565" y="420" on="0"/>
        <pt x="594" y="492" on="0"/>
        <pt x="594" y="541" on="1"/>
        <pt x="594" y="583" on="0"/>
        <pt x="558" y="628" on="0"/>
        <pt x="504" y="649" on="0"/>
        <pt x="441" y="652" on="0"/>
        <pt x="413" y="652" on="1"/>
        <pt x="398" y="652" on="0"/>
        <pt x="359" y="652" on="0"/>
        <pt x="352" y="650" on="1"/>
        <pt x="337" y="647" on="0"/>
        <pt x="330" y="631" on="0"/>
        <pt x="327" y="615" on="1"/>
        <pt x="283" y="353" on="1"/>
      </contour>
    </TTGlyph>
    <TTGlyph name="S" xMin="54" yMin="-22" xMax="588" yMax="705">
      <contour>
        <pt x="548" y="459" on="1"/>
        <pt x="544" y="456" on="0"/>
        <pt x="537" y="456" on="1"/>
        <pt x="528" y="456" on="0"/>
        <pt x="525" y="466" on="0"/>
        <pt x="525" y="474" on="1"/>
        <pt x="525" y="480" on="0"/>
        <pt x="525" y="483" on="0"/>
        <pt x="526" y="485" on="0"/>
        <pt x="526" y="489" on="0"/>
        <pt x="526" y="495" on="1"/>
        <pt x="526" y="535" on="0"/>
        <pt x="507" y="602" on="0"/>
        <pt x="468" y="650" on="0"/>
        <pt x="408" y="677" on="0"/>
        <pt x="366" y="677" on="1"/>
        <pt x="333" y="677" on="0"/>
        <pt x="276" y="651" on="0"/>
        <pt x="234" y="607" on="0"/>
        <pt x="209" y="552" on="0"/>
        <pt x="209" y="523" on="1"/>
        <pt x="209" y="485" on="0"/>
        <pt x="248" y="435" on="0"/>
        <pt x="273" y="424" on="1"/>
        <pt x="278" y="422" on="0"/>
        <pt x="318" y="412" on="0"/>
        <pt x="333" y="408" on="1"/>
        <pt x="371" y="398" on="1"/>
        <pt x="394" y="392" on="0"/>
        <pt x="429" y="383" on="0"/>
        <pt x="458" y="370" on="0"/>
        <pt x="482" y="351" on="0"/>
        <pt x="493" y="337" on="1"/>
        <pt x="507" y="320" on="0"/>
        <pt x="523" y="285" on="0"/>
        <pt x="531" y="253" on="0"/>
        <pt x="533" y="228" on="0"/>
        <pt x="533" y="220" on="1"/>
        <pt x="533" y="176" on="0"/>
        <pt x="497" y="89" on="0"/>
        <pt x="434" y="20" on="0"/>
        <pt x="349" y="-22" on="0"/>
        <pt x="300" y="-22" on="1"/>
        <pt x="260" y="-22" on="0"/>
        <pt x="202" y="-7" on="0"/>
        <pt x="161" y="15" on="0"/>
        <pt x="135" y="39" on="0"/>
        <pt x="127" y="48" on="1"/>
        <pt x="81" y="-11" on="1"/>
        <pt x="75" y="-19" on="0"/>
        <pt x="70" y="-22" on="0"/>
        <pt x="65" y="-22" on="1"/>
        <pt x="54" y="-22" on="0"/>
        <pt x="54" y="-11" on="1"/>
        <pt x="54" y="-9" on="0"/>
        <pt x="54" y="-4" on="0"/>
        <pt x="56" y="3" on="1"/>
        <pt x="90" y="205" on="1"/>
        <pt x="92" y="218" on="0"/>
        <pt x="97" y="227" on="0"/>
        <pt x="105" y="227" on="1"/>
        <pt x="107" y="227" on="0"/>
        <pt x="117" y="224" on="0"/>
        <pt x="117" y="216" on="1"/>
        <pt x="117" y="207" on="0"/>
        <pt x="113" y="183" on="0"/>
        <pt x="113" y="173" on="1"/>
        <pt x="113" y="130" on="0"/>
        <pt x="143" y="68" on="0"/>
        <pt x="195" y="28" on="0"/>
        <pt x="263" y="9" on="0"/>
        <pt x="301" y="9" on="1"/>
        <pt x="337" y="9" on="0"/>
        <pt x="396" y="40" on="0"/>
        <pt x="439" y="89" on="0"/>
        <pt x="463" y="149" on="0"/>
        <pt x="463" y="179" on="1"/>
        <pt x="463" y="185" on="0"/>
        <pt x="460" y="214" on="0"/>
        <pt x="446" y="247" on="0"/>
        <pt x="419" y="278" on="0"/>
        <pt x="395" y="288" on="1"/>
        <pt x="315" y="309" on="1"/>
        <pt x="285" y="317" on="0"/>
        <pt x="243" y="328" on="0"/>
        <pt x="212" y="342" on="0"/>
        <pt x="189" y="359" on="0"/>
        <pt x="177" y="373" on="1"/>
        <pt x="150" y="406" on="0"/>
        <pt x="139" y="464" on="0"/>
        <pt x="139" y="481" on="1"/>
        <pt x="139" y="526" on="0"/>
        <pt x="176" y="607" on="0"/>
        <pt x="239" y="668" on="0"/>
        <pt x="322" y="705" on="0"/>
        <pt x="367" y="705" on="1"/>
        <pt x="397" y="705" on="0"/>
        <pt x="445" y="692" on="0"/>
        <pt x="482" y="672" on="0"/>
        <pt x="507" y="647" on="0"/>
        <pt x="515" y="635" on="1"/>
        <pt x="560" y="692" on="1"/>
        <pt x="567" y="700" on="0"/>
        <pt x="571" y="705" on="0"/>
        <pt x="576" y="705" on="1"/>
        <pt x="581" y="705" on="0"/>
        <pt x="588" y="700" on="0"/>
        <pt x="588" y="694" on="1"/>
      </contour>
    </TTGlyph>
    <TTGlyph name="Sigma" xMin="58" yMin="0" xMax="751" yMax="683">
      <contour>
        <pt x="129" y="42" on="1"/>
        <pt x="402" y="42" on="1"/>
        <pt x="459" y="42" on="0"/>
        <pt x="546" y="54" on="0"/>
        <pt x="613" y="95" on="0"/>
        <pt x="662" y="172" on="0"/>
        <pt x="679" y="236" on="1"/>
        <pt x="704" y="236" on="1"/>
        <pt x="637" y="0" on="1"/>
        <pt x="85" y="0" on="1"/>
        <pt x="71" y="0" on="0"/>
        <pt x="58" y="3" on="0"/>
        <pt x="58" y="11" on="1"/>
        <pt x="58" y="13" on="0"/>
        <pt x="61" y="19" on="0"/>
        <pt x="69" y="27" on="1"/>
        <pt x="355" y="300" on="1"/>
        <pt x="174" y="646" on="1"/>
        <pt x="169" y="656" on="0"/>
        <pt x="167" y="662" on="0"/>
        <pt x="167" y="665" on="1"/>
        <pt x="167" y="679" on="0"/>
        <pt x="180" y="683" on="0"/>
        <pt x="196" y="683" on="1"/>
        <pt x="751" y="683" on="1"/>
        <pt x="741" y="458" on="1"/>
        <pt x="716" y="458" on="1"/>
        <pt x="717" y="465" on="0"/>
        <pt x="717" y="473" on="0"/>
        <pt x="717" y="485" on="1"/>
        <pt x="717" y="537" on="0"/>
        <pt x="695" y="602" on="0"/>
        <pt x="645" y="639" on="0"/>
        <pt x="565" y="652" on="0"/>
        <pt x="507" y="652" on="1"/>
        <pt x="277" y="652" on="1"/>
        <pt x="431" y="358" on="1"/>
        <pt x="436" y="349" on="0"/>
        <pt x="438" y="344" on="0"/>
        <pt x="438" y="342" on="1"/>
        <pt x="438" y="339" on="0"/>
        <pt x="435" y="334" on="0"/>
        <pt x="427" y="326" on="1"/>
      </contour>
    </TTGlyph>
    <TTGlyph name="T" xMin="111" yMin="0" xMax="779" yMax="677">
      <contour>
        <pt x="418" y="77" on="1"/>
        <pt x="416" y="69" on="0"/>
        <pt x="416" y="62" on="0"/>
        <pt x="416" y="61" on="1"/>
        <pt x="416" y="53" on="0"/>
        <pt x="424" y="41" on="0"/>
        <pt x="446" y="34" on="0"/>
        <pt x="485" y="31" on="0"/>
        <pt x="517" y="31" on="1"/>
        <pt x="555" y="31" on="1"/>
        <pt x="550" y="0" on="1"/>
        <pt x="535" y="1" on="0"/>
        <pt x="485" y="2" on="0"/>
        <pt x="430" y="3" on="0"/>
        <pt x="378" y="3" on="0"/>
        <pt x="361" y="3" on="1"/>
        <pt x="265" y="2" on="1"/>
        <pt x="246" y="2" on="0"/>
        <pt x="190" y="2" on="0"/>
        <pt x="171" y="0" on="1"/>
        <pt x="176" y="31" on="1"/>
        <pt x="214" y="31" on="1"/>
        <pt x="254" y="31" on="0"/>
        <pt x="298" y="36" on="0"/>
        <pt x="320" y="47" on="0"/>
        <pt x="326" y="64" on="0"/>
        <pt x="328" y="76" on="1"/>
        <pt x="416" y="600" on="1"/>
        <pt x="417" y="606" on="0"/>
        <pt x="419" y="619" on="0"/>
        <pt x="419" y="625" on="1"/>
        <pt x="419" y="636" on="0"/>
        <pt x="409" y="643" on="0"/>
        <pt x="393" y="645" on="1"/>
        <pt x="388" y="646" on="0"/>
        <pt x="360" y="646" on="0"/>
        <pt x="349" y="646" on="1"/>
        <pt x="289" y="646" on="0"/>
        <pt x="220" y="629" on="0"/>
        <pt x="178" y="585" on="0"/>
        <pt x="152" y="510" on="0"/>
        <pt x="136" y="452" on="1"/>
        <pt x="111" y="452" on="1"/>
        <pt x="168" y="677" on="1"/>
        <pt x="779" y="677" on="1"/>
        <pt x="760" y="452" on="1"/>
        <pt x="735" y="452" on="1"/>
        <pt x="737" y="472" on="0"/>
        <pt x="740" y="509" on="0"/>
        <pt x="740" y="529" on="1"/>
        <pt x="740" y="567" on="0"/>
        <pt x="725" y="612" on="0"/>
        <pt x="690" y="638" on="0"/>
        <pt x="631" y="646" on="0"/>
        <pt x="587" y="646" on="1"/>
        <pt x="573" y="646" on="0"/>
        <pt x="539" y="646" on="0"/>
        <pt x="532" y="644" on="1"/>
        <pt x="517" y="641" on="0"/>
        <pt x="510" y="625" on="0"/>
        <pt x="507" y="609" on="1"/>
      </contour>
    </TTGlyph>
    <TTGlyph name="Theta" xMin="107" yMin="-22" xMax="783" yMax="705">
      <contour>
        <pt x="783" y="405" on="1"/>
        <pt x="783" y="319" on="0"/>
        <pt x="715" y="164" on="0"/>
        <pt x="604" y="47" on="0"/>
        <pt x="461" y="-22" on="0"/>
        <pt x="385" y="-22" on="1"/>
        <pt x="325" y="-22" on="0"/>
        <pt x="223" y="22" on="0"/>
        <pt x="149" y="101" on="0"/>
        <pt x="107" y="210" on="0"/>
        <pt x="107" y="274" on="1"/>
        <pt x="107" y="358" on="0"/>
        <pt x="173" y="514" on="0"/>
        <pt x="284" y="633" on="0"/>
        <pt x="428" y="705" on="0"/>
        <pt x="506" y="705" on="1"/>
        <pt x="565" y="705" on="0"/>
        <pt x="666" y="662" on="0"/>
        <pt x="740" y="583" on="0"/>
        <pt x="783" y="472" on="0"/>
      </contour>
      <contour>
        <pt x="389" y="1" on="1"/>
        <pt x="448" y="1" on="0"/>
        <pt x="556" y="67" on="0"/>
        <pt x="639" y="184" on="0"/>
        <pt x="689" y="343" on="0"/>
        <pt x="689" y="437" on="1"/>
        <pt x="689" y="503" on="0"/>
        <pt x="656" y="596" on="0"/>
        <pt x="603" y="655" on="0"/>
        <pt x="536" y="683" on="0"/>
        <pt x="502" y="683" on="1"/>
        <pt x="471" y="683" on="0"/>
        <pt x="412" y="663" on="0"/>
        <pt x="359" y="630" on="0"/>
        <pt x="314" y="587" on="0"/>
        <pt x="297" y="563" on="1"/>
        <pt x="262" y="515" on="0"/>
        <pt x="223" y="412" on="0"/>
        <pt x="205" y="322" on="0"/>
        <pt x="201" y="255" on="0"/>
        <pt x="201" y="244" on="1"/>
        <pt x="201" y="180" on="0"/>
        <pt x="234" y="88" on="0"/>
        <pt x="287" y="29" on="0"/>
        <pt x="354" y="1" on="0"/>
      </contour>
      <contour>
        <pt x="612" y="270" on="1"/>
        <pt x="587" y="270" on="1"/>
        <pt x="593" y="304" on="1"/>
        <pt x="286" y="304" on="1"/>
        <pt x="280" y="270" on="1"/>
        <pt x="255" y="270" on="1"/>
        <pt x="279" y="414" on="1"/>
        <pt x="304" y="414" on="1"/>
        <pt x="298" y="380" on="1"/>
        <pt x="605" y="380" on="1"/>
        <pt x="611" y="414" on="1"/>
        <pt x="636" y="414" on="1"/>
      </contour>
    </TTGlyph>
    <TTGlyph name="U" xMin="142" yMin="-22" xMax="830" yMax="683">
      <contour>
        <pt x="651" y="225" on="1"/>
        <pt x="643" y="177" on="0"/>
        <pt x="595" y="87" on="0"/>
        <pt x="524" y="19" on="0"/>
        <pt x="435" y="-22" on="0"/>
        <pt x="386" y="-22" on="1"/>
        <pt x="343" y="-22" on="0"/>
        <pt x="264" y="8" on="0"/>
        <pt x="206" y="63" on="0"/>
        <pt x="171" y="141" on="0"/>
        <pt x="171" y="189" on="1"/>
        <pt x="171" y="197" on="0"/>
        <pt x="172" y="217" on="0"/>
        <pt x="174" y="231" on="1"/>
        <pt x="236" y="600" on="1"/>
        <pt x="237" y="606" on="0"/>
        <pt x="239" y="619" on="0"/>
        <pt x="239" y="624" on="1"/>
        <pt x="239" y="632" on="0"/>
        <pt x="234" y="643" on="0"/>
        <pt x="218" y="649" on="0"/>
        <pt x="188" y="652" on="0"/>
        <pt x="163" y="652" on="1"/>
        <pt x="142" y="652" on="1"/>
        <pt x="143" y="659" on="0"/>
        <pt x="146" y="677" on="0"/>
        <pt x="147" y="683" on="1"/>
        <pt x="161" y="682" on="0"/>
        <pt x="199" y="681" on="0"/>
        <pt x="240" y="680" on="0"/>
        <pt x="279" y="680" on="0"/>
        <pt x="294" y="680" on="1"/>
        <pt x="308" y="680" on="0"/>
        <pt x="348" y="680" on="0"/>
        <pt x="390" y="681" on="0"/>
        <pt x="429" y="682" on="0"/>
        <pt x="442" y="683" on="1"/>
        <pt x="437" y="652" on="1"/>
        <pt x="415" y="652" on="1"/>
        <pt x="385" y="652" on="0"/>
        <pt x="352" y="648" on="0"/>
        <pt x="335" y="637" on="0"/>
        <pt x="329" y="621" on="0"/>
        <pt x="327" y="609" on="1"/>
        <pt x="260" y="204" on="1"/>
        <pt x="258" y="190" on="0"/>
        <pt x="257" y="169" on="0"/>
        <pt x="257" y="160" on="1"/>
        <pt x="257" y="111" on="0"/>
        <pt x="287" y="51" on="0"/>
        <pt x="329" y="19" on="0"/>
        <pt x="374" y="9" on="0"/>
        <pt x="389" y="9" on="1"/>
        <pt x="425" y="9" on="0"/>
        <pt x="499" y="38" on="0"/>
        <pt x="564" y="95" on="0"/>
        <pt x="611" y="178" on="0"/>
        <pt x="620" y="231" on="1"/>
        <pt x="678" y="576" on="1"/>
        <pt x="680" y="588" on="0"/>
        <pt x="681" y="595" on="0"/>
        <pt x="681" y="599" on="1"/>
        <pt x="681" y="619" on="0"/>
        <pt x="658" y="640" on="0"/>
        <pt x="628" y="650" on="0"/>
        <pt x="597" y="652" on="0"/>
        <pt x="588" y="652" on="1"/>
        <pt x="594" y="683" on="1"/>
        <pt x="605" y="683" on="0"/>
        <pt x="638" y="682" on="0"/>
        <pt x="672" y="681" on="0"/>
        <pt x="702" y="680" on="0"/>
        <pt x="711" y="680" on="1"/>
        <pt x="737" y="680" on="0"/>
        <pt x="801" y="681" on="0"/>
        <pt x="830" y="683" on="1"/>
        <pt x="825" y="652" on="1"/>
        <pt x="786" y="652" on="0"/>
        <pt x="742" y="637" on="0"/>
        <pt x="719" y="615" on="0"/>
        <pt x="712" y="590" on="0"/>
        <pt x="710" y="580" on="1"/>
      </contour>
    </TTGlyph>
    <TTGlyph name="Upsilon" xMin="147" yMin="0" xMax="815" yMax="705">
      <contour>
        <pt x="447" y="84" on="1"/>
        <pt x="445" y="72" on="0"/>
        <pt x="444" y="65" on="0"/>
        <pt x="444" y="61" on="1"/>
        <pt x="444" y="53" on="0"/>
        <pt x="450" y="41" on="0"/>
        <pt x="470" y="34" on="0"/>
        <pt x="505" y="31" on="0"/>
        <pt x="535" y="31" on="1"/>
        <pt x="567" y="31" on="1"/>
        <pt x="562" y="0" on="1"/>
        <pt x="548" y="1" on="0"/>
        <pt x="502" y="2" on="0"/>
        <pt x="453" y="3" on="0"/>
        <pt x="405" y="3" on="0"/>
        <pt x="389" y="3" on="1"/>
        <pt x="374" y="3" on="0"/>
        <pt x="326" y="3" on="0"/>
        <pt x="275" y="2" on="0"/>
        <pt x="230" y="1" on="0"/>
        <pt x="216" y="0" on="1"/>
        <pt x="221" y="31" on="1"/>
        <pt x="252" y="31" on="1"/>
        <pt x="288" y="31" on="0"/>
        <pt x="328" y="36" on="0"/>
        <pt x="348" y="47" on="0"/>
        <pt x="354" y="64" on="0"/>
        <pt x="356" y="76" on="1"/>
        <pt x="404" y="361" on="1"/>
        <pt x="408" y="382" on="0"/>
        <pt x="410" y="424" on="0"/>
        <pt x="410" y="445" on="1"/>
        <pt x="410" y="458" on="0"/>
        <pt x="406" y="518" on="0"/>
        <pt x="384" y="580" on="0"/>
        <pt x="335" y="628" on="0"/>
        <pt x="290" y="628" on="1"/>
        <pt x="277" y="628" on="0"/>
        <pt x="244" y="620" on="0"/>
        <pt x="212" y="602" on="0"/>
        <pt x="185" y="573" on="0"/>
        <pt x="179" y="551" on="1"/>
        <pt x="177" y="545" on="0"/>
        <pt x="172" y="535" on="0"/>
        <pt x="161" y="535" on="1"/>
        <pt x="152" y="535" on="0"/>
        <pt x="147" y="542" on="0"/>
        <pt x="147" y="546" on="1"/>
        <pt x="147" y="558" on="0"/>
        <pt x="166" y="610" on="0"/>
        <pt x="204" y="664" on="0"/>
        <pt x="264" y="705" on="0"/>
        <pt x="304" y="705" on="1"/>
        <pt x="360" y="705" on="0"/>
        <pt x="424" y="649" on="0"/>
        <pt x="457" y="571" on="0"/>
        <pt x="465" y="489" on="0"/>
        <pt x="465" y="463" on="1"/>
        <pt x="466" y="463" on="1"/>
        <pt x="479" y="502" on="0"/>
        <pt x="520" y="587" on="0"/>
        <pt x="580" y="659" on="0"/>
        <pt x="659" y="705" on="0"/>
        <pt x="708" y="705" on="1"/>
        <pt x="737" y="705" on="0"/>
        <pt x="777" y="682" on="0"/>
        <pt x="803" y="646" on="0"/>
        <pt x="815" y="601" on="0"/>
        <pt x="815" y="578" on="1"/>
        <pt x="815" y="550" on="0"/>
        <pt x="805" y="535" on="0"/>
        <pt x="795" y="535" on="1"/>
        <pt x="791" y="535" on="0"/>
        <pt x="784" y="537" on="0"/>
        <pt x="782" y="541" on="1"/>
        <pt x="781" y="543" on="0"/>
        <pt x="782" y="557" on="0"/>
        <pt x="782" y="558" on="1"/>
        <pt x="781" y="584" on="0"/>
        <pt x="755" y="613" on="0"/>
        <pt x="724" y="626" on="0"/>
        <pt x="698" y="628" on="0"/>
        <pt x="696" y="628" on="1"/>
        <pt x="648" y="628" on="0"/>
        <pt x="577" y="572" on="0"/>
        <pt x="529" y="489" on="0"/>
        <pt x="500" y="397" on="0"/>
        <pt x="494" y="361" on="1"/>
      </contour>
    </TTGlyph>
    <TTGlyph name="V" xMin="128" yMin="-22" xMax="844" yMax="683">
      <contour>
        <pt x="398" y="-2" on="1"/>
        <pt x="391" y="-14" on="0"/>
        <pt x="383" y="-22" on="0"/>
        <pt x="371" y="-22" on="1"/>
        <pt x="360" y="-22" on="0"/>
        <pt x="352" y="-14" on="0"/>
        <pt x="349" y="1" on="1"/>
        <pt x="220" y="611" on="1"/>
        <pt x="217" y="626" on="0"/>
        <pt x="206" y="643" on="0"/>
        <pt x="186" y="651" on="0"/>
        <pt x="154" y="652" on="0"/>
        <pt x="128" y="652" on="1"/>
        <pt x="133" y="683" on="1"/>
        <pt x="150" y="682" on="0"/>
        <pt x="221" y="680" on="0"/>
        <pt x="259" y="680" on="1"/>
        <pt x="273" y="680" on="0"/>
        <pt x="312" y="680" on="0"/>
        <pt x="352" y="681" on="0"/>
        <pt x="390" y="682" on="0"/>
        <pt x="403" y="683" on="1"/>
        <pt x="398" y="652" on="1"/>
        <pt x="389" y="652" on="0"/>
        <pt x="359" y="651" on="0"/>
        <pt x="331" y="645" on="0"/>
        <pt x="311" y="632" on="0"/>
        <pt x="311" y="620" on="1"/>
        <pt x="311" y="617" on="0"/>
        <pt x="312" y="611" on="0"/>
        <pt x="314" y="603" on="1"/>
        <pt x="421" y="100" on="1"/>
        <pt x="683" y="582" on="1"/>
        <pt x="689" y="593" on="0"/>
        <pt x="693" y="601" on="0"/>
        <pt x="693" y="609" on="1"/>
        <pt x="693" y="622" on="0"/>
        <pt x="666" y="652" on="0"/>
        <pt x="627" y="652" on="1"/>
        <pt x="632" y="683" on="1"/>
        <pt x="641" y="683" on="0"/>
        <pt x="670" y="682" on="0"/>
        <pt x="702" y="681" on="0"/>
        <pt x="734" y="680" on="0"/>
        <pt x="746" y="680" on="1"/>
        <pt x="766" y="680" on="0"/>
        <pt x="821" y="681" on="0"/>
        <pt x="844" y="683" on="1"/>
        <pt x="839" y="652" on="1"/>
        <pt x="791" y="652" on="0"/>
        <pt x="736" y="616" on="0"/>
        <pt x="719" y="586" on="1"/>
      </contour>
    </TTGlyph>
    <TTGlyph name="W" xMin="127" yMin="-22" xMax="1123" yMax="683">
      <contour>
        <pt x="718" y="-2" on="1"/>
        <pt x="714" y="-10" on="0"/>
        <pt x="705" y="-22" on="0"/>
        <pt x="695" y="-22" on="1"/>
        <pt x="685" y="-22" on="0"/>
        <pt x="680" y="-11" on="0"/>
        <pt x="678" y="3" on="1"/>
        <pt x="598" y="506" on="1"/>
        <pt x="348" y="-2" on="1"/>
        <pt x="344" y="-10" on="0"/>
        <pt x="335" y="-22" on="0"/>
        <pt x="325" y="-22" on="1"/>
        <pt x="315" y="-22" on="0"/>
        <pt x="310" y="-10" on="0"/>
        <pt x="308" y="1" on="1"/>
        <pt x="212" y="607" on="1"/>
        <pt x="209" y="624" on="0"/>
        <pt x="200" y="642" on="0"/>
        <pt x="182" y="651" on="0"/>
        <pt x="151" y="652" on="0"/>
        <pt x="127" y="652" on="1"/>
        <pt x="132" y="683" on="1"/>
        <pt x="165" y="681" on="0"/>
        <pt x="227" y="680" on="0"/>
        <pt x="253" y="680" on="1"/>
        <pt x="267" y="680" on="0"/>
        <pt x="306" y="680" on="0"/>
        <pt x="346" y="681" on="0"/>
        <pt x="383" y="682" on="0"/>
        <pt x="396" y="683" on="1"/>
        <pt x="395" y="676" on="0"/>
        <pt x="392" y="658" on="0"/>
        <pt x="391" y="652" on="1"/>
        <pt x="381" y="652" on="0"/>
        <pt x="350" y="651" on="0"/>
        <pt x="322" y="645" on="0"/>
        <pt x="301" y="631" on="0"/>
        <pt x="301" y="618" on="1"/>
        <pt x="301" y="614" on="0"/>
        <pt x="301" y="609" on="0"/>
        <pt x="303" y="601" on="1"/>
        <pt x="380" y="117" on="1"/>
        <pt x="585" y="532" on="1"/>
        <pt x="590" y="540" on="0"/>
        <pt x="591" y="548" on="0"/>
        <pt x="591" y="549" on="1"/>
        <pt x="591" y="552" on="0"/>
        <pt x="587" y="577" on="0"/>
        <pt x="582" y="606" on="0"/>
        <pt x="577" y="630" on="0"/>
        <pt x="575" y="633" on="1"/>
        <pt x="572" y="639" on="0"/>
        <pt x="563" y="646" on="0"/>
        <pt x="547" y="651" on="0"/>
        <pt x="519" y="652" on="0"/>
        <pt x="497" y="652" on="1"/>
        <pt x="502" y="683" on="1"/>
        <pt x="535" y="681" on="0"/>
        <pt x="597" y="680" on="0"/>
        <pt x="623" y="680" on="1"/>
        <pt x="637" y="680" on="0"/>
        <pt x="676" y="680" on="0"/>
        <pt x="716" y="681" on="0"/>
        <pt x="753" y="682" on="0"/>
        <pt x="766" y="683" on="1"/>
        <pt x="765" y="676" on="0"/>
        <pt x="762" y="658" on="0"/>
        <pt x="761" y="652" on="1"/>
        <pt x="751" y="652" on="0"/>
        <pt x="720" y="651" on="0"/>
        <pt x="692" y="645" on="0"/>
        <pt x="671" y="631" on="0"/>
        <pt x="671" y="618" on="1"/>
        <pt x="671" y="617" on="0"/>
        <pt x="671" y="611" on="0"/>
        <pt x="673" y="603" on="1"/>
        <pt x="750" y="117" on="1"/>
        <pt x="978" y="580" on="1"/>
        <pt x="986" y="594" on="0"/>
        <pt x="986" y="605" on="1"/>
        <pt x="986" y="620" on="0"/>
        <pt x="968" y="638" on="0"/>
        <pt x="944" y="648" on="0"/>
        <pt x="921" y="652" on="0"/>
        <pt x="916" y="652" on="1"/>
        <pt x="909" y="653" on="0"/>
        <pt x="909" y="657" on="1"/>
        <pt x="913" y="683" on="1"/>
        <pt x="920" y="683" on="0"/>
        <pt x="948" y="682" on="0"/>
        <pt x="982" y="681" on="0"/>
        <pt x="1017" y="680" on="0"/>
        <pt x="1031" y="680" on="1"/>
        <pt x="1031" y="680" on="0"/>
        <pt x="1050" y="680" on="0"/>
        <pt x="1077" y="681" on="0"/>
        <pt x="1109" y="682" on="0"/>
        <pt x="1123" y="683" on="1"/>
        <pt x="1121" y="675" on="0"/>
        <pt x="1120" y="660" on="0"/>
        <pt x="1118" y="652" on="1"/>
        <pt x="1089" y="652" on="0"/>
        <pt x="1050" y="637" on="0"/>
        <pt x="1025" y="616" on="0"/>
        <pt x="1012" y="593" on="0"/>
        <pt x="1007" y="584" on="1"/>
      </contour>
    </TTGlyph>
    <TTGlyph name="X" xMin="24" yMin="0" xMax="797" yMax="683">
      <contour>
        <pt x="624" y="68" on="1"/>
        <pt x="630" y="57" on="0"/>
        <pt x="642" y="42" on="0"/>
        <pt x="662" y="34" on="0"/>
        <pt x="692" y="31" on="0"/>
        <pt x="714" y="31" on="1"/>
        <pt x="731" y="31" on="1"/>
        <pt x="729" y="23" on="0"/>
        <pt x="728" y="8" on="0"/>
        <pt x="726" y="0" on="1"/>
        <pt x="711" y="1" on="0"/>
        <pt x="675" y="2" on="0"/>
        <pt x="639" y="3" on="0"/>
        <pt x="607" y="3" on="0"/>
        <pt x="597" y="3" on="1"/>
        <pt x="583" y="3" on="0"/>
        <pt x="543" y="3" on="0"/>
        <pt x="502" y="2" on="0"/>
        <pt x="463" y="1" on="0"/>
        <pt x="450" y="0" on="1"/>
        <pt x="451" y="6" on="0"/>
        <pt x="454" y="24" on="0"/>
        <pt x="455" y="31" on="1"/>
        <pt x="489" y="32" on="0"/>
        <pt x="525" y="54" on="0"/>
        <pt x="525" y="62" on="1"/>
        <pt x="525" y="63" on="0"/>
        <pt x="524" y="68" on="0"/>
        <pt x="519" y="77" on="1"/>
        <pt x="404" y="311" on="1"/>
        <pt x="226" y="101" on="1"/>
        <pt x="216" y="89" on="0"/>
        <pt x="212" y="74" on="0"/>
        <pt x="212" y="72" on="1"/>
        <pt x="212" y="61" on="0"/>
        <pt x="223" y="46" on="0"/>
        <pt x="240" y="35" on="0"/>
        <pt x="260" y="30" on="0"/>
        <pt x="268" y="30" on="1"/>
        <pt x="262" y="0" on="1"/>
        <pt x="232" y="2" on="0"/>
        <pt x="165" y="3" on="0"/>
        <pt x="135" y="3" on="1"/>
        <pt x="110" y="3" on="0"/>
        <pt x="51" y="1" on="0"/>
        <pt x="24" y="0" on="1"/>
        <pt x="26" y="8" on="0"/>
        <pt x="27" y="23" on="0"/>
        <pt x="29" y="31" on="1"/>
        <pt x="46" y="31" on="0"/>
        <pt x="85" y="35" on="0"/>
        <pt x="125" y="49" on="0"/>
        <pt x="165" y="73" on="0"/>
        <pt x="181" y="92" on="1"/>
        <pt x="390" y="339" on="1"/>
        <pt x="255" y="611" on="1"/>
        <pt x="249" y="624" on="0"/>
        <pt x="236" y="640" on="0"/>
        <pt x="216" y="649" on="0"/>
        <pt x="186" y="652" on="0"/>
        <pt x="162" y="652" on="1"/>
        <pt x="146" y="652" on="1"/>
        <pt x="147" y="658" on="0"/>
        <pt x="150" y="676" on="0"/>
        <pt x="151" y="683" on="1"/>
        <pt x="166" y="682" on="0"/>
        <pt x="202" y="681" on="0"/>
        <pt x="238" y="680" on="0"/>
        <pt x="270" y="680" on="0"/>
        <pt x="280" y="680" on="1"/>
        <pt x="295" y="680" on="0"/>
        <pt x="334" y="680" on="0"/>
        <pt x="375" y="681" on="0"/>
        <pt x="414" y="682" on="0"/>
        <pt x="427" y="683" on="1"/>
        <pt x="422" y="652" on="1"/>
        <pt x="390" y="651" on="0"/>
        <pt x="351" y="631" on="0"/>
        <pt x="351" y="620" on="1"/>
        <pt x="351" y="618" on="0"/>
        <pt x="353" y="613" on="0"/>
        <pt x="358" y="604" on="1"/>
        <pt x="453" y="414" on="1"/>
        <pt x="595" y="583" on="1"/>
        <pt x="602" y="591" on="0"/>
        <pt x="609" y="602" on="0"/>
        <pt x="609" y="611" on="1"/>
        <pt x="609" y="614" on="0"/>
        <pt x="607" y="625" on="0"/>
        <pt x="598" y="637" on="0"/>
        <pt x="580" y="648" on="0"/>
        <pt x="564" y="651" on="1"/>
        <pt x="558" y="653" on="0"/>
        <pt x="555" y="655" on="0"/>
        <pt x="555" y="657" on="1"/>
        <pt x="559" y="683" on="1"/>
        <pt x="589" y="681" on="0"/>
        <pt x="656" y="680" on="0"/>
        <pt x="686" y="680" on="1"/>
        <pt x="711" y="680" on="0"/>
        <pt x="770" y="682" on="0"/>
        <pt x="797" y="683" on="1"/>
        <pt x="792" y="652" on="1"/>
        <pt x="755" y="652" on="0"/>
        <pt x="701" y="637" on="0"/>
        <pt x="664" y="615" on="0"/>
        <pt x="641" y="593" on="0"/>
        <pt x="635" y="585" on="1"/>
        <pt x="466" y="386" on="1"/>
      </contour>
    </TTGlyph>
    <TTGlyph name="Xi" xMin="50" yMin="0" xMax="724" yMax="677">
      <contour>
        <pt x="706" y="521" on="1"/>
        <pt x="681" y="521" on="1"/>
        <pt x="684" y="547" on="0"/>
        <pt x="685" y="570" on="0"/>
        <pt x="685" y="573" on="1"/>
        <pt x="685" y="595" on="0"/>
        <pt x="677" y="603" on="0"/>
        <pt x="659" y="605" on="1"/>
        <pt x="658" y="605" on="0"/>
        <pt x="621" y="607" on="0"/>
        <pt x="605" y="607" on="1"/>
        <pt x="263" y="607" on="1"/>
        <pt x="251" y="607" on="0"/>
        <pt x="225" y="607" on="0"/>
        <pt x="202" y="605" on="0"/>
        <pt x="185" y="600" on="0"/>
        <pt x="182" y="596" on="1"/>
        <pt x="174" y="585" on="0"/>
        <pt x="162" y="537" on="0"/>
        <pt x="159" y="521" on="1"/>
        <pt x="134" y="521" on="1"/>
        <pt x="168" y="677" on="1"/>
        <pt x="724" y="677" on="1"/>
      </contour>
      <contour>
        <pt x="70" y="167" on="1"/>
        <pt x="95" y="167" on="1"/>
        <pt x="93" y="150" on="0"/>
        <pt x="89" y="120" on="0"/>
        <pt x="89" y="103" on="1"/>
        <pt x="89" y="82" on="0"/>
        <pt x="99" y="74" on="0"/>
        <pt x="115" y="72" on="1"/>
        <pt x="119" y="72" on="0"/>
        <pt x="136" y="71" on="0"/>
        <pt x="155" y="70" on="0"/>
        <pt x="171" y="70" on="0"/>
        <pt x="173" y="70" on="1"/>
        <pt x="517" y="70" on="1"/>
        <pt x="527" y="70" on="0"/>
        <pt x="553" y="70" on="0"/>
        <pt x="579" y="73" on="0"/>
        <pt x="598" y="78" on="0"/>
        <pt x="601" y="82" on="1"/>
        <pt x="612" y="96" on="0"/>
        <pt x="627" y="167" on="1"/>
        <pt x="652" y="167" on="1"/>
        <pt x="616" y="0" on="1"/>
        <pt x="50" y="0" on="1"/>
      </contour>
      <contour>
        <pt x="571" y="266" on="1"/>
        <pt x="546" y="266" on="1"/>
        <pt x="555" y="317" on="1"/>
        <pt x="217" y="317" on="1"/>
        <pt x="208" y="266" on="1"/>
        <pt x="183" y="266" on="1"/>
        <pt x="212" y="438" on="1"/>
        <pt x="237" y="438" on="1"/>
        <pt x="229" y="387" on="1"/>
        <pt x="567" y="387" on="1"/>
        <pt x="575" y="438" on="1"/>
        <pt x="600" y="438" on="1"/>
      </contour>
    </TTGlyph>
    <TTGlyph name="Y" xMin="120" yMin="0" xMax="851" yMax="683">
      <contour>
        <pt x="463" y="273" on="1"/>
        <pt x="462" y="266" on="0"/>
        <pt x="456" y="230" on="0"/>
        <pt x="448" y="186" on="0"/>
        <pt x="439" y="137" on="0"/>
        <pt x="432" y="95" on="0"/>
        <pt x="428" y="64" on="0"/>
        <pt x="428" y="60" on="1"/>
        <pt x="428" y="44" on="0"/>
        <pt x="445" y="35" on="0"/>
        <pt x="462" y="33" on="1"/>
        <pt x="477" y="31" on="0"/>
        <pt x="504" y="31" on="0"/>
        <pt x="525" y="31" on="1"/>
        <pt x="520" y="0" on="1"/>
        <pt x="507" y="1" on="0"/>
        <pt x="468" y="2" on="0"/>
        <pt x="428" y="3" on="0"/>
        <pt x="389" y="3" on="0"/>
        <pt x="374" y="3" on="1"/>
        <pt x="359" y="3" on="0"/>
        <pt x="320" y="3" on="0"/>
        <pt x="280" y="2" on="0"/>
        <pt x="242" y="1" on="0"/>
        <pt x="228" y="0" on="1"/>
        <pt x="233" y="31" on="1"/>
        <pt x="258" y="31" on="0"/>
        <pt x="302" y="32" on="0"/>
        <pt x="319" y="36" on="1"/>
        <pt x="333" y="40" on="0"/>
        <pt x="341" y="66" on="0"/>
        <pt x="343" y="75" on="1"/>
        <pt x="349" y="110" on="0"/>
        <pt x="357" y="154" on="0"/>
        <pt x="364" y="195" on="0"/>
        <pt x="371" y="240" on="0"/>
        <pt x="376" y="274" on="1"/>
        <pt x="224" y="614" on="1"/>
        <pt x="218" y="627" on="0"/>
        <pt x="206" y="642" on="0"/>
        <pt x="185" y="650" on="0"/>
        <pt x="149" y="652" on="0"/>
        <pt x="120" y="652" on="1"/>
        <pt x="125" y="683" on="1"/>
        <pt x="139" y="682" on="0"/>
        <pt x="174" y="681" on="0"/>
        <pt x="210" y="680" on="0"/>
        <pt x="243" y="680" on="0"/>
        <pt x="255" y="680" on="1"/>
        <pt x="269" y="680" on="0"/>
        <pt x="309" y="680" on="0"/>
        <pt x="350" y="681" on="0"/>
        <pt x="389" y="682" on="0"/>
        <pt x="402" y="683" on="1"/>
        <pt x="397" y="652" on="1"/>
        <pt x="387" y="652" on="0"/>
        <pt x="362" y="651" on="0"/>
        <pt x="339" y="646" on="0"/>
        <pt x="323" y="635" on="0"/>
        <pt x="323" y="624" on="1"/>
        <pt x="323" y="623" on="0"/>
        <pt x="324" y="615" on="0"/>
        <pt x="329" y="605" on="1"/>
        <pt x="459" y="315" on="1"/>
        <pt x="669" y="584" on="1"/>
        <pt x="674" y="591" on="0"/>
        <pt x="685" y="607" on="0"/>
        <pt x="685" y="618" on="1"/>
        <pt x="685" y="632" on="0"/>
        <pt x="660" y="652" on="0"/>
        <pt x="634" y="652" on="1"/>
        <pt x="639" y="683" on="1"/>
        <pt x="649" y="683" on="0"/>
        <pt x="678" y="682" on="0"/>
        <pt x="711" y="681" on="0"/>
        <pt x="742" y="680" on="0"/>
        <pt x="753" y="680" on="1"/>
        <pt x="773" y="680" on="0"/>
        <pt x="828" y="681" on="0"/>
        <pt x="851" y="683" on="1"/>
        <pt x="846" y="652" on="1"/>
        <pt x="831" y="652" on="0"/>
        <pt x="797" y="648" on="0"/>
        <pt x="761" y="634" on="0"/>
        <pt x="724" y="608" on="0"/>
        <pt x="707" y="586" on="1"/>
      </contour>
    </TTGlyph>
    <TTGlyph name="Z" xMin="58" yMin="0" xMax="666" yMax="683">
      <contour>
        <pt x="164" y="34" on="1"/>
        <pt x="327" y="34" on="1"/>
        <pt x="396" y="34" on="0"/>
        <pt x="483" y="67" on="0"/>
        <pt x="537" y="127" on="0"/>
        <pt x="567" y="213" on="0"/>
        <pt x="579" y="267" on="1"/>
        <pt x="604" y="267" on="1"/>
        <pt x="543" y="0" on="1"/>
        <pt x="84" y="0" on="1"/>
        <pt x="68" y="0" on="0"/>
        <pt x="58" y="3" on="0"/>
        <pt x="58" y="11" on="1"/>
        <pt x="58" y="20" on="0"/>
        <pt x="64" y="30" on="0"/>
        <pt x="70" y="38" on="1"/>
        <pt x="561" y="652" on="1"/>
        <pt x="406" y="652" on="1"/>
        <pt x="356" y="652" on="0"/>
        <pt x="278" y="632" on="0"/>
        <pt x="221" y="587" on="0"/>
        <pt x="182" y="513" on="0"/>
        <pt x="170" y="458" on="1"/>
        <pt x="145" y="458" on="1"/>
        <pt x="194" y="683" on="1"/>
        <pt x="640" y="683" on="1"/>
        <pt x="655" y="683" on="0"/>
        <pt x="666" y="680" on="0"/>
        <pt x="666" y="672" on="1"/>
        <pt x="666" y="669" on="0"/>
        <pt x="663" y="657" on="0"/>
        <pt x="655" y="647" on="1"/>
      </contour>
    </TTGlyph>
    <TTGlyph name="a" xMin="57" yMin="-11" xMax="517" yMax="448">
      <contour>
        <pt x="517" y="145" on="1"/>
        <pt x="512" y="117" on="0"/>
        <pt x="509" y="97" on="0"/>
        <pt x="507" y="87" on="1"/>
        <pt x="503" y="60" on="0"/>
        <pt x="479" y="24" on="0"/>
        <pt x="451" y="3" on="0"/>
        <pt x="421" y="-6" on="0"/>
        <pt x="410" y="-6" on="1"/>
        <pt x="402" y="-6" on="0"/>
        <pt x="380" y="-1" on="0"/>
        <pt x="360" y="16" on="0"/>
        <pt x="346" y="47" on="0"/>
        <pt x="346" y="73" on="1"/>
        <pt x="343" y="68" on="0"/>
        <pt x="322" y="40" on="0"/>
        <pt x="286" y="11" on="0"/>
        <pt x="235" y="-11" on="0"/>
        <pt x="202" y="-11" on="1"/>
        <pt x="184" y="-11" on="0"/>
        <pt x="134" y="-4" on="0"/>
        <pt x="89" y="17" on="0"/>
        <pt x="57" y="53" on="0"/>
        <pt x="57" y="82" on="1"/>
        <pt x="57" y="117" on="0"/>
        <pt x="99" y="180" on="0"/>
        <pt x="175" y="228" on="0"/>
        <pt x="279" y="258" on="0"/>
        <pt x="341" y="260" on="1"/>
        <pt x="358" y="261" on="0"/>
        <pt x="366" y="261" on="0"/>
        <pt x="368" y="262" on="1"/>
        <pt x="370" y="263" on="0"/>
        <pt x="373" y="282" on="0"/>
        <pt x="377" y="304" on="0"/>
        <pt x="379" y="325" on="0"/>
        <pt x="379" y="329" on="1"/>
        <pt x="379" y="348" on="0"/>
        <pt x="368" y="383" on="0"/>
        <pt x="346" y="410" on="0"/>
        <pt x="313" y="426" on="0"/>
        <pt x="292" y="426" on="1"/>
        <pt x="281" y="426" on="0"/>
        <pt x="251" y="421" on="0"/>
        <pt x="219" y="411" on="0"/>
        <pt x="189" y="393" on="0"/>
        <pt x="177" y="380" on="1"/>
        <pt x="195" y="379" on="0"/>
        <pt x="219" y="360" on="0"/>
        <pt x="219" y="340" on="1"/>
        <pt x="219" y="319" on="0"/>
        <pt x="189" y="288" on="0"/>
        <pt x="167" y="288" on="1"/>
        <pt x="144" y="288" on="0"/>
        <pt x="126" y="314" on="0"/>
        <pt x="126" y="327" on="1"/>
        <pt x="126" y="348" on="0"/>
        <pt x="150" y="391" on="0"/>
        <pt x="195" y="426" on="0"/>
        <pt x="257" y="448" on="0"/>
        <pt x="295" y="448" on="1"/>
        <pt x="327" y="448" on="0"/>
        <pt x="382" y="430" on="0"/>
        <pt x="423" y="397" on="0"/>
        <pt x="447" y="351" on="0"/>
        <pt x="447" y="322" on="1"/>
        <pt x="447" y="314" on="0"/>
        <pt x="440" y="263" on="0"/>
        <pt x="430" y="204" on="0"/>
        <pt x="420" y="150" on="0"/>
        <pt x="418" y="138" on="1"/>
        <pt x="417" y="133" on="0"/>
        <pt x="414" y="112" on="0"/>
        <pt x="410" y="90" on="0"/>
        <pt x="407" y="70" on="0"/>
        <pt x="407" y="66" on="1"/>
        <pt x="407" y="52" on="0"/>
        <pt x="419" y="25" on="0"/>
        <pt x="436" y="25" on="1"/>
        <pt x="447" y="25" on="0"/>
        <pt x="472" y="45" on="0"/>
        <pt x="478" y="68" on="1"/>
        <pt x="479" y="71" on="0"/>
        <pt x="483" y="89" on="0"/>
        <pt x="487" y="111" on="0"/>
        <pt x="491" y="135" on="0"/>
        <pt x="492" y="145" on="1"/>
      </contour>
      <contour>
        <pt x="366" y="240" on="1"/>
        <pt x="308" y="238" on="0"/>
        <pt x="229" y="212" on="0"/>
        <pt x="177" y="177" on="0"/>
        <pt x="149" y="137" on="0"/>
        <pt x="136" y="103" on="0"/>
        <pt x="134" y="80" on="0"/>
        <pt x="134" y="80" on="1"/>
        <pt x="134" y="49" on="0"/>
        <pt x="177" y="11" on="0"/>
        <pt x="209" y="11" on="1"/>
        <pt x="235" y="11" on="0"/>
        <pt x="285" y="34" on="0"/>
        <pt x="303" y="52" on="1"/>
        <pt x="332" y="80" on="0"/>
        <pt x="347" y="127" on="0"/>
        <pt x="351" y="150" on="1"/>
      </contour>
    </TTGlyph>
    <TTGlyph name="acute" xMin="294" yMin="510" xMax="502" yMax="698">
      <contour>
        <pt x="440" y="680" on="1"/>
        <pt x="447" y="687" on="0"/>
        <pt x="461" y="698" on="0"/>
        <pt x="472" y="698" on="1"/>
        <pt x="484" y="698" on="0"/>
        <pt x="502" y="680" on="0"/>
        <pt x="502" y="667" on="1"/>
        <pt x="502" y="653" on="0"/>
        <pt x="487" y="638" on="0"/>
        <pt x="480" y="633" on="1"/>
        <pt x="309" y="510" on="1"/>
        <pt x="307" y="512" on="0"/>
        <pt x="296" y="526" on="0"/>
        <pt x="294" y="528" on="1"/>
      </contour>
    </TTGlyph>
    <TTGlyph name="ae" xMin="59" yMin="-11" xMax="738" yMax="448">
      <contour>
        <pt x="434" y="231" on="1"/>
        <pt x="429" y="208" on="0"/>
        <pt x="426" y="169" on="0"/>
        <pt x="426" y="160" on="1"/>
        <pt x="426" y="88" on="0"/>
        <pt x="495" y="14" on="0"/>
        <pt x="544" y="14" on="1"/>
        <pt x="559" y="14" on="0"/>
        <pt x="597" y="24" on="0"/>
        <pt x="636" y="48" on="0"/>
        <pt x="672" y="88" on="0"/>
        <pt x="686" y="118" on="1"/>
        <pt x="689" y="125" on="0"/>
        <pt x="694" y="131" on="0"/>
        <pt x="701" y="131" on="1"/>
        <pt x="708" y="131" on="0"/>
        <pt x="712" y="122" on="0"/>
        <pt x="712" y="120" on="1"/>
        <pt x="712" y="114" on="0"/>
        <pt x="690" y="72" on="0"/>
        <pt x="646" y="25" on="0"/>
        <pt x="581" y="-11" on="0"/>
        <pt x="538" y="-11" on="1"/>
        <pt x="522" y="-11" on="0"/>
        <pt x="483" y="-4" on="0"/>
        <pt x="442" y="15" on="0"/>
        <pt x="401" y="50" on="0"/>
        <pt x="384" y="78" on="1"/>
        <pt x="372" y="59" on="0"/>
        <pt x="335" y="26" on="0"/>
        <pt x="287" y="2" on="0"/>
        <pt x="233" y="-11" on="0"/>
        <pt x="204" y="-11" on="1"/>
        <pt x="180" y="-11" on="0"/>
        <pt x="128" y="-2" on="0"/>
        <pt x="86" y="19" on="0"/>
        <pt x="59" y="54" on="0"/>
        <pt x="59" y="79" on="1"/>
        <pt x="59" y="111" on="0"/>
        <pt x="100" y="172" on="0"/>
        <pt x="178" y="220" on="0"/>
        <pt x="293" y="250" on="0"/>
        <pt x="366" y="250" on="1"/>
        <pt x="371" y="269" on="1"/>
        <pt x="376" y="301" on="0"/>
        <pt x="379" y="323" on="0"/>
        <pt x="379" y="330" on="1"/>
        <pt x="379" y="348" on="0"/>
        <pt x="368" y="383" on="0"/>
        <pt x="346" y="410" on="0"/>
        <pt x="314" y="426" on="0"/>
        <pt x="293" y="426" on="1"/>
        <pt x="287" y="426" on="0"/>
        <pt x="259" y="423" on="0"/>
        <pt x="226" y="414" on="0"/>
        <pt x="191" y="396" on="0"/>
        <pt x="177" y="380" on="1"/>
        <pt x="195" y="379" on="0"/>
        <pt x="219" y="360" on="0"/>
        <pt x="219" y="340" on="1"/>
        <pt x="219" y="319" on="0"/>
        <pt x="189" y="288" on="0"/>
        <pt x="167" y="288" on="1"/>
        <pt x="144" y="288" on="0"/>
        <pt x="126" y="314" on="0"/>
        <pt x="126" y="327" on="1"/>
        <pt x="126" y="348" on="0"/>
        <pt x="151" y="391" on="0"/>
        <pt x="195" y="426" on="0"/>
        <pt x="258" y="448" on="0"/>
        <pt x="295" y="448" on="1"/>
        <pt x="340" y="448" on="0"/>
        <pt x="418" y="409" on="0"/>
        <pt x="436" y="371" on="1"/>
        <pt x="443" y="379" on="0"/>
        <pt x="472" y="404" on="0"/>
        <pt x="514" y="430" on="0"/>
        <pt x="567" y="448" on="0"/>
        <pt x="598" y="448" on="1"/>
        <pt x="621" y="448" on="0"/>
        <pt x="671" y="435" on="0"/>
        <pt x="712" y="401" on="0"/>
        <pt x="738" y="343" on="0"/>
        <pt x="738" y="297" on="1"/>
        <pt x="738" y="285" on="0"/>
        <pt x="737" y="266" on="0"/>
        <pt x="735" y="250" on="1"/>
        <pt x="733" y="236" on="0"/>
        <pt x="724" y="231" on="0"/>
        <pt x="706" y="231" on="1"/>
      </contour>
      <contour>
        <pt x="669" y="252" on="1"/>
        <pt x="671" y="264" on="0"/>
        <pt x="673" y="278" on="0"/>
        <pt x="674" y="290" on="0"/>
        <pt x="674" y="303" on="0"/>
        <pt x="674" y="313" on="1"/>
        <pt x="674" y="320" on="0"/>
        <pt x="672" y="357" on="0"/>
        <pt x="657" y="396" on="0"/>
        <pt x="626" y="426" on="0"/>
        <pt x="597" y="426" on="1"/>
        <pt x="581" y="426" on="0"/>
        <pt x="535" y="410" on="0"/>
        <pt x="490" y="370" on="0"/>
        <pt x="450" y="303" on="0"/>
        <pt x="439" y="252" on="1"/>
      </contour>
      <contour>
        <pt x="364" y="229" on="1"/>
        <pt x="307" y="226" on="0"/>
        <pt x="229" y="202" on="0"/>
        <pt x="178" y="169" on="0"/>
        <pt x="151" y="131" on="0"/>
        <pt x="138" y="100" on="0"/>
        <pt x="136" y="78" on="0"/>
        <pt x="136" y="77" on="1"/>
        <pt x="136" y="51" on="0"/>
        <pt x="175" y="11" on="0"/>
        <pt x="210" y="11" on="1"/>
        <pt x="241" y="11" on="0"/>
        <pt x="296" y="36" on="0"/>
        <pt x="337" y="76" on="0"/>
        <pt x="361" y="124" on="0"/>
        <pt x="361" y="146" on="1"/>
        <pt x="361" y="152" on="0"/>
        <pt x="359" y="169" on="0"/>
        <pt x="359" y="180" on="1"/>
        <pt x="359" y="197" on="0"/>
        <pt x="363" y="224" on="0"/>
      </contour>
    </TTGlyph>
    <TTGlyph name="ampersand" xMin="62" yMin="-22" xMax="799" yMax="716">
      <contour>
        <pt x="263" y="354" on="1"/>
        <pt x="252" y="397" on="0"/>
        <pt x="249" y="466" on="0"/>
        <pt x="249" y="474" on="1"/>
        <pt x="249" y="511" on="0"/>
        <pt x="256" y="563" on="0"/>
        <pt x="266" y="600" on="0"/>
        <pt x="278" y="624" on="0"/>
        <pt x="283" y="633" on="1"/>
        <pt x="303" y="666" on="0"/>
        <pt x="375" y="716" on="0"/>
        <pt x="417" y="716" on="1"/>
        <pt x="438" y="716" on="0"/>
        <pt x="465" y="698" on="0"/>
        <pt x="481" y="670" on="0"/>
        <pt x="487" y="637" on="0"/>
        <pt x="487" y="621" on="1"/>
        <pt x="487" y="602" on="0"/>
        <pt x="481" y="566" on="0"/>
        <pt x="459" y="523" on="0"/>
        <pt x="417" y="470" on="0"/>
        <pt x="382" y="435" on="1"/>
        <pt x="378" y="431" on="0"/>
        <pt x="363" y="417" on="0"/>
        <pt x="347" y="402" on="0"/>
        <pt x="333" y="389" on="0"/>
        <pt x="328" y="384" on="1"/>
        <pt x="339" y="337" on="0"/>
        <pt x="378" y="243" on="0"/>
        <pt x="417" y="167" on="0"/>
        <pt x="447" y="119" on="0"/>
        <pt x="448" y="118" on="1"/>
        <pt x="468" y="136" on="0"/>
        <pt x="518" y="195" on="0"/>
        <pt x="569" y="259" on="0"/>
        <pt x="615" y="320" on="0"/>
        <pt x="630" y="340" on="1"/>
        <pt x="632" y="342" on="0"/>
        <pt x="638" y="353" on="0"/>
        <pt x="638" y="362" on="1"/>
        <pt x="638" y="376" on="0"/>
        <pt x="619" y="392" on="0"/>
        <pt x="596" y="400" on="0"/>
        <pt x="576" y="401" on="0"/>
        <pt x="574" y="401" on="1"/>
        <pt x="580" y="431" on="1"/>
        <pt x="591" y="430" on="0"/>
        <pt x="631" y="429" on="0"/>
        <pt x="670" y="428" on="0"/>
        <pt x="700" y="428" on="0"/>
        <pt x="702" y="428" on="1"/>
        <pt x="704" y="428" on="0"/>
        <pt x="725" y="428" on="0"/>
        <pt x="753" y="429" on="0"/>
        <pt x="785" y="430" on="0"/>
        <pt x="799" y="431" on="1"/>
        <pt x="797" y="423" on="0"/>
        <pt x="796" y="408" on="0"/>
        <pt x="794" y="400" on="1"/>
        <pt x="762" y="400" on="0"/>
        <pt x="710" y="385" on="0"/>
        <pt x="684" y="364" on="1"/>
        <pt x="672" y="354" on="0"/>
        <pt x="632" y="302" on="0"/>
        <pt x="577" y="229" on="0"/>
        <pt x="506" y="141" on="0"/>
        <pt x="462" y="96" on="1"/>
        <pt x="482" y="69" on="0"/>
        <pt x="516" y="35" on="0"/>
        <pt x="546" y="16" on="0"/>
        <pt x="573" y="9" on="0"/>
        <pt x="585" y="9" on="1"/>
        <pt x="606" y="9" on="0"/>
        <pt x="650" y="25" on="0"/>
        <pt x="686" y="55" on="0"/>
        <pt x="712" y="96" on="0"/>
        <pt x="716" y="121" on="1"/>
        <pt x="741" y="121" on="1"/>
        <pt x="735" y="88" on="0"/>
        <pt x="703" y="36" on="0"/>
        <pt x="658" y="-2" on="0"/>
        <pt x="605" y="-22" on="0"/>
        <pt x="578" y="-22" on="1"/>
        <pt x="567" y="-22" on="0"/>
        <pt x="533" y="-18" on="0"/>
        <pt x="490" y="-3" on="0"/>
        <pt x="440" y="27" on="0"/>
        <pt x="414" y="54" on="1"/>
        <pt x="380" y="26" on="0"/>
        <pt x="281" y="-22" on="0"/>
        <pt x="221" y="-22" on="1"/>
        <pt x="189" y="-22" on="0"/>
        <pt x="131" y="-4" on="0"/>
        <pt x="88" y="30" on="0"/>
        <pt x="62" y="78" on="0"/>
        <pt x="62" y="108" on="1"/>
        <pt x="62" y="129" on="0"/>
        <pt x="73" y="164" on="0"/>
        <pt x="89" y="193" on="0"/>
        <pt x="108" y="214" on="0"/>
        <pt x="116" y="221" on="1"/>
      </contour>
      <contour>
        <pt x="323" y="409" on="1"/>
        <pt x="373" y="455" on="0"/>
        <pt x="429" y="521" on="0"/>
        <pt x="456" y="569" on="0"/>
        <pt x="462" y="606" on="0"/>
        <pt x="462" y="624" on="1"/>
        <pt x="462" y="636" on="0"/>
        <pt x="458" y="661" on="0"/>
        <pt x="449" y="681" on="0"/>
        <pt x="432" y="694" on="0"/>
        <pt x="418" y="694" on="1"/>
        <pt x="410" y="694" on="0"/>
        <pt x="376" y="684" on="0"/>
        <pt x="342" y="644" on="0"/>
        <pt x="316" y="565" on="0"/>
        <pt x="316" y="497" on="1"/>
        <pt x="316" y="490" on="0"/>
        <pt x="318" y="444" on="0"/>
      </contour>
      <contour>
        <pt x="269" y="329" on="1"/>
        <pt x="262" y="323" on="0"/>
        <pt x="240" y="304" on="0"/>
        <pt x="216" y="283" on="0"/>
        <pt x="195" y="260" on="0"/>
        <pt x="188" y="251" on="1"/>
        <pt x="174" y="231" on="0"/>
        <pt x="158" y="189" on="0"/>
        <pt x="150" y="152" on="0"/>
        <pt x="148" y="125" on="0"/>
        <pt x="148" y="120" on="1"/>
        <pt x="148" y="115" on="0"/>
        <pt x="151" y="79" on="0"/>
        <pt x="166" y="40" on="0"/>
        <pt x="200" y="9" on="0"/>
        <pt x="231" y="9" on="1"/>
        <pt x="236" y="9" on="0"/>
        <pt x="266" y="11" on="0"/>
        <pt x="311" y="23" on="0"/>
        <pt x="367" y="50" on="0"/>
        <pt x="397" y="75" on="1"/>
        <pt x="385" y="90" on="0"/>
        <pt x="349" y="145" on="0"/>
        <pt x="312" y="213" on="0"/>
        <pt x="279" y="290" on="0"/>
      </contour>
    </TTGlyph>
    <TTGlyph name="asterisk" xMin="138" yMin="319" xMax="539" yMax="750">
      <contour>
        <pt x="335" y="357" on="1"/>
        <pt x="335" y="353" on="0"/>
        <pt x="333" y="340" on="0"/>
        <pt x="326" y="328" on="0"/>
        <pt x="314" y="319" on="0"/>
        <pt x="303" y="319" on="1"/>
        <pt x="291" y="319" on="0"/>
        <pt x="280" y="333" on="0"/>
        <pt x="280" y="340" on="1"/>
        <pt x="280" y="347" on="0"/>
        <pt x="282" y="355" on="1"/>
        <pt x="324" y="514" on="1"/>
        <pt x="183" y="423" on="1"/>
        <pt x="172" y="415" on="0"/>
        <pt x="166" y="413" on="0"/>
        <pt x="161" y="413" on="1"/>
        <pt x="150" y="413" on="0"/>
        <pt x="138" y="428" on="0"/>
        <pt x="138" y="437" on="1"/>
        <pt x="138" y="451" on="0"/>
        <pt x="155" y="463" on="0"/>
        <pt x="166" y="468" on="1"/>
        <pt x="317" y="535" on="1"/>
        <pt x="189" y="600" on="1"/>
        <pt x="180" y="605" on="0"/>
        <pt x="169" y="614" on="0"/>
        <pt x="169" y="623" on="1"/>
        <pt x="169" y="635" on="0"/>
        <pt x="188" y="656" on="0"/>
        <pt x="201" y="656" on="1"/>
        <pt x="206" y="656" on="0"/>
        <pt x="213" y="653" on="0"/>
        <pt x="223" y="645" on="1"/>
        <pt x="331" y="555" on="1"/>
        <pt x="342" y="712" on="1"/>
        <pt x="342" y="715" on="0"/>
        <pt x="344" y="728" on="0"/>
        <pt x="351" y="740" on="0"/>
        <pt x="363" y="750" on="0"/>
        <pt x="374" y="750" on="1"/>
        <pt x="388" y="750" on="0"/>
        <pt x="398" y="735" on="0"/>
        <pt x="398" y="728" on="1"/>
        <pt x="398" y="724" on="0"/>
        <pt x="396" y="716" on="0"/>
        <pt x="395" y="713" on="1"/>
        <pt x="353" y="555" on="1"/>
        <pt x="494" y="646" on="1"/>
        <pt x="505" y="654" on="0"/>
        <pt x="511" y="656" on="0"/>
        <pt x="516" y="656" on="1"/>
        <pt x="526" y="656" on="0"/>
        <pt x="539" y="642" on="0"/>
        <pt x="539" y="632" on="1"/>
        <pt x="539" y="618" on="0"/>
        <pt x="521" y="605" on="0"/>
        <pt x="512" y="601" on="1"/>
        <pt x="361" y="534" on="1"/>
        <pt x="488" y="469" on="1"/>
        <pt x="496" y="464" on="0"/>
        <pt x="508" y="456" on="0"/>
        <pt x="508" y="446" on="1"/>
        <pt x="508" y="432" on="0"/>
        <pt x="487" y="413" on="0"/>
        <pt x="476" y="413" on="1"/>
        <pt x="472" y="413" on="0"/>
        <pt x="464" y="416" on="0"/>
        <pt x="454" y="424" on="1"/>
        <pt x="347" y="514" on="1"/>
      </contour>
    </TTGlyph>
    <TTGlyph name="at" xMin="109" yMin="-11" xMax="784" yMax="705">
      <contour>
        <pt x="630" y="251" on="1"/>
        <pt x="628" y="235" on="0"/>
        <pt x="621" y="195" on="0"/>
        <pt x="621" y="189" on="1"/>
        <pt x="621" y="172" on="0"/>
        <pt x="632" y="150" on="0"/>
        <pt x="646" y="150" on="1"/>
        <pt x="667" y="150" on="0"/>
        <pt x="697" y="172" on="0"/>
        <pt x="717" y="202" on="0"/>
        <pt x="728" y="233" on="0"/>
        <pt x="731" y="242" on="1"/>
        <pt x="734" y="252" on="0"/>
        <pt x="744" y="291" on="0"/>
        <pt x="753" y="338" on="0"/>
        <pt x="759" y="388" on="0"/>
        <pt x="759" y="409" on="1"/>
        <pt x="759" y="470" on="0"/>
        <pt x="720" y="571" on="0"/>
        <pt x="652" y="643" on="0"/>
        <pt x="558" y="683" on="0"/>
        <pt x="504" y="683" on="1"/>
        <pt x="434" y="683" on="0"/>
        <pt x="301" y="619" on="0"/>
        <pt x="197" y="509" on="0"/>
        <pt x="134" y="365" on="0"/>
        <pt x="134" y="285" on="1"/>
        <pt x="134" y="226" on="0"/>
        <pt x="171" y="125" on="0"/>
        <pt x="239" y="52" on="0"/>
        <pt x="335" y="11" on="0"/>
        <pt x="393" y="11" on="1"/>
        <pt x="441" y="11" on="0"/>
        <pt x="581" y="34" on="0"/>
        <pt x="669" y="71" on="1"/>
        <pt x="680" y="76" on="0"/>
        <pt x="690" y="78" on="0"/>
        <pt x="704" y="78" on="1"/>
        <pt x="721" y="78" on="0"/>
        <pt x="731" y="76" on="0"/>
        <pt x="731" y="68" on="1"/>
        <pt x="731" y="61" on="0"/>
        <pt x="718" y="56" on="1"/>
        <pt x="619" y="16" on="0"/>
        <pt x="453" y="-11" on="0"/>
        <pt x="394" y="-11" on="1"/>
        <pt x="327" y="-11" on="0"/>
        <pt x="222" y="36" on="0"/>
        <pt x="148" y="116" on="0"/>
        <pt x="109" y="224" on="0"/>
        <pt x="109" y="285" on="1"/>
        <pt x="109" y="370" on="0"/>
        <pt x="176" y="522" on="0"/>
        <pt x="287" y="637" on="0"/>
        <pt x="429" y="705" on="0"/>
        <pt x="504" y="705" on="1"/>
        <pt x="564" y="705" on="0"/>
        <pt x="667" y="661" on="0"/>
        <pt x="742" y="583" on="0"/>
        <pt x="784" y="474" on="0"/>
        <pt x="784" y="409" on="1"/>
        <pt x="784" y="385" on="0"/>
        <pt x="777" y="332" on="0"/>
        <pt x="767" y="282" on="0"/>
        <pt x="755" y="240" on="0"/>
        <pt x="750" y="226" on="1"/>
        <pt x="745" y="212" on="0"/>
        <pt x="728" y="178" on="0"/>
        <pt x="703" y="148" on="0"/>
        <pt x="667" y="128" on="0"/>
        <pt x="642" y="128" on="1"/>
        <pt x="628" y="128" on="0"/>
        <pt x="598" y="135" on="0"/>
        <pt x="572" y="152" on="0"/>
        <pt x="554" y="179" on="0"/>
        <pt x="552" y="198" on="1"/>
        <pt x="523" y="164" on="0"/>
        <pt x="448" y="128" on="0"/>
        <pt x="410" y="128" on="1"/>
        <pt x="378" y="128" on="0"/>
        <pt x="318" y="152" on="0"/>
        <pt x="272" y="198" on="0"/>
        <pt x="244" y="266" on="0"/>
        <pt x="244" y="309" on="1"/>
        <pt x="244" y="362" on="0"/>
        <pt x="285" y="455" on="0"/>
        <pt x="352" y="525" on="0"/>
        <pt x="437" y="566" on="0"/>
        <pt x="480" y="566" on="1"/>
        <pt x="495" y="566" on="0"/>
        <pt x="530" y="559" on="0"/>
        <pt x="564" y="539" on="0"/>
        <pt x="596" y="507" on="0"/>
        <pt x="608" y="481" on="1"/>
        <pt x="641" y="481" on="1"/>
        <pt x="655" y="481" on="0"/>
        <pt x="666" y="479" on="0"/>
        <pt x="666" y="471" on="1"/>
        <pt x="666" y="470" on="0"/>
        <pt x="660" y="429" on="0"/>
        <pt x="652" y="380" on="0"/>
        <pt x="644" y="335" on="0"/>
        <pt x="643" y="329" on="1"/>
      </contour>
      <contour>
        <pt x="594" y="451" on="1"/>
        <pt x="582" y="491" on="0"/>
        <pt x="522" y="544" on="0"/>
        <pt x="482" y="544" on="1"/>
        <pt x="449" y="544" on="0"/>
        <pt x="388" y="502" on="0"/>
        <pt x="340" y="433" on="0"/>
        <pt x="311" y="344" on="0"/>
        <pt x="311" y="297" on="1"/>
        <pt x="311" y="268" on="0"/>
        <pt x="325" y="215" on="0"/>
        <pt x="351" y="174" on="0"/>
        <pt x="389" y="150" on="0"/>
        <pt x="413" y="150" on="1"/>
        <pt x="439" y="150" on="0"/>
        <pt x="510" y="181" on="0"/>
        <pt x="544" y="224" on="1"/>
        <pt x="555" y="238" on="0"/>
        <pt x="560" y="248" on="0"/>
        <pt x="562" y="262" on="1"/>
      </contour>
    </TTGlyph>
    <TTGlyph name="b" xMin="106" yMin="-11" xMax="560" yMax="694">
      <contour>
        <pt x="236" y="379" on="1"/>
        <pt x="244" y="387" on="0"/>
        <pt x="270" y="408" on="0"/>
        <pt x="307" y="428" on="0"/>
        <pt x="354" y="442" on="0"/>
        <pt x="381" y="442" on="1"/>
        <pt x="417" y="442" on="0"/>
        <pt x="481" y="416" on="0"/>
        <pt x="531" y="367" on="0"/>
        <pt x="560" y="297" on="0"/>
        <pt x="560" y="253" on="1"/>
        <pt x="560" y="199" on="0"/>
        <pt x="515" y="103" on="0"/>
        <pt x="442" y="31" on="0"/>
        <pt x="348" y="-11" on="0"/>
        <pt x="298" y="-11" on="1"/>
        <pt x="251" y="-11" on="0"/>
        <pt x="193" y="34" on="0"/>
        <pt x="178" y="63" on="1"/>
        <pt x="164" y="44" on="0"/>
        <pt x="147" y="22" on="0"/>
        <pt x="138" y="9" on="0"/>
        <pt x="134" y="5" on="0"/>
        <pt x="134" y="4" on="1"/>
        <pt x="131" y="2" on="0"/>
        <pt x="123" y="0" on="0"/>
        <pt x="106" y="0" on="1"/>
        <pt x="205" y="594" on="1"/>
        <pt x="207" y="608" on="0"/>
        <pt x="208" y="619" on="0"/>
        <pt x="208" y="620" on="1"/>
        <pt x="208" y="640" on="0"/>
        <pt x="180" y="652" on="0"/>
        <pt x="137" y="652" on="1"/>
        <pt x="137" y="653" on="0"/>
        <pt x="138" y="662" on="0"/>
        <pt x="140" y="673" on="0"/>
        <pt x="143" y="681" on="0"/>
        <pt x="144" y="682" on="1"/>
        <pt x="145" y="683" on="0"/>
        <pt x="160" y="684" on="0"/>
        <pt x="162" y="684" on="1"/>
        <pt x="288" y="694" on="1"/>
      </contour>
      <contour>
        <pt x="194" y="113" on="1"/>
        <pt x="193" y="110" on="0"/>
        <pt x="192" y="99" on="0"/>
        <pt x="192" y="96" on="1"/>
        <pt x="192" y="94" on="0"/>
        <pt x="201" y="67" on="0"/>
        <pt x="224" y="36" on="0"/>
        <pt x="264" y="11" on="0"/>
        <pt x="295" y="11" on="1"/>
        <pt x="330" y="11" on="0"/>
        <pt x="406" y="52" on="0"/>
        <pt x="434" y="97" on="1"/>
        <pt x="450" y="122" on="0"/>
        <pt x="468" y="183" on="0"/>
        <pt x="478" y="239" on="0"/>
        <pt x="481" y="282" on="0"/>
        <pt x="481" y="288" on="1"/>
        <pt x="481" y="327" on="0"/>
        <pt x="460" y="378" on="0"/>
        <pt x="429" y="408" on="0"/>
        <pt x="392" y="420" on="0"/>
        <pt x="376" y="420" on="1"/>
        <pt x="338" y="420" on="0"/>
        <pt x="270" y="384" on="0"/>
        <pt x="248" y="358" on="1"/>
        <pt x="236" y="344" on="0"/>
        <pt x="231" y="334" on="0"/>
        <pt x="229" y="320" on="1"/>
      </contour>
    </TTGlyph>
    <TTGlyph name="bracketleft" xMin="76" yMin="-250" xMax="380" yMax="750">
      <contour>
        <pt x="123" y="-210" on="1"/>
        <pt x="220" y="-210" on="1"/>
        <pt x="213" y="-250" on="1"/>
        <pt x="76" y="-250" on="1"/>
        <pt x="243" y="750" on="1"/>
        <pt x="380" y="750" on="1"/>
        <pt x="373" y="710" on="1"/>
        <pt x="276" y="710" on="1"/>
      </contour>
    </TTGlyph>
    <TTGlyph name="bracketright" xMin="-20" yMin="-250" xMax="284" yMax="750">
      <contour>
        <pt x="117" y="-250" on="1"/>
        <pt x="-20" y="-250" on="1"/>
        <pt x="-13" y="-210" on="1"/>
        <pt x="84" y="-210" on="1"/>
        <pt x="237" y="710" on="1"/>
        <pt x="140" y="710" on="1"/>
        <pt x="147" y="750" on="1"/>
        <pt x="284" y="750" on="1"/>
      </contour>
    </TTGlyph>
    <TTGlyph name="breve" xMin="213" yMin="522" xMax="515" yMax="694">
      <contour>
        <pt x="515" y="694" on="1"/>
        <pt x="508" y="656" on="0"/>
        <pt x="473" y="592" on="0"/>
        <pt x="424" y="547" on="0"/>
        <pt x="367" y="522" on="0"/>
        <pt x="337" y="522" on="1"/>
        <pt x="307" y="522" on="0"/>
        <pt x="261" y="544" on="0"/>
        <pt x="230" y="582" on="0"/>
        <pt x="213" y="633" on="0"/>
        <pt x="213" y="661" on="1"/>
        <pt x="213" y="664" on="0"/>
        <pt x="213" y="681" on="0"/>
        <pt x="215" y="689" on="1"/>
        <pt x="216" y="692" on="0"/>
        <pt x="222" y="694" on="0"/>
        <pt x="238" y="694" on="1"/>
        <pt x="236" y="687" on="0"/>
        <pt x="236" y="677" on="0"/>
        <pt x="236" y="671" on="1"/>
        <pt x="236" y="620" on="0"/>
        <pt x="298" y="560" on="0"/>
        <pt x="343" y="560" on="1"/>
        <pt x="369" y="560" on="0"/>
        <pt x="418" y="580" on="0"/>
        <pt x="459" y="616" on="0"/>
        <pt x="488" y="665" on="0"/>
        <pt x="493" y="694" on="1"/>
      </contour>
    </TTGlyph>
    <TTGlyph name="c" xMin="67" yMin="-11" xMax="462" yMax="448">
      <contour>
        <pt x="425" y="386" on="1"/>
        <pt x="414" y="399" on="0"/>
        <pt x="384" y="414" on="0"/>
        <pt x="354" y="421" on="0"/>
        <pt x="329" y="423" on="0"/>
        <pt x="324" y="423" on="1"/>
        <pt x="285" y="423" on="0"/>
        <pt x="220" y="378" on="0"/>
        <pt x="174" y="303" on="0"/>
        <pt x="148" y="208" on="0"/>
        <pt x="148" y="157" on="1"/>
        <pt x="148" y="117" on="0"/>
        <pt x="169" y="62" on="0"/>
        <pt x="201" y="28" on="0"/>
        <pt x="241" y="14" on="0"/>
        <pt x="259" y="14" on="1"/>
        <pt x="303" y="14" on="0"/>
        <pt x="382" y="64" on="0"/>
        <pt x="407" y="115" on="1"/>
        <pt x="412" y="124" on="0"/>
        <pt x="416" y="129" on="0"/>
        <pt x="422" y="129" on="1"/>
        <pt x="426" y="129" on="0"/>
        <pt x="434" y="125" on="0"/>
        <pt x="434" y="119" on="1"/>
        <pt x="434" y="116" on="0"/>
        <pt x="414" y="74" on="0"/>
        <pt x="370" y="27" on="0"/>
        <pt x="299" y="-11" on="0"/>
        <pt x="249" y="-11" on="1"/>
        <pt x="212" y="-11" on="0"/>
        <pt x="145" y="16" on="0"/>
        <pt x="96" y="66" on="0"/>
        <pt x="67" y="135" on="0"/>
        <pt x="67" y="178" on="1"/>
        <pt x="67" y="230" on="0"/>
        <pt x="109" y="328" on="0"/>
        <pt x="179" y="403" on="0"/>
        <pt x="273" y="448" on="0"/>
        <pt x="324" y="448" on="1"/>
        <pt x="349" y="448" on="0"/>
        <pt x="398" y="437" on="0"/>
        <pt x="437" y="413" on="0"/>
        <pt x="462" y="377" on="0"/>
        <pt x="462" y="353" on="1"/>
        <pt x="462" y="323" on="0"/>
        <pt x="428" y="294" on="0"/>
        <pt x="409" y="294" on="1"/>
        <pt x="386" y="294" on="0"/>
        <pt x="368" y="320" on="0"/>
        <pt x="368" y="333" on="1"/>
        <pt x="368" y="337" on="0"/>
        <pt x="371" y="354" on="0"/>
        <pt x="383" y="371" on="0"/>
        <pt x="406" y="385" on="0"/>
      </contour>
    </TTGlyph>
    <TTGlyph name="caron" xMin="221" yMin="516" xMax="484" yMax="638">
      <contour>
        <pt x="473" y="638" on="1"/>
        <pt x="484" y="618" on="1"/>
        <pt x="336" y="516" on="1"/>
        <pt x="221" y="618" on="1"/>
        <pt x="239" y="638" on="1"/>
        <pt x="344" y="569" on="1"/>
      </contour>
    </TTGlyph>
    <TTGlyph name="cedilla" xMin="98" yMin="-203" xMax="347" yMax="-22">
      <contour>
        <pt x="275" y="-55" on="1"/>
        <pt x="281" y="-56" on="0"/>
        <pt x="305" y="-62" on="0"/>
        <pt x="329" y="-75" on="0"/>
        <pt x="347" y="-97" on="0"/>
        <pt x="347" y="-115" on="1"/>
        <pt x="347" y="-163" on="0"/>
        <pt x="240" y="-203" on="0"/>
        <pt x="139" y="-203" on="1"/>
        <pt x="98" y="-203" on="1"/>
        <pt x="101" y="-181" on="1"/>
        <pt x="130" y="-181" on="1"/>
        <pt x="153" y="-181" on="0"/>
        <pt x="204" y="-177" on="0"/>
        <pt x="249" y="-165" on="0"/>
        <pt x="278" y="-140" on="0"/>
        <pt x="278" y="-119" on="1"/>
        <pt x="278" y="-103" on="0"/>
        <pt x="259" y="-84" on="0"/>
        <pt x="234" y="-74" on="0"/>
        <pt x="209" y="-70" on="0"/>
        <pt x="203" y="-70" on="1"/>
        <pt x="211" y="-22" on="1"/>
        <pt x="280" y="-22" on="1"/>
      </contour>
    </TTGlyph>
    <TTGlyph name="circumflex" xMin="210" yMin="540" xMax="476" yMax="694">
      <contour>
        <pt x="476" y="558" on="1"/>
        <pt x="455" y="540" on="1"/>
        <pt x="356" y="641" on="1"/>
        <pt x="224" y="540" on="1"/>
        <pt x="210" y="559" on="1"/>
        <pt x="365" y="694" on="1"/>
      </contour>
    </TTGlyph>
    <TTGlyph name="colon" xMin="94" yMin="0" xMax="256" yMax="431">
      <contour>
        <pt x="256" y="385" on="1"/>
        <pt x="256" y="362" on="0"/>
        <pt x="220" y="325" on="0"/>
        <pt x="195" y="325" on="1"/>
        <pt x="172" y="325" on="0"/>
        <pt x="148" y="354" on="0"/>
        <pt x="148" y="371" on="1"/>
        <pt x="148" y="394" on="0"/>
        <pt x="184" y="431" on="0"/>
        <pt x="209" y="431" on="1"/>
        <pt x="232" y="431" on="0"/>
        <pt x="256" y="402" on="0"/>
      </contour>
      <contour>
        <pt x="201" y="60" on="1"/>
        <pt x="201" y="34" on="0"/>
        <pt x="163" y="0" on="0"/>
        <pt x="141" y="0" on="1"/>
        <pt x="118" y="0" on="0"/>
        <pt x="94" y="29" on="0"/>
        <pt x="94" y="46" on="1"/>
        <pt x="94" y="69" on="0"/>
        <pt x="129" y="106" on="0"/>
        <pt x="155" y="106" on="1"/>
        <pt x="171" y="106" on="0"/>
        <pt x="201" y="84" on="0"/>
      </contour>
    </TTGlyph>
    <TTGlyph name="comma" xMin="71" yMin="-193" xMax="206" yMax="106">
      <contour>
        <pt x="183" y="17" on="1"/>
        <pt x="178" y="11" on="0"/>
        <pt x="155" y="0" on="0"/>
        <pt x="141" y="0" on="1"/>
        <pt x="115" y="0" on="0"/>
        <pt x="94" y="31" on="0"/>
        <pt x="94" y="45" on="1"/>
        <pt x="94" y="67" on="0"/>
        <pt x="126" y="106" on="0"/>
        <pt x="155" y="106" on="1"/>
        <pt x="174" y="106" on="0"/>
        <pt x="195" y="87" on="0"/>
        <pt x="204" y="61" on="0"/>
        <pt x="206" y="38" on="0"/>
        <pt x="206" y="33" on="1"/>
        <pt x="206" y="-13" on="0"/>
        <pt x="171" y="-95" on="0"/>
        <pt x="127" y="-157" on="0"/>
        <pt x="87" y="-193" on="0"/>
        <pt x="82" y="-193" on="1"/>
        <pt x="71" y="-193" on="0"/>
        <pt x="71" y="-182" on="1"/>
        <pt x="71" y="-177" on="0"/>
        <pt x="77" y="-173" on="1"/>
        <pt x="95" y="-158" on="0"/>
        <pt x="129" y="-119" on="0"/>
        <pt x="158" y="-73" on="0"/>
        <pt x="179" y="-16" on="0"/>
      </contour>
    </TTGlyph>
    <TTGlyph name="d" xMin="67" yMin="-11" xMax="565" yMax="694">
      <contour>
        <pt x="464" y="90" on="1"/>
        <pt x="462" y="76" on="0"/>
        <pt x="461" y="65" on="0"/>
        <pt x="461" y="63" on="1"/>
        <pt x="461" y="43" on="0"/>
        <pt x="488" y="31" on="0"/>
        <pt x="532" y="31" on="1"/>
        <pt x="532" y="30" on="0"/>
        <pt x="531" y="21" on="0"/>
        <pt x="529" y="10" on="0"/>
        <pt x="526" y="2" on="0"/>
        <pt x="525" y="1" on="1"/>
        <pt x="524" y="0" on="0"/>
        <pt x="509" y="-1" on="0"/>
        <pt x="507" y="-1" on="1"/>
        <pt x="378" y="-11" on="1"/>
        <pt x="388" y="53" on="1"/>
        <pt x="385" y="50" on="0"/>
        <pt x="363" y="30" on="0"/>
        <pt x="326" y="7" on="0"/>
        <pt x="276" y="-11" on="0"/>
        <pt x="246" y="-11" on="1"/>
        <pt x="211" y="-11" on="0"/>
        <pt x="146" y="15" on="0"/>
        <pt x="97" y="63" on="0"/>
        <pt x="67" y="133" on="0"/>
        <pt x="67" y="178" on="1"/>
        <pt x="67" y="233" on="0"/>
        <pt x="112" y="329" on="0"/>
        <pt x="186" y="401" on="0"/>
        <pt x="280" y="442" on="0"/>
        <pt x="329" y="442" on="1"/>
        <pt x="356" y="442" on="0"/>
        <pt x="397" y="427" on="0"/>
        <pt x="425" y="406" on="0"/>
        <pt x="442" y="385" on="0"/>
        <pt x="446" y="379" on="1"/>
        <pt x="482" y="594" on="1"/>
        <pt x="484" y="608" on="0"/>
        <pt x="485" y="619" on="0"/>
        <pt x="485" y="620" on="1"/>
        <pt x="485" y="640" on="0"/>
        <pt x="457" y="652" on="0"/>
        <pt x="414" y="652" on="1"/>
        <pt x="414" y="653" on="0"/>
        <pt x="415" y="662" on="0"/>
        <pt x="417" y="673" on="0"/>
        <pt x="420" y="681" on="0"/>
        <pt x="421" y="682" on="1"/>
        <pt x="422" y="683" on="0"/>
        <pt x="437" y="684" on="0"/>
        <pt x="439" y="684" on="1"/>
        <pt x="565" y="694" on="1"/>
      </contour>
      <contour>
        <pt x="434" y="325" on="1"/>
        <pt x="436" y="333" on="0"/>
        <pt x="436" y="339" on="0"/>
        <pt x="436" y="341" on="1"/>
        <pt x="436" y="343" on="0"/>
        <pt x="426" y="369" on="0"/>
        <pt x="402" y="397" on="0"/>
        <pt x="362" y="420" on="0"/>
        <pt x="332" y="420" on="1"/>
        <pt x="301" y="420" on="0"/>
        <pt x="229" y="384" on="0"/>
        <pt x="200" y="345" on="1"/>
        <pt x="182" y="319" on="0"/>
        <pt x="160" y="254" on="0"/>
        <pt x="149" y="195" on="0"/>
        <pt x="146" y="150" on="0"/>
        <pt x="146" y="143" on="1"/>
        <pt x="146" y="103" on="0"/>
        <pt x="168" y="51" on="0"/>
        <pt x="200" y="22" on="0"/>
        <pt x="236" y="11" on="0"/>
        <pt x="251" y="11" on="1"/>
        <pt x="289" y="11" on="0"/>
        <pt x="356" y="49" on="0"/>
        <pt x="379" y="77" on="1"/>
        <pt x="385" y="85" on="0"/>
        <pt x="392" y="94" on="0"/>
        <pt x="396" y="102" on="0"/>
        <pt x="398" y="111" on="0"/>
        <pt x="399" y="118" on="1"/>
      </contour>
    </TTGlyph>
    <TTGlyph name="dieresis" xMin="205" yMin="569" xMax="500" yMax="669">
      <contour>
        <pt x="306" y="625" on="1"/>
        <pt x="306" y="599" on="0"/>
        <pt x="269" y="569" on="0"/>
        <pt x="250" y="569" on="1"/>
        <pt x="226" y="569" on="0"/>
        <pt x="205" y="599" on="0"/>
        <pt x="205" y="613" on="1"/>
        <pt x="205" y="633" on="0"/>
        <pt x="238" y="669" on="0"/>
        <pt x="262" y="669" on="1"/>
        <pt x="278" y="669" on="0"/>
        <pt x="306" y="648" on="0"/>
      </contour>
      <contour>
        <pt x="500" y="625" on="1"/>
        <pt x="500" y="603" on="0"/>
        <pt x="466" y="569" on="0"/>
        <pt x="443" y="569" on="1"/>
        <pt x="426" y="569" on="0"/>
        <pt x="399" y="593" on="0"/>
        <pt x="399" y="613" on="1"/>
        <pt x="399" y="635" on="0"/>
        <pt x="433" y="669" on="0"/>
        <pt x="456" y="669" on="1"/>
        <pt x="475" y="669" on="0"/>
        <pt x="500" y="644" on="0"/>
      </contour>
    </TTGlyph>
    <TTGlyph name="dollar" xMin="83" yMin="-56" xMax="534" yMax="750">
      <contour>
        <pt x="332" y="402" on="1"/>
        <pt x="349" y="398" on="0"/>
        <pt x="376" y="390" on="0"/>
        <pt x="401" y="379" on="0"/>
        <pt x="425" y="361" on="0"/>
        <pt x="438" y="347" on="1"/>
        <pt x="440" y="345" on="0"/>
        <pt x="453" y="328" on="0"/>
        <pt x="467" y="298" on="0"/>
        <pt x="478" y="256" on="0"/>
        <pt x="478" y="229" on="1"/>
        <pt x="478" y="184" on="0"/>
        <pt x="443" y="101" on="0"/>
        <pt x="385" y="35" on="0"/>
        <pt x="307" y="-7" on="0"/>
        <pt x="263" y="-10" on="1"/>
        <pt x="256" y="-56" on="1"/>
        <pt x="225" y="-56" on="1"/>
        <pt x="232" y="-10" on="1"/>
        <pt x="203" y="-9" on="0"/>
        <pt x="149" y="10" on="0"/>
        <pt x="108" y="48" on="0"/>
        <pt x="83" y="105" on="0"/>
        <pt x="83" y="144" on="1"/>
        <pt x="83" y="152" on="0"/>
        <pt x="85" y="180" on="0"/>
        <pt x="95" y="208" on="0"/>
        <pt x="117" y="229" on="0"/>
        <pt x="138" y="229" on="1"/>
        <pt x="143" y="229" on="0"/>
        <pt x="157" y="226" on="0"/>
        <pt x="170" y="217" on="0"/>
        <pt x="179" y="201" on="0"/>
        <pt x="179" y="189" on="1"/>
        <pt x="179" y="171" on="0"/>
        <pt x="152" y="137" on="0"/>
        <pt x="126" y="137" on="1"/>
        <pt x="116" y="137" on="0"/>
        <pt x="108" y="140" on="1"/>
        <pt x="109" y="111" on="0"/>
        <pt x="130" y="67" on="0"/>
        <pt x="165" y="37" on="0"/>
        <pt x="211" y="22" on="0"/>
        <pt x="237" y="20" on="1"/>
        <pt x="287" y="319" on="1"/>
        <pt x="269" y="324" on="0"/>
        <pt x="240" y="333" on="0"/>
        <pt x="216" y="344" on="0"/>
        <pt x="194" y="359" on="0"/>
        <pt x="182" y="371" on="1"/>
        <pt x="162" y="392" on="0"/>
        <pt x="139" y="451" on="0"/>
        <pt x="139" y="483" on="1"/>
        <pt x="139" y="513" on="0"/>
        <pt x="162" y="584" on="0"/>
        <pt x="212" y="647" on="0"/>
        <pt x="291" y="696" on="0"/>
        <pt x="346" y="704" on="1"/>
        <pt x="351" y="705" on="0"/>
        <pt x="352" y="709" on="1"/>
        <pt x="353" y="711" on="0"/>
        <pt x="353" y="720" on="0"/>
        <pt x="354" y="722" on="1"/>
        <pt x="359" y="750" on="1"/>
        <pt x="390" y="750" on="1"/>
        <pt x="383" y="704" on="1"/>
        <pt x="454" y="701" on="0"/>
        <pt x="534" y="623" on="0"/>
        <pt x="534" y="560" on="1"/>
        <pt x="534" y="554" on="0"/>
        <pt x="532" y="527" on="0"/>
        <pt x="522" y="500" on="0"/>
        <pt x="500" y="479" on="0"/>
        <pt x="479" y="479" on="1"/>
        <pt x="464" y="479" on="0"/>
        <pt x="438" y="498" on="0"/>
        <pt x="438" y="518" on="1"/>
        <pt x="438" y="541" on="0"/>
        <pt x="468" y="571" on="0"/>
        <pt x="490" y="571" on="1"/>
        <pt x="494" y="571" on="0"/>
        <pt x="504" y="570" on="0"/>
        <pt x="508" y="568" on="1"/>
        <pt x="506" y="595" on="0"/>
        <pt x="482" y="635" on="0"/>
        <pt x="446" y="660" on="0"/>
        <pt x="401" y="673" on="0"/>
        <pt x="377" y="674" on="1"/>
      </contour>
      <contour>
        <pt x="346" y="673" on="1"/>
        <pt x="314" y="669" on="0"/>
        <pt x="259" y="641" on="0"/>
        <pt x="219" y="600" on="0"/>
        <pt x="196" y="549" on="0"/>
        <pt x="196" y="522" on="1"/>
        <pt x="196" y="489" on="0"/>
        <pt x="222" y="448" on="0"/>
        <pt x="256" y="423" on="0"/>
        <pt x="292" y="412" on="0"/>
        <pt x="302" y="410" on="1"/>
      </contour>
      <contour>
        <pt x="269" y="21" on="1"/>
        <pt x="304" y="26" on="0"/>
        <pt x="360" y="59" on="0"/>
        <pt x="400" y="107" on="0"/>
        <pt x="422" y="163" on="0"/>
        <pt x="422" y="191" on="1"/>
        <pt x="422" y="220" on="0"/>
        <pt x="404" y="262" on="0"/>
        <pt x="374" y="291" on="0"/>
        <pt x="337" y="307" on="0"/>
        <pt x="317" y="311" on="1"/>
      </contour>
    </TTGlyph>
    <TTGlyph name="dotaccent" xMin="188" yMin="563" xMax="295" yMax="669">
      <contour>
        <pt x="295" y="623" on="1"/>
        <pt x="295" y="600" on="0"/>
        <pt x="258" y="563" on="0"/>
        <pt x="235" y="563" on="1"/>
        <pt x="218" y="563" on="0"/>
        <pt x="188" y="585" on="0"/>
        <pt x="188" y="610" on="1"/>
        <pt x="188" y="635" on="0"/>
        <pt x="226" y="669" on="0"/>
        <pt x="248" y="669" on="1"/>
        <pt x="271" y="669" on="0"/>
        <pt x="295" y="640" on="0"/>
      </contour>
    </TTGlyph>
    <TTGlyph name="dotlessi" xMin="33" yMin="0" xMax="252" yMax="442">
      <contour>
        <pt x="187" y="55" on="1"/>
        <pt x="187" y="37" on="0"/>
        <pt x="218" y="31" on="0"/>
        <pt x="252" y="31" on="1"/>
        <pt x="251" y="24" on="0"/>
        <pt x="248" y="6" on="0"/>
        <pt x="247" y="0" on="1"/>
        <pt x="221" y="1" on="0"/>
        <pt x="169" y="3" on="0"/>
        <pt x="143" y="3" on="1"/>
        <pt x="134" y="3" on="0"/>
        <pt x="106" y="2" on="0"/>
        <pt x="76" y="1" on="0"/>
        <pt x="45" y="0" on="0"/>
        <pt x="33" y="0" on="1"/>
        <pt x="35" y="8" on="0"/>
        <pt x="36" y="23" on="0"/>
        <pt x="38" y="31" on="1"/>
        <pt x="77" y="31" on="0"/>
        <pt x="115" y="38" on="0"/>
        <pt x="120" y="59" on="1"/>
        <pt x="121" y="61" on="0"/>
        <pt x="128" y="99" on="0"/>
        <pt x="130" y="113" on="1"/>
        <pt x="131" y="121" on="0"/>
        <pt x="138" y="163" on="0"/>
        <pt x="147" y="218" on="0"/>
        <pt x="157" y="279" on="0"/>
        <pt x="166" y="330" on="0"/>
        <pt x="171" y="366" on="0"/>
        <pt x="171" y="368" on="1"/>
        <pt x="171" y="388" on="0"/>
        <pt x="145" y="400" on="0"/>
        <pt x="104" y="400" on="1"/>
        <pt x="105" y="405" on="0"/>
        <pt x="107" y="417" on="0"/>
        <pt x="110" y="431" on="1"/>
        <pt x="251" y="442" on="1"/>
      </contour>
    </TTGlyph>
    <TTGlyph name="e" xMin="61" yMin="-11" xMax="460" yMax="448">
      <contour>
        <pt x="150" y="231" on="1"/>
        <pt x="148" y="220" on="0"/>
        <pt x="141" y="174" on="0"/>
        <pt x="141" y="151" on="1"/>
        <pt x="141" y="111" on="0"/>
        <pt x="163" y="58" on="0"/>
        <pt x="197" y="26" on="0"/>
        <pt x="237" y="14" on="0"/>
        <pt x="254" y="14" on="1"/>
        <pt x="264" y="14" on="0"/>
        <pt x="301" y="20" on="0"/>
        <pt x="345" y="42" on="0"/>
        <pt x="390" y="83" on="0"/>
        <pt x="408" y="117" on="1"/>
        <pt x="412" y="125" on="0"/>
        <pt x="417" y="131" on="0"/>
        <pt x="423" y="131" on="1"/>
        <pt x="430" y="131" on="0"/>
        <pt x="434" y="123" on="0"/>
        <pt x="434" y="120" on="1"/>
        <pt x="434" y="114" on="0"/>
        <pt x="410" y="71" on="0"/>
        <pt x="364" y="25" on="0"/>
        <pt x="294" y="-11" on="0"/>
        <pt x="248" y="-11" on="1"/>
        <pt x="209" y="-11" on="0"/>
        <pt x="140" y="18" on="0"/>
        <pt x="90" y="69" on="0"/>
        <pt x="61" y="140" on="0"/>
        <pt x="61" y="182" on="1"/>
        <pt x="61" y="231" on="0"/>
        <pt x="101" y="327" on="0"/>
        <pt x="168" y="402" on="0"/>
        <pt x="258" y="448" on="0"/>
        <pt x="309" y="448" on="1"/>
        <pt x="336" y="448" on="0"/>
        <pt x="390" y="433" on="0"/>
        <pt x="433" y="397" on="0"/>
        <pt x="460" y="338" on="0"/>
        <pt x="460" y="294" on="1"/>
        <pt x="460" y="289" on="0"/>
        <pt x="459" y="267" on="0"/>
        <pt x="457" y="250" on="1"/>
        <pt x="455" y="236" on="0"/>
        <pt x="446" y="231" on="0"/>
        <pt x="428" y="231" on="1"/>
      </contour>
      <contour>
        <pt x="390" y="252" on="1"/>
        <pt x="393" y="272" on="0"/>
        <pt x="395" y="292" on="0"/>
        <pt x="395" y="308" on="1"/>
        <pt x="395" y="316" on="0"/>
        <pt x="392" y="354" on="0"/>
        <pt x="376" y="395" on="0"/>
        <pt x="341" y="426" on="0"/>
        <pt x="308" y="426" on="1"/>
        <pt x="299" y="426" on="0"/>
        <pt x="258" y="416" on="0"/>
        <pt x="212" y="381" on="0"/>
        <pt x="167" y="312" on="0"/>
        <pt x="154" y="252" on="1"/>
      </contour>
    </TTGlyph>
    <TTGlyph name="eight" xMin="65" yMin="-22" xMax="518" yMax="666">
      <contour>
        <pt x="207" y="362" on="1"/>
        <pt x="176" y="385" on="0"/>
        <pt x="150" y="446" on="0"/>
        <pt x="150" y="475" on="1"/>
        <pt x="150" y="513" on="0"/>
        <pt x="184" y="582" on="0"/>
        <pt x="242" y="634" on="0"/>
        <pt x="317" y="666" on="0"/>
        <pt x="359" y="666" on="1"/>
        <pt x="391" y="666" on="0"/>
        <pt x="448" y="648" on="0"/>
        <pt x="492" y="615" on="0"/>
        <pt x="518" y="567" on="0"/>
        <pt x="518" y="537" on="1"/>
        <pt x="518" y="499" on="0"/>
        <pt x="482" y="440" on="0"/>
        <pt x="433" y="397" on="0"/>
        <pt x="383" y="369" on="0"/>
        <pt x="369" y="362" on="1"/>
        <pt x="376" y="357" on="0"/>
        <pt x="403" y="337" on="0"/>
        <pt x="411" y="332" on="1"/>
        <pt x="421" y="325" on="0"/>
        <pt x="447" y="303" on="0"/>
        <pt x="471" y="270" on="0"/>
        <pt x="487" y="225" on="0"/>
        <pt x="487" y="195" on="1"/>
        <pt x="487" y="151" on="0"/>
        <pt x="447" y="72" on="0"/>
        <pt x="380" y="13" on="0"/>
        <pt x="294" y="-22" on="0"/>
        <pt x="247" y="-22" on="1"/>
        <pt x="211" y="-22" on="0"/>
        <pt x="145" y="-1" on="0"/>
        <pt x="95" y="38" on="0"/>
        <pt x="65" y="93" on="0"/>
        <pt x="65" y="127" on="1"/>
        <pt x="65" y="175" on="0"/>
        <pt x="110" y="247" on="0"/>
        <pt x="170" y="298" on="0"/>
        <pt x="229" y="330" on="0"/>
        <pt x="243" y="336" on="1"/>
      </contour>
      <contour>
        <pt x="347" y="377" on="1"/>
        <pt x="401" y="404" on="0"/>
        <pt x="474" y="488" on="0"/>
        <pt x="474" y="538" on="1"/>
        <pt x="474" y="582" on="0"/>
        <pt x="410" y="641" on="0"/>
        <pt x="357" y="641" on="1"/>
        <pt x="326" y="641" on="0"/>
        <pt x="269" y="622" on="0"/>
        <pt x="226" y="589" on="0"/>
        <pt x="201" y="546" on="0"/>
        <pt x="201" y="523" on="1"/>
        <pt x="201" y="493" on="0"/>
        <pt x="235" y="459" on="0"/>
        <pt x="261" y="440" on="1"/>
      </contour>
      <contour>
        <pt x="265" y="320" on="1"/>
        <pt x="232" y="305" on="0"/>
        <pt x="177" y="262" on="0"/>
        <pt x="137" y="211" on="0"/>
        <pt x="115" y="155" on="0"/>
        <pt x="115" y="127" on="1"/>
        <pt x="115" y="101" on="0"/>
        <pt x="135" y="57" on="0"/>
        <pt x="171" y="24" on="0"/>
        <pt x="220" y="6" on="0"/>
        <pt x="250" y="6" on="1"/>
        <pt x="285" y="6" on="0"/>
        <pt x="350" y="29" on="0"/>
        <pt x="401" y="69" on="0"/>
        <pt x="431" y="121" on="0"/>
        <pt x="431" y="151" on="1"/>
        <pt x="431" y="169" on="0"/>
        <pt x="420" y="197" on="0"/>
        <pt x="403" y="219" on="0"/>
        <pt x="382" y="236" on="0"/>
        <pt x="371" y="244" on="1"/>
      </contour>
    </TTGlyph>
    <TTGlyph name="emdash" xMin="43" yMin="255" xMax="1045" yMax="277">
      <contour>
        <pt x="1042" y="255" on="1"/>
        <pt x="43" y="255" on="1"/>
        <pt x="46" y="277" on="1"/>
        <pt x="1045" y="277" on="1"/>
      </contour>
    </TTGlyph>
    <TTGlyph name="endash" xMin="43" yMin="255" xMax="545" yMax="277">
      <contour>
        <pt x="542" y="255" on="1"/>
        <pt x="43" y="255" on="1"/>
        <pt x="46" y="277" on="1"/>
        <pt x="545" y="277" on="1"/>
      </contour>
    </TTGlyph>
    <TTGlyph name="equal" xMin="82" yMin="133" xMax="779" yMax="367">
      <contour>
        <pt x="149" y="327" on="1"/>
        <pt x="136" y="327" on="0"/>
        <pt x="114" y="332" on="0"/>
        <pt x="114" y="347" on="1"/>
        <pt x="114" y="362" on="0"/>
        <pt x="136" y="367" on="0"/>
        <pt x="149" y="367" on="1"/>
        <pt x="743" y="367" on="1"/>
        <pt x="756" y="367" on="0"/>
        <pt x="779" y="362" on="0"/>
        <pt x="779" y="347" on="1"/>
        <pt x="779" y="332" on="0"/>
        <pt x="756" y="327" on="0"/>
        <pt x="743" y="327" on="1"/>
      </contour>
      <contour>
        <pt x="117" y="133" on="1"/>
        <pt x="104" y="133" on="0"/>
        <pt x="82" y="138" on="0"/>
        <pt x="82" y="153" on="1"/>
        <pt x="82" y="168" on="0"/>
        <pt x="103" y="173" on="0"/>
        <pt x="117" y="173" on="1"/>
        <pt x="711" y="173" on="1"/>
        <pt x="723" y="173" on="0"/>
        <pt x="746" y="168" on="0"/>
        <pt x="746" y="153" on="1"/>
        <pt x="746" y="138" on="0"/>
        <pt x="723" y="133" on="0"/>
        <pt x="711" y="133" on="1"/>
      </contour>
    </TTGlyph>
    <TTGlyph name="exclam" xMin="94" yMin="0" xMax="304" yMax="716">
      <contour>
        <pt x="187" y="207" on="1"/>
        <pt x="184" y="194" on="0"/>
        <pt x="180" y="187" on="0"/>
        <pt x="172" y="187" on="1"/>
        <pt x="170" y="187" on="0"/>
        <pt x="159" y="190" on="0"/>
        <pt x="159" y="198" on="1"/>
        <pt x="161" y="214" on="1"/>
        <pt x="196" y="656" on="1"/>
        <pt x="198" y="679" on="0"/>
        <pt x="217" y="703" on="0"/>
        <pt x="238" y="714" on="0"/>
        <pt x="256" y="716" on="0"/>
        <pt x="257" y="716" on="1"/>
        <pt x="277" y="716" on="0"/>
        <pt x="304" y="690" on="0"/>
        <pt x="304" y="672" on="1"/>
        <pt x="304" y="667" on="0"/>
        <pt x="302" y="659" on="0"/>
        <pt x="301" y="654" on="1"/>
      </contour>
      <contour>
        <pt x="201" y="59" on="1"/>
        <pt x="201" y="33" on="0"/>
        <pt x="163" y="0" on="0"/>
        <pt x="141" y="0" on="1"/>
        <pt x="118" y="0" on="0"/>
        <pt x="94" y="29" on="0"/>
        <pt x="94" y="46" on="1"/>
        <pt x="94" y="69" on="0"/>
        <pt x="131" y="106" on="0"/>
        <pt x="154" y="106" on="1"/>
        <pt x="171" y="106" on="0"/>
        <pt x="201" y="84" on="0"/>
      </contour>
    </TTGlyph>
    <TTGlyph name="exclamdown" xMin="58" yMin="-216" xMax="267" yMax="500">
      <contour>
        <pt x="267" y="454" on="1"/>
        <pt x="267" y="429" on="0"/>
        <pt x="230" y="394" on="0"/>
        <pt x="207" y="394" on="1"/>
        <pt x="186" y="394" on="0"/>
        <pt x="160" y="421" on="0"/>
        <pt x="160" y="440" on="1"/>
        <pt x="160" y="465" on="0"/>
        <pt x="197" y="500" on="0"/>
        <pt x="220" y="500" on="1"/>
        <pt x="241" y="500" on="0"/>
        <pt x="267" y="473" on="0"/>
      </contour>
      <contour>
        <pt x="175" y="294" on="1"/>
        <pt x="178" y="307" on="0"/>
        <pt x="182" y="313" on="0"/>
        <pt x="190" y="313" on="1"/>
        <pt x="200" y="313" on="0"/>
        <pt x="202" y="299" on="0"/>
        <pt x="201" y="288" on="1"/>
        <pt x="166" y="-154" on="1"/>
        <pt x="164" y="-176" on="0"/>
        <pt x="146" y="-201" on="0"/>
        <pt x="125" y="-213" on="0"/>
        <pt x="107" y="-216" on="0"/>
        <pt x="105" y="-216" on="1"/>
        <pt x="88" y="-216" on="0"/>
        <pt x="58" y="-195" on="0"/>
        <pt x="58" y="-172" on="1"/>
        <pt x="58" y="-169" on="0"/>
        <pt x="59" y="-162" on="0"/>
        <pt x="63" y="-148" on="1"/>
      </contour>
    </TTGlyph>
    <TTGlyph name="f" xMin="34" yMin="0" xMax="463" yMax="705">
      <contour>
        <pt x="191" y="78" on="1"/>
        <pt x="189" y="67" on="0"/>
        <pt x="188" y="61" on="0"/>
        <pt x="188" y="59" on="1"/>
        <pt x="188" y="42" on="0"/>
        <pt x="209" y="35" on="0"/>
        <pt x="222" y="33" on="1"/>
        <pt x="236" y="31" on="0"/>
        <pt x="260" y="31" on="0"/>
        <pt x="280" y="31" on="1"/>
        <pt x="275" y="0" on="1"/>
        <pt x="263" y="1" on="0"/>
        <pt x="222" y="2" on="0"/>
        <pt x="182" y="3" on="0"/>
        <pt x="151" y="3" on="0"/>
        <pt x="149" y="3" on="1"/>
        <pt x="127" y="3" on="0"/>
        <pt x="64" y="1" on="0"/>
        <pt x="34" y="0" on="1"/>
        <pt x="39" y="31" on="1"/>
        <pt x="64" y="31" on="0"/>
        <pt x="95" y="32" on="0"/>
        <pt x="113" y="40" on="0"/>
        <pt x="121" y="58" on="0"/>
        <pt x="124" y="74" on="1"/>
        <pt x="178" y="400" on="1"/>
        <pt x="100" y="400" on="1"/>
        <pt x="105" y="431" on="1"/>
        <pt x="184" y="431" on="1"/>
        <pt x="189" y="466" on="0"/>
        <pt x="198" y="520" on="0"/>
        <pt x="204" y="553" on="1"/>
        <pt x="210" y="588" on="0"/>
        <pt x="246" y="644" on="0"/>
        <pt x="296" y="684" on="0"/>
        <pt x="354" y="705" on="0"/>
        <pt x="383" y="705" on="1"/>
        <pt x="398" y="705" on="0"/>
        <pt x="426" y="697" on="0"/>
        <pt x="449" y="682" on="0"/>
        <pt x="463" y="659" on="0"/>
        <pt x="463" y="643" on="1"/>
        <pt x="463" y="617" on="0"/>
        <pt x="432" y="591" on="0"/>
        <pt x="414" y="591" on="1"/>
        <pt x="391" y="591" on="0"/>
        <pt x="375" y="616" on="0"/>
        <pt x="375" y="628" on="1"/>
        <pt x="375" y="642" on="0"/>
        <pt x="393" y="671" on="0"/>
        <pt x="414" y="677" on="1"/>
        <pt x="408" y="679" on="0"/>
        <pt x="389" y="683" on="0"/>
        <pt x="382" y="683" on="1"/>
        <pt x="359" y="683" on="0"/>
        <pt x="318" y="655" on="0"/>
        <pt x="302" y="635" on="1"/>
        <pt x="282" y="608" on="0"/>
        <pt x="268" y="557" on="0"/>
        <pt x="262" y="521" on="1"/>
        <pt x="247" y="431" on="1"/>
        <pt x="364" y="431" on="1"/>
        <pt x="359" y="400" on="1"/>
        <pt x="245" y="400" on="1"/>
      </contour>
    </TTGlyph>
    <TTGlyph name="f_f" xMin="28" yMin="0" xMax="734" yMax="705">
      <contour>
        <pt x="461" y="78" on="1"/>
        <pt x="459" y="67" on="0"/>
        <pt x="458" y="61" on="0"/>
        <pt x="458" y="59" on="1"/>
        <pt x="458" y="42" on="0"/>
        <pt x="485" y="31" on="0"/>
        <pt x="531" y="31" on="1"/>
        <pt x="550" y="31" on="1"/>
        <pt x="548" y="23" on="0"/>
        <pt x="547" y="8" on="0"/>
        <pt x="545" y="0" on="1"/>
        <pt x="533" y="1" on="0"/>
        <pt x="492" y="2" on="0"/>
        <pt x="452" y="3" on="0"/>
        <pt x="421" y="3" on="0"/>
        <pt x="419" y="3" on="1"/>
        <pt x="397" y="3" on="0"/>
        <pt x="334" y="1" on="0"/>
        <pt x="304" y="0" on="1"/>
        <pt x="309" y="31" on="1"/>
        <pt x="310" y="31" on="1"/>
        <pt x="337" y="31" on="0"/>
        <pt x="369" y="34" on="0"/>
        <pt x="385" y="43" on="0"/>
        <pt x="392" y="60" on="0"/>
        <pt x="394" y="74" on="1"/>
        <pt x="448" y="400" on="1"/>
        <pt x="239" y="400" on="1"/>
        <pt x="184" y="71" on="1"/>
        <pt x="182" y="61" on="0"/>
        <pt x="182" y="56" on="1"/>
        <pt x="182" y="37" on="0"/>
        <pt x="217" y="31" on="0"/>
        <pt x="255" y="31" on="1"/>
        <pt x="249" y="0" on="1"/>
        <pt x="222" y="1" on="0"/>
        <pt x="157" y="3" on="0"/>
        <pt x="139" y="3" on="1"/>
        <pt x="120" y="3" on="0"/>
        <pt x="53" y="1" on="0"/>
        <pt x="28" y="0" on="1"/>
        <pt x="33" y="31" on="1"/>
        <pt x="34" y="31" on="1"/>
        <pt x="61" y="31" on="0"/>
        <pt x="93" y="34" on="0"/>
        <pt x="109" y="43" on="0"/>
        <pt x="116" y="60" on="0"/>
        <pt x="118" y="74" on="1"/>
        <pt x="172" y="400" on="1"/>
        <pt x="94" y="400" on="1"/>
        <pt x="96" y="408" on="0"/>
        <pt x="97" y="423" on="0"/>
        <pt x="99" y="431" on="1"/>
        <pt x="178" y="431" on="1"/>
        <pt x="197" y="547" on="1"/>
        <pt x="204" y="587" on="0"/>
        <pt x="252" y="647" on="0"/>
        <pt x="320" y="686" on="0"/>
        <pt x="397" y="705" on="0"/>
        <pt x="433" y="705" on="1"/>
        <pt x="443" y="705" on="0"/>
        <pt x="472" y="702" on="0"/>
        <pt x="503" y="693" on="0"/>
        <pt x="530" y="676" on="0"/>
        <pt x="539" y="662" on="1"/>
        <pt x="556" y="677" on="0"/>
        <pt x="618" y="705" on="0"/>
        <pt x="653" y="705" on="1"/>
        <pt x="683" y="705" on="0"/>
        <pt x="734" y="675" on="0"/>
        <pt x="734" y="642" on="1"/>
        <pt x="734" y="619" on="0"/>
        <pt x="705" y="591" on="0"/>
        <pt x="685" y="591" on="1"/>
        <pt x="662" y="591" on="0"/>
        <pt x="646" y="616" on="0"/>
        <pt x="646" y="628" on="1"/>
        <pt x="646" y="646" on="0"/>
        <pt x="668" y="672" on="0"/>
        <pt x="684" y="677" on="1"/>
        <pt x="677" y="680" on="0"/>
        <pt x="666" y="683" on="0"/>
        <pt x="653" y="683" on="1"/>
        <pt x="636" y="683" on="0"/>
        <pt x="599" y="665" on="0"/>
        <pt x="567" y="631" on="0"/>
        <pt x="542" y="581" on="0"/>
        <pt x="537" y="549" on="1"/>
        <pt x="517" y="431" on="1"/>
        <pt x="635" y="431" on="1"/>
        <pt x="633" y="423" on="0"/>
        <pt x="632" y="408" on="0"/>
        <pt x="630" y="400" on="1"/>
        <pt x="515" y="400" on="1"/>
      </contour>
      <contour>
        <pt x="241" y="431" on="1"/>
        <pt x="454" y="431" on="1"/>
        <pt x="473" y="548" on="1"/>
        <pt x="475" y="561" on="0"/>
        <pt x="480" y="577" on="0"/>
        <pt x="481" y="580" on="1"/>
        <pt x="480" y="580" on="0"/>
        <pt x="460" y="595" on="0"/>
        <pt x="460" y="614" on="1"/>
        <pt x="460" y="629" on="0"/>
        <pt x="480" y="659" on="0"/>
        <pt x="504" y="664" on="1"/>
        <pt x="494" y="671" on="0"/>
        <pt x="472" y="679" on="0"/>
        <pt x="451" y="682" on="0"/>
        <pt x="435" y="683" on="0"/>
        <pt x="432" y="683" on="1"/>
        <pt x="406" y="683" on="0"/>
        <pt x="350" y="666" on="0"/>
        <pt x="302" y="632" on="0"/>
        <pt x="266" y="579" on="0"/>
        <pt x="260" y="544" on="1"/>
      </contour>
    </TTGlyph>
    <TTGlyph name="f_f_i" xMin="28" yMin="0" xMax="826" yMax="705">
      <contour>
        <pt x="738" y="71" on="1"/>
        <pt x="736" y="61" on="0"/>
        <pt x="736" y="56" on="1"/>
        <pt x="736" y="37" on="0"/>
        <pt x="771" y="31" on="0"/>
        <pt x="809" y="31" on="1"/>
        <pt x="803" y="0" on="1"/>
        <pt x="776" y="1" on="0"/>
        <pt x="711" y="3" on="0"/>
        <pt x="693" y="3" on="1"/>
        <pt x="674" y="3" on="0"/>
        <pt x="607" y="1" on="0"/>
        <pt x="582" y="0" on="1"/>
        <pt x="587" y="31" on="1"/>
        <pt x="588" y="31" on="1"/>
        <pt x="616" y="31" on="0"/>
        <pt x="647" y="34" on="0"/>
        <pt x="664" y="43" on="0"/>
        <pt x="670" y="60" on="0"/>
        <pt x="672" y="74" on="1"/>
        <pt x="717" y="342" on="1"/>
        <pt x="719" y="356" on="0"/>
        <pt x="720" y="368" on="0"/>
        <pt x="720" y="369" on="1"/>
        <pt x="720" y="387" on="0"/>
        <pt x="701" y="400" on="0"/>
        <pt x="672" y="400" on="1"/>
        <pt x="516" y="400" on="1"/>
        <pt x="461" y="71" on="1"/>
        <pt x="459" y="61" on="0"/>
        <pt x="459" y="56" on="1"/>
        <pt x="459" y="37" on="0"/>
        <pt x="494" y="31" on="0"/>
        <pt x="532" y="31" on="1"/>
        <pt x="526" y="0" on="1"/>
        <pt x="499" y="1" on="0"/>
        <pt x="434" y="3" on="0"/>
        <pt x="416" y="3" on="1"/>
        <pt x="397" y="3" on="0"/>
        <pt x="330" y="1" on="0"/>
        <pt x="305" y="0" on="1"/>
        <pt x="310" y="31" on="1"/>
        <pt x="311" y="31" on="1"/>
        <pt x="338" y="31" on="0"/>
        <pt x="370" y="34" on="0"/>
        <pt x="386" y="43" on="0"/>
        <pt x="393" y="60" on="0"/>
        <pt x="395" y="74" on="1"/>
        <pt x="449" y="400" on="1"/>
        <pt x="239" y="400" on="1"/>
        <pt x="184" y="71" on="1"/>
        <pt x="182" y="61" on="0"/>
        <pt x="182" y="56" on="1"/>
        <pt x="182" y="37" on="0"/>
        <pt x="217" y="31" on="0"/>
        <pt x="255" y="31" on="1"/>
        <pt x="249" y="0" on="1"/>
        <pt x="222" y="1" on="0"/>
        <pt x="157" y="3" on="0"/>
        <pt x="139" y="3" on="1"/>
        <pt x="120" y="3" on="0"/>
        <pt x="53" y="1" on="0"/>
        <pt x="28" y="0" on="1"/>
        <pt x="33" y="31" on="1"/>
        <pt x="34" y="31" on="1"/>
        <pt x="61" y="31" on="0"/>
        <pt x="93" y="34" on="0"/>
        <pt x="109" y="43" on="0"/>
        <pt x="116" y="60" on="0"/>
        <pt x="118" y="74" on="1"/>
        <pt x="172" y="400" on="1"/>
        <pt x="94" y="400" on="1"/>
        <pt x="96" y="408" on="0"/>
        <pt x="97" y="423" on="0"/>
        <pt x="99" y="431" on="1"/>
        <pt x="178" y="431" on="1"/>
        <pt x="197" y="547" on="1"/>
        <pt x="204" y="587" on="0"/>
        <pt x="253" y="647" on="0"/>
        <pt x="321" y="686" on="0"/>
        <pt x="398" y="705" on="0"/>
        <pt x="433" y="705" on="1"/>
        <pt x="468" y="705" on="0"/>
        <pt x="526" y="679" on="0"/>
        <pt x="540" y="650" on="1"/>
        <pt x="576" y="677" on="0"/>
        <pt x="666" y="705" on="0"/>
        <pt x="711" y="705" on="1"/>
        <pt x="762" y="705" on="0"/>
        <pt x="826" y="657" on="0"/>
        <pt x="826" y="617" on="1"/>
        <pt x="826" y="598" on="0"/>
        <pt x="813" y="574" on="0"/>
        <pt x="795" y="562" on="0"/>
        <pt x="778" y="558" on="0"/>
        <pt x="773" y="558" on="1"/>
        <pt x="772" y="558" on="0"/>
        <pt x="759" y="560" on="0"/>
        <pt x="745" y="567" on="0"/>
        <pt x="733" y="583" on="0"/>
        <pt x="733" y="598" on="1"/>
        <pt x="733" y="604" on="0"/>
        <pt x="737" y="621" on="0"/>
        <pt x="750" y="638" on="0"/>
        <pt x="772" y="650" on="0"/>
        <pt x="790" y="650" on="1"/>
        <pt x="773" y="671" on="0"/>
        <pt x="726" y="683" on="0"/>
        <pt x="709" y="683" on="1"/>
        <pt x="686" y="683" on="0"/>
        <pt x="631" y="667" on="0"/>
        <pt x="581" y="633" on="0"/>
        <pt x="543" y="581" on="0"/>
        <pt x="537" y="544" on="1"/>
        <pt x="518" y="431" on="1"/>
        <pt x="634" y="431" on="1"/>
        <pt x="646" y="431" on="0"/>
        <pt x="652" y="431" on="0"/>
        <pt x="654" y="432" on="1"/>
        <pt x="655" y="433" on="0"/>
        <pt x="661" y="433" on="0"/>
        <pt x="674" y="434" on="1"/>
        <pt x="800" y="443" on="1"/>
      </contour>
      <contour>
        <pt x="241" y="431" on="1"/>
        <pt x="455" y="431" on="1"/>
        <pt x="477" y="561" on="1"/>
        <pt x="470" y="563" on="0"/>
        <pt x="453" y="580" on="0"/>
        <pt x="453" y="598" on="1"/>
        <pt x="453" y="618" on="0"/>
        <pt x="483" y="651" on="0"/>
        <pt x="510" y="651" on="1"/>
        <pt x="494" y="671" on="0"/>
        <pt x="449" y="683" on="0"/>
        <pt x="431" y="683" on="1"/>
        <pt x="407" y="683" on="0"/>
        <pt x="352" y="667" on="0"/>
        <pt x="303" y="632" on="0"/>
        <pt x="266" y="580" on="0"/>
        <pt x="260" y="544" on="1"/>
      </contour>
    </TTGlyph>
    <TTGlyph name="f_f_l" xMin="28" yMin="0" xMax="842" yMax="705">
      <contour>
        <pt x="738" y="71" on="1"/>
        <pt x="736" y="61" on="0"/>
        <pt x="736" y="56" on="1"/>
        <pt x="736" y="37" on="0"/>
        <pt x="771" y="31" on="0"/>
        <pt x="809" y="31" on="1"/>
        <pt x="803" y="0" on="1"/>
        <pt x="776" y="1" on="0"/>
        <pt x="711" y="3" on="0"/>
        <pt x="693" y="3" on="1"/>
        <pt x="674" y="3" on="0"/>
        <pt x="607" y="1" on="0"/>
        <pt x="582" y="0" on="1"/>
        <pt x="587" y="31" on="1"/>
        <pt x="588" y="31" on="1"/>
        <pt x="615" y="31" on="0"/>
        <pt x="647" y="34" on="0"/>
        <pt x="663" y="43" on="0"/>
        <pt x="670" y="60" on="0"/>
        <pt x="672" y="74" on="1"/>
        <pt x="726" y="400" on="1"/>
        <pt x="516" y="400" on="1"/>
        <pt x="461" y="71" on="1"/>
        <pt x="459" y="61" on="0"/>
        <pt x="459" y="56" on="1"/>
        <pt x="459" y="37" on="0"/>
        <pt x="494" y="31" on="0"/>
        <pt x="532" y="31" on="1"/>
        <pt x="526" y="0" on="1"/>
        <pt x="499" y="1" on="0"/>
        <pt x="434" y="3" on="0"/>
        <pt x="416" y="3" on="1"/>
        <pt x="397" y="3" on="0"/>
        <pt x="330" y="1" on="0"/>
        <pt x="305" y="0" on="1"/>
        <pt x="310" y="31" on="1"/>
        <pt x="311" y="31" on="1"/>
        <pt x="338" y="31" on="0"/>
        <pt x="370" y="34" on="0"/>
        <pt x="386" y="43" on="0"/>
        <pt x="393" y="60" on="0"/>
        <pt x="395" y="74" on="1"/>
        <pt x="449" y="400" on="1"/>
        <pt x="239" y="400" on="1"/>
        <pt x="184" y="71" on="1"/>
        <pt x="182" y="61" on="0"/>
        <pt x="182" y="56" on="1"/>
        <pt x="182" y="37" on="0"/>
        <pt x="217" y="31" on="0"/>
        <pt x="255" y="31" on="1"/>
        <pt x="249" y="0" on="1"/>
        <pt x="222" y="1" on="0"/>
        <pt x="157" y="3" on="0"/>
        <pt x="139" y="3" on="1"/>
        <pt x="120" y="3" on="0"/>
        <pt x="53" y="1" on="0"/>
        <pt x="28" y="0" on="1"/>
        <pt x="33" y="31" on="1"/>
        <pt x="34" y="31" on="1"/>
        <pt x="61" y="31" on="0"/>
        <pt x="93" y="34" on="0"/>
        <pt x="109" y="43" on="0"/>
        <pt x="116" y="60" on="0"/>
        <pt x="118" y="74" on="1"/>
        <pt x="172" y="400" on="1"/>
        <pt x="94" y="400" on="1"/>
        <pt x="96" y="408" on="0"/>
        <pt x="97" y="423" on="0"/>
        <pt x="99" y="431" on="1"/>
        <pt x="178" y="431" on="1"/>
        <pt x="197" y="547" on="1"/>
        <pt x="204" y="587" on="0"/>
        <pt x="252" y="646" on="0"/>
        <pt x="320" y="685" on="0"/>
        <pt x="398" y="705" on="0"/>
        <pt x="434" y="705" on="1"/>
        <pt x="471" y="705" on="0"/>
        <pt x="532" y="681" on="0"/>
        <pt x="545" y="654" on="1"/>
        <pt x="553" y="659" on="0"/>
        <pt x="582" y="677" on="0"/>
        <pt x="624" y="693" on="0"/>
        <pt x="680" y="705" on="0"/>
        <pt x="713" y="705" on="1"/>
        <pt x="718" y="705" on="0"/>
        <pt x="738" y="704" on="0"/>
        <pt x="763" y="701" on="0"/>
        <pt x="789" y="694" on="0"/>
        <pt x="801" y="687" on="1"/>
        <pt x="812" y="689" on="0"/>
        <pt x="831" y="692" on="0"/>
        <pt x="842" y="694" on="1"/>
      </contour>
      <contour>
        <pt x="241" y="431" on="1"/>
        <pt x="455" y="431" on="1"/>
        <pt x="474" y="547" on="1"/>
        <pt x="476" y="561" on="0"/>
        <pt x="481" y="574" on="0"/>
        <pt x="483" y="580" on="1"/>
        <pt x="472" y="584" on="0"/>
        <pt x="461" y="602" on="0"/>
        <pt x="461" y="614" on="1"/>
        <pt x="461" y="633" on="0"/>
        <pt x="484" y="660" on="0"/>
        <pt x="505" y="664" on="1"/>
        <pt x="495" y="671" on="0"/>
        <pt x="472" y="679" on="0"/>
        <pt x="451" y="682" on="0"/>
        <pt x="435" y="683" on="0"/>
        <pt x="432" y="683" on="1"/>
        <pt x="407" y="683" on="0"/>
        <pt x="351" y="666" on="0"/>
        <pt x="302" y="632" on="0"/>
        <pt x="266" y="579" on="0"/>
        <pt x="260" y="544" on="1"/>
      </contour>
      <contour>
        <pt x="518" y="431" on="1"/>
        <pt x="732" y="431" on="1"/>
        <pt x="759" y="595" on="1"/>
        <pt x="754" y="597" on="0"/>
        <pt x="740" y="613" on="0"/>
        <pt x="740" y="628" on="1"/>
        <pt x="740" y="640" on="0"/>
        <pt x="748" y="657" on="0"/>
        <pt x="759" y="668" on="0"/>
        <pt x="770" y="674" on="0"/>
        <pt x="772" y="675" on="1"/>
        <pt x="755" y="680" on="0"/>
        <pt x="723" y="683" on="0"/>
        <pt x="711" y="683" on="1"/>
        <pt x="683" y="683" on="0"/>
        <pt x="626" y="665" on="0"/>
        <pt x="577" y="630" on="0"/>
        <pt x="543" y="578" on="0"/>
        <pt x="537" y="544" on="1"/>
      </contour>
    </TTGlyph>
    <TTGlyph name="fi" xMin="28" yMin="0" xMax="549" yMax="705">
      <contour>
        <pt x="461" y="71" on="1"/>
        <pt x="459" y="61" on="0"/>
        <pt x="459" y="56" on="1"/>
        <pt x="459" y="37" on="0"/>
        <pt x="494" y="31" on="0"/>
        <pt x="532" y="31" on="1"/>
        <pt x="526" y="0" on="1"/>
        <pt x="499" y="1" on="0"/>
        <pt x="434" y="3" on="0"/>
        <pt x="416" y="3" on="1"/>
        <pt x="397" y="3" on="0"/>
        <pt x="330" y="1" on="0"/>
        <pt x="305" y="0" on="1"/>
        <pt x="310" y="31" on="1"/>
        <pt x="311" y="31" on="1"/>
        <pt x="339" y="31" on="0"/>
        <pt x="370" y="34" on="0"/>
        <pt x="387" y="43" on="0"/>
        <pt x="393" y="60" on="0"/>
        <pt x="395" y="74" on="1"/>
        <pt x="440" y="342" on="1"/>
        <pt x="442" y="356" on="0"/>
        <pt x="443" y="368" on="0"/>
        <pt x="443" y="369" on="1"/>
        <pt x="443" y="387" on="0"/>
        <pt x="424" y="400" on="0"/>
        <pt x="395" y="400" on="1"/>
        <pt x="239" y="400" on="1"/>
        <pt x="184" y="71" on="1"/>
        <pt x="182" y="61" on="0"/>
        <pt x="182" y="56" on="1"/>
        <pt x="182" y="37" on="0"/>
        <pt x="217" y="31" on="0"/>
        <pt x="255" y="31" on="1"/>
        <pt x="249" y="0" on="1"/>
        <pt x="222" y="1" on="0"/>
        <pt x="157" y="3" on="0"/>
        <pt x="139" y="3" on="1"/>
        <pt x="120" y="3" on="0"/>
        <pt x="53" y="1" on="0"/>
        <pt x="28" y="0" on="1"/>
        <pt x="33" y="31" on="1"/>
        <pt x="34" y="31" on="1"/>
        <pt x="61" y="31" on="0"/>
        <pt x="93" y="34" on="0"/>
        <pt x="109" y="43" on="0"/>
        <pt x="116" y="60" on="0"/>
        <pt x="118" y="74" on="1"/>
        <pt x="172" y="400" on="1"/>
        <pt x="94" y="400" on="1"/>
        <pt x="96" y="408" on="0"/>
        <pt x="97" y="423" on="0"/>
        <pt x="99" y="431" on="1"/>
        <pt x="178" y="431" on="1"/>
        <pt x="197" y="547" on="1"/>
        <pt x="204" y="587" on="0"/>
        <pt x="253" y="646" on="0"/>
        <pt x="320" y="685" on="0"/>
        <pt x="398" y="705" on="0"/>
        <pt x="434" y="705" on="1"/>
        <pt x="485" y="705" on="0"/>
        <pt x="549" y="657" on="0"/>
        <pt x="549" y="617" on="1"/>
        <pt x="549" y="598" on="0"/>
        <pt x="536" y="574" on="0"/>
        <pt x="518" y="562" on="0"/>
        <pt x="501" y="558" on="0"/>
        <pt x="496" y="558" on="1"/>
        <pt x="495" y="558" on="0"/>
        <pt x="482" y="560" on="0"/>
        <pt x="468" y="567" on="0"/>
        <pt x="456" y="583" on="0"/>
        <pt x="456" y="598" on="1"/>
        <pt x="456" y="604" on="0"/>
        <pt x="460" y="621" on="0"/>
        <pt x="473" y="638" on="0"/>
        <pt x="495" y="650" on="0"/>
        <pt x="513" y="650" on="1"/>
        <pt x="496" y="671" on="0"/>
        <pt x="449" y="683" on="0"/>
        <pt x="432" y="683" on="1"/>
        <pt x="409" y="683" on="0"/>
        <pt x="354" y="667" on="0"/>
        <pt x="304" y="633" on="0"/>
        <pt x="266" y="581" on="0"/>
        <pt x="260" y="544" on="1"/>
        <pt x="241" y="431" on="1"/>
        <pt x="357" y="431" on="1"/>
        <pt x="369" y="431" on="0"/>
        <pt x="375" y="431" on="0"/>
        <pt x="377" y="432" on="1"/>
        <pt x="378" y="433" on="0"/>
        <pt x="384" y="433" on="0"/>
        <pt x="397" y="434" on="1"/>
        <pt x="523" y="443" on="1"/>
      </contour>
    </TTGlyph>
    <TTGlyph name="five" xMin="75" yMin="-22" xMax="519" yMax="665">
      <contour>
        <pt x="194" y="370" on="1"/>
        <pt x="222" y="394" on="0"/>
        <pt x="289" y="420" on="0"/>
        <pt x="327" y="420" on="1"/>
        <pt x="364" y="420" on="0"/>
        <pt x="423" y="392" on="0"/>
        <pt x="464" y="343" on="0"/>
        <pt x="486" y="278" on="0"/>
        <pt x="486" y="241" on="1"/>
        <pt x="486" y="186" on="0"/>
        <pt x="442" y="90" on="0"/>
        <pt x="369" y="19" on="0"/>
        <pt x="277" y="-22" on="0"/>
        <pt x="229" y="-22" on="1"/>
        <pt x="195" y="-22" on="0"/>
        <pt x="138" y="2" on="0"/>
        <pt x="97" y="44" on="0"/>
        <pt x="75" y="102" on="0"/>
        <pt x="75" y="135" on="1"/>
        <pt x="75" y="141" on="0"/>
        <pt x="77" y="167" on="0"/>
        <pt x="88" y="194" on="0"/>
        <pt x="111" y="214" on="0"/>
        <pt x="133" y="214" on="1"/>
        <pt x="157" y="214" on="0"/>
        <pt x="177" y="187" on="0"/>
        <pt x="177" y="172" on="1"/>
        <pt x="177" y="164" on="0"/>
        <pt x="171" y="145" on="0"/>
        <pt x="157" y="128" on="0"/>
        <pt x="135" y="116" on="0"/>
        <pt x="120" y="116" on="1"/>
        <pt x="116" y="116" on="0"/>
        <pt x="105" y="117" on="0"/>
        <pt x="101" y="119" on="1"/>
        <pt x="105" y="89" on="0"/>
        <pt x="130" y="47" on="0"/>
        <pt x="165" y="19" on="0"/>
        <pt x="208" y="6" on="0"/>
        <pt x="229" y="6" on="1"/>
        <pt x="270" y="6" on="0"/>
        <pt x="338" y="54" on="0"/>
        <pt x="358" y="89" on="1"/>
        <pt x="372" y="113" on="0"/>
        <pt x="389" y="176" on="0"/>
        <pt x="399" y="234" on="0"/>
        <pt x="403" y="281" on="0"/>
        <pt x="403" y="288" on="1"/>
        <pt x="403" y="341" on="0"/>
        <pt x="360" y="398" on="0"/>
        <pt x="325" y="398" on="1"/>
        <pt x="284" y="398" on="0"/>
        <pt x="211" y="361" on="0"/>
        <pt x="185" y="329" on="1"/>
        <pt x="180" y="323" on="0"/>
        <pt x="175" y="319" on="0"/>
        <pt x="170" y="319" on="1"/>
        <pt x="162" y="319" on="0"/>
        <pt x="156" y="326" on="0"/>
        <pt x="156" y="331" on="1"/>
        <pt x="156" y="334" on="0"/>
        <pt x="156" y="339" on="0"/>
        <pt x="158" y="346" on="1"/>
        <pt x="208" y="643" on="1"/>
        <pt x="210" y="654" on="0"/>
        <pt x="214" y="665" on="0"/>
        <pt x="220" y="665" on="1"/>
        <pt x="222" y="665" on="0"/>
        <pt x="227" y="664" on="0"/>
        <pt x="236" y="660" on="1"/>
        <pt x="270" y="645" on="0"/>
        <pt x="332" y="634" on="0"/>
        <pt x="360" y="634" on="1"/>
        <pt x="389" y="634" on="0"/>
        <pt x="459" y="646" on="0"/>
        <pt x="497" y="661" on="1"/>
        <pt x="504" y="664" on="0"/>
        <pt x="508" y="665" on="0"/>
        <pt x="510" y="665" on="1"/>
        <pt x="512" y="665" on="0"/>
        <pt x="519" y="662" on="0"/>
        <pt x="519" y="655" on="1"/>
        <pt x="519" y="650" on="0"/>
        <pt x="488" y="616" on="0"/>
        <pt x="432" y="580" on="0"/>
        <pt x="356" y="551" on="0"/>
        <pt x="311" y="551" on="1"/>
        <pt x="296" y="551" on="0"/>
        <pt x="255" y="556" on="0"/>
        <pt x="227" y="565" on="1"/>
      </contour>
    </TTGlyph>
    <TTGlyph name="fl" xMin="28" yMin="0" xMax="565" yMax="705">
      <contour>
        <pt x="461" y="71" on="1"/>
        <pt x="459" y="61" on="0"/>
        <pt x="459" y="56" on="1"/>
        <pt x="459" y="37" on="0"/>
        <pt x="494" y="31" on="0"/>
        <pt x="532" y="31" on="1"/>
        <pt x="526" y="0" on="1"/>
        <pt x="499" y="1" on="0"/>
        <pt x="434" y="3" on="0"/>
        <pt x="416" y="3" on="1"/>
        <pt x="397" y="3" on="0"/>
        <pt x="330" y="1" on="0"/>
        <pt x="305" y="0" on="1"/>
        <pt x="310" y="31" on="1"/>
        <pt x="311" y="31" on="1"/>
        <pt x="338" y="31" on="0"/>
        <pt x="370" y="34" on="0"/>
        <pt x="386" y="43" on="0"/>
        <pt x="393" y="60" on="0"/>
        <pt x="395" y="74" on="1"/>
        <pt x="449" y="400" on="1"/>
        <pt x="239" y="400" on="1"/>
        <pt x="184" y="71" on="1"/>
        <pt x="182" y="61" on="0"/>
        <pt x="182" y="56" on="1"/>
        <pt x="182" y="37" on="0"/>
        <pt x="217" y="31" on="0"/>
        <pt x="255" y="31" on="1"/>
        <pt x="249" y="0" on="1"/>
        <pt x="222" y="1" on="0"/>
        <pt x="157" y="3" on="0"/>
        <pt x="139" y="3" on="1"/>
        <pt x="120" y="3" on="0"/>
        <pt x="53" y="1" on="0"/>
        <pt x="28" y="0" on="1"/>
        <pt x="33" y="31" on="1"/>
        <pt x="34" y="31" on="1"/>
        <pt x="61" y="31" on="0"/>
        <pt x="93" y="34" on="0"/>
        <pt x="109" y="43" on="0"/>
        <pt x="116" y="60" on="0"/>
        <pt x="118" y="74" on="1"/>
        <pt x="172" y="400" on="1"/>
        <pt x="94" y="400" on="1"/>
        <pt x="96" y="408" on="0"/>
        <pt x="97" y="423" on="0"/>
        <pt x="99" y="431" on="1"/>
        <pt x="178" y="431" on="1"/>
        <pt x="197" y="547" on="1"/>
        <pt x="203" y="586" on="0"/>
        <pt x="250" y="645" on="0"/>
        <pt x="317" y="685" on="0"/>
        <pt x="397" y="705" on="0"/>
        <pt x="436" y="705" on="1"/>
        <pt x="441" y="705" on="0"/>
        <pt x="461" y="704" on="0"/>
        <pt x="486" y="701" on="0"/>
        <pt x="512" y="694" on="0"/>
        <pt x="524" y="687" on="1"/>
        <pt x="535" y="689" on="0"/>
        <pt x="554" y="692" on="0"/>
        <pt x="565" y="694" on="1"/>
      </contour>
      <contour>
        <pt x="241" y="431" on="1"/>
        <pt x="455" y="431" on="1"/>
        <pt x="482" y="595" on="1"/>
        <pt x="477" y="597" on="0"/>
        <pt x="463" y="613" on="0"/>
        <pt x="463" y="628" on="1"/>
        <pt x="463" y="640" on="0"/>
        <pt x="471" y="657" on="0"/>
        <pt x="482" y="668" on="0"/>
        <pt x="493" y="674" on="0"/>
        <pt x="495" y="675" on="1"/>
        <pt x="478" y="680" on="0"/>
        <pt x="446" y="683" on="0"/>
        <pt x="434" y="683" on="1"/>
        <pt x="406" y="683" on="0"/>
        <pt x="349" y="665" on="0"/>
        <pt x="300" y="630" on="0"/>
        <pt x="266" y="578" on="0"/>
        <pt x="260" y="544" on="1"/>
      </contour>
    </TTGlyph>
    <TTGlyph name="four" xMin="56" yMin="0" xMax="504" yMax="677">
      <contour>
        <pt x="404" y="196" on="1"/>
        <pt x="504" y="196" on="1"/>
        <pt x="499" y="165" on="1"/>
        <pt x="399" y="165" on="1"/>
        <pt x="398" y="161" on="0"/>
        <pt x="392" y="127" on="0"/>
        <pt x="386" y="91" on="0"/>
        <pt x="381" y="61" on="0"/>
        <pt x="381" y="59" on="1"/>
        <pt x="381" y="42" on="0"/>
        <pt x="408" y="31" on="0"/>
        <pt x="454" y="31" on="1"/>
        <pt x="473" y="31" on="1"/>
        <pt x="471" y="23" on="0"/>
        <pt x="470" y="8" on="0"/>
        <pt x="468" y="0" on="1"/>
        <pt x="437" y="2" on="0"/>
        <pt x="365" y="3" on="0"/>
        <pt x="333" y="3" on="1"/>
        <pt x="303" y="3" on="0"/>
        <pt x="226" y="2" on="0"/>
        <pt x="197" y="0" on="1"/>
        <pt x="202" y="31" on="1"/>
        <pt x="221" y="31" on="1"/>
        <pt x="265" y="31" on="0"/>
        <pt x="298" y="42" on="0"/>
        <pt x="303" y="58" on="1"/>
        <pt x="304" y="61" on="0"/>
        <pt x="308" y="88" on="0"/>
        <pt x="314" y="123" on="0"/>
        <pt x="320" y="156" on="0"/>
        <pt x="321" y="165" on="1"/>
        <pt x="56" y="165" on="1"/>
        <pt x="56" y="176" on="0"/>
        <pt x="61" y="198" on="0"/>
        <pt x="68" y="206" on="1"/>
        <pt x="444" y="662" on="1"/>
        <pt x="452" y="673" on="0"/>
        <pt x="459" y="677" on="0"/>
        <pt x="467" y="677" on="1"/>
        <pt x="472" y="677" on="0"/>
        <pt x="482" y="674" on="0"/>
        <pt x="482" y="666" on="1"/>
        <pt x="482" y="664" on="0"/>
        <pt x="482" y="659" on="0"/>
        <pt x="480" y="652" on="1"/>
      </contour>
      <contour>
        <pt x="88" y="196" on="1"/>
        <pt x="333" y="196" on="1"/>
        <pt x="395" y="569" on="1"/>
      </contour>
    </TTGlyph>
</ttFont>
